<svg width="246" height="188" viewBox="0 0 246 188" fill="none" xmlns="http://www.w3.org/2000/svg">
<g clip-path="url(#clip0)">
<path d="M123 188C190.931 188 246 170.899 246 149.805C246 128.71 190.931 111.61 123 111.61C55.069 111.61 0 128.71 0 149.805C0 170.899 55.069 188 123 188Z" fill="#FFE1E5"/>
<path d="M215.67 101.904C218.431 101.446 221.253 101.56 224.056 101.446C229.127 101.26 234.144 100.365 238.952 98.7864L235.871 109.464C235.08 112.215 234.279 114.989 232.965 117.547C231.712 119.998 230.014 122.209 227.952 124.071C223.712 127.931 217.663 130.169 211.935 129.16C206.922 128.28 202.22 124.864 200.76 119.991C197.976 110.752 207.12 103.334 215.67 101.904Z" fill="#B4DFD5"/>
<path d="M235.678 101.766C231.81 103.449 227.928 105.141 224.16 107.039C224.787 105.775 225.544 104.577 226.421 103.463C226.76 103.036 226.124 102.463 225.785 102.894C224.639 104.33 223.689 105.903 222.958 107.575C222.954 107.607 222.954 107.64 222.958 107.672C221.281 108.547 219.623 109.464 218.012 110.454C215.615 111.873 213.345 113.483 211.223 115.268C212.086 112.084 213.117 108.946 214.314 105.865C214.512 105.361 213.744 104.948 213.55 105.471C212.162 109.032 210.986 112.667 210.027 116.36C208.004 118.242 206.411 120.518 205.353 123.039C205.151 123.539 205.919 123.956 206.121 123.429C206.571 122.317 207.141 121.255 207.822 120.261C212.641 120.321 217.668 120.004 222.426 120.752C222.973 120.839 223.161 120.018 222.61 119.931C217.96 119.197 213.098 119.473 208.387 119.427C211.077 115.901 214.983 113.237 218.789 110.95C223.255 111.17 227.896 111.073 232.272 112.022C232.379 112.035 232.487 112.008 232.575 111.948C232.663 111.887 232.725 111.796 232.748 111.694C232.771 111.591 232.754 111.484 232.7 111.393C232.646 111.302 232.559 111.234 232.456 111.202C228.447 110.331 224.23 110.322 220.113 110.166C225.177 107.25 230.557 104.898 235.923 102.564C236.451 102.349 236.187 101.546 235.678 101.766Z" fill="#42B093"/>
<path d="M194.608 87.7281C197.455 83.6533 201.731 80.7277 206.635 79.4986C209.881 78.6963 213.39 78.6458 216.321 77.0641C219.345 75.4274 221.272 72.4198 223.783 70.1C226.096 67.9635 229.083 66.3543 232.263 66.2534C235.443 66.1525 238.797 67.7984 240.064 70.6547C241.699 74.3225 239.367 78.8201 235.824 80.9244C234.034 81.9927 231.839 82.7583 230.873 84.5601C230.44 85.5403 230.22 86.5971 230.228 87.6639C230.016 91.0153 229.808 94.3943 228.923 97.6402C227.774 102.053 225.258 106.015 221.715 108.987C218.137 111.948 213.523 113.45 208.835 113.178C206.44 112.933 204.09 112.368 201.853 111.5C190.952 107.589 188.092 97.0992 194.608 87.7281Z" fill="#42B093"/>
<path d="M237.346 72.8416C235.355 73.2472 233.344 73.5532 231.32 73.7586C232.616 72.6995 233.93 71.6633 235.282 70.6593C235.692 70.3521 235.146 69.7745 234.736 70.0816C233.243 71.1911 231.792 72.3373 230.359 73.511C230.409 72.3715 230.557 71.2382 230.802 70.1229C230.911 69.6369 230.143 69.3893 230.034 69.8845C229.718 71.301 229.55 72.7448 229.53 74.1941C226.704 76.569 223.952 79.0676 221.31 81.6488C221.465 80.1129 221.55 78.5725 221.555 77.0229C221.555 76.5185 220.749 76.4819 220.749 76.9908C220.743 78.8494 220.628 80.7061 220.405 82.552C215.939 86.9808 211.723 91.6572 207.619 96.4253C208.087 91.5838 208.656 86.7516 209.325 81.9285C209.395 81.4287 208.59 81.4012 208.519 81.8964C207.794 87.0924 207.189 92.2884 206.705 97.4843C204.821 99.6942 202.937 101.922 201.09 104.155C200.879 103.847 200.737 103.498 200.675 103.133C200.408 101.91 200.173 100.671 199.969 99.4145C199.51 96.5872 199.212 93.7372 199.078 90.8778C199.05 90.3781 198.244 90.3368 198.273 90.8457C198.51 95.6465 199.189 100.417 200.303 105.1L198.96 106.713C198.635 107.108 199.319 107.525 199.639 107.135L201.052 105.43C206.705 105.031 212.118 102.871 217.838 102.903C218.356 102.903 218.393 102.124 217.871 102.119C213.07 102.092 208.543 103.614 203.846 104.343C203.169 104.513 202.471 104.587 201.773 104.563C203.657 102.307 205.542 100.056 207.454 97.819L224.504 94.188C224.601 94.158 224.683 94.0934 224.734 94.0071C224.784 93.9208 224.799 93.8191 224.776 93.7223C224.753 93.6256 224.693 93.541 224.608 93.4853C224.524 93.4297 224.421 93.4072 224.32 93.4223L208.302 96.8333C212.354 92.1386 216.509 87.531 220.909 83.1618C223.386 83.1406 225.857 82.9321 228.301 82.5382C228.814 82.4557 228.63 81.6901 228.117 81.7726C226.006 82.1177 223.873 82.3169 221.734 82.3686C224.461 79.6957 227.278 77.1146 230.213 74.6617C232.665 74.4542 235.102 74.1036 237.511 73.6118C237.61 73.5849 237.694 73.5224 237.748 73.437C237.801 73.3516 237.819 73.2496 237.798 73.1517C237.777 73.0539 237.719 72.9674 237.635 72.9098C237.551 72.8523 237.448 72.8279 237.346 72.8416Z" fill="#2E9376"/>
<path d="M235.772 59.6744C229.337 59.9495 222.638 61.3478 218.002 65.5978C219.994 61.7834 221.931 57.9551 223.816 54.1132C224.473 54.3882 225.195 54.4818 225.903 54.3837C229.144 53.9848 230.218 51.1744 230.444 48.3594C230.524 46.8688 230.524 45.3752 230.444 43.8847C230.416 42.8486 231.151 37.6358 228.593 39.3C227.368 40.0886 226.388 41.1889 225.328 42.1563C223.703 43.5537 222.509 45.3632 221.88 47.3828C221.449 48.9267 221.523 50.5628 222.092 52.0638C222.293 52.6892 222.651 53.2563 223.133 53.7143L223.203 53.7647C221.013 58.2577 218.733 62.7095 216.415 67.1474C216.412 67.1215 216.412 67.0954 216.415 67.0695C216.78 65.2054 216.827 63.2957 216.556 61.4166C216.272 59.8462 215.667 58.3472 214.777 57.0085C213.887 55.6697 212.73 54.5184 211.374 53.6226C211.327 53.5842 211.272 53.558 211.212 53.5465C211.152 53.535 211.09 53.5386 211.032 53.557C210.974 53.5754 210.921 53.6079 210.88 53.6515C210.838 53.6951 210.809 53.7482 210.795 53.806C210.795 53.9023 208.755 61.7238 210.159 65.2677C210.679 66.6335 211.508 67.8681 212.585 68.8805C213.117 69.371 213.998 70.1779 214.813 70.1229C212.387 74.7443 209.947 79.3657 207.572 84.01C207.629 83.1798 207.606 82.3463 207.502 81.5205C207.227 78.7955 205.92 76.2675 203.836 74.4279C203.01 73.6797 202.017 73.1288 200.934 72.8187C199.757 74.7764 199.592 77.1604 199.771 79.4253C199.807 80.6766 200.129 81.9045 200.713 83.0197C201.321 84.0126 202.215 84.8098 203.285 85.312C204.063 85.6925 205.603 86.3115 206.545 86.0135C203.681 91.6893 200.934 97.4156 198.456 103.252C198.05 101.784 197.164 100.486 195.931 99.5521C194.698 98.6277 193.333 97.8819 191.88 97.3377C190.938 96.9525 189.901 96.5537 189.303 95.733C189.75 96.815 189.708 98.0254 189.868 99.1807C190.093 100.738 190.69 102.222 191.611 103.513C192.199 104.389 193.011 105.102 193.967 105.581C195.011 106.109 196.225 106.224 197.354 105.902C196.478 108.057 195.63 110.23 194.838 112.421C192.606 118.525 190.834 124.778 189.534 131.131C189.514 131.221 189.532 131.314 189.584 131.391C189.635 131.467 189.715 131.521 189.807 131.539C189.899 131.558 189.995 131.541 190.073 131.491C190.152 131.441 190.207 131.363 190.226 131.274C192.111 121.88 195.187 112.866 198.895 104.082C198.925 104.711 199.133 105.319 199.496 105.84C199.86 106.361 200.364 106.775 200.953 107.034C201.587 107.343 202.277 107.527 202.984 107.575C205.153 107.779 207.32 107.168 209.042 105.869C210.765 104.569 211.912 102.679 212.25 100.584C212.288 100.35 212.288 100.056 212.076 99.9418C211.924 99.8844 211.756 99.8844 211.605 99.9418C210.069 100.299 208.463 100.143 206.894 99.9968C205.325 99.8501 203.709 99.7171 202.183 100.116C201.388 100.323 200.664 100.733 200.086 101.303C202.301 96.2602 204.708 91.2675 207.2 86.3298C207.53 87.0038 208.505 87.4622 209.127 87.7373C210.665 88.4155 212.331 88.7781 214.02 88.8027C215.709 88.8273 217.384 88.5132 218.943 87.8802C220.502 87.2471 221.91 86.3085 223.08 85.1229C224.249 83.9373 225.156 82.53 225.743 80.9886C223.068 79.9367 220.156 79.5921 217.3 79.9899C214.445 80.3877 211.749 81.5136 209.485 83.2535C209.188 83.4781 208.741 83.7899 208.312 84.1429C210.785 79.3015 213.329 74.4921 215.85 69.6965C218.04 74.0199 224.838 73.3643 228.81 71.7551C233.638 69.7653 237.134 65.176 236.097 59.9357C236.079 59.8639 236.038 59.7998 235.979 59.7527C235.921 59.7056 235.848 59.6782 235.772 59.6744Z" fill="#FDD17A"/>
<path d="M24.111 91.02C21.3362 90.6211 18.519 90.8045 15.716 90.7678C10.6396 90.702 5.59984 89.9206 0.753784 88.4479C1.86873 91.9812 2.9821 95.516 4.0939 99.0523C4.95601 101.803 5.82755 104.554 7.19846 107.066C8.51605 109.491 10.2714 111.665 12.3806 113.485C16.743 117.244 22.8155 119.344 28.5205 118.203C33.5095 117.208 38.131 113.687 39.4689 108.79C42.0129 99.4558 32.6898 92.2486 24.111 91.02Z" fill="#61BDA6"/>
<path d="M4.10328 91.3454C8.01343 92.9363 11.933 94.5547 15.7442 96.3473C15.0863 95.0975 14.2969 93.9175 13.3887 92.8263C13.0401 92.4045 13.6619 91.8177 14.0106 92.2395C15.1902 93.65 16.1797 95.2015 16.9549 96.8562C16.9594 96.8882 16.9594 96.9206 16.9549 96.9525C18.6556 97.7869 20.3327 98.6672 21.9722 99.6162C24.4008 100.983 26.7106 102.541 28.8785 104.274C27.9363 101.111 26.8292 98.0024 25.5573 94.9444C25.35 94.4493 26.1037 94.0275 26.311 94.5364C27.7805 98.0631 29.0389 101.67 30.0798 105.338C32.1474 107.174 33.7957 109.412 34.9181 111.908C35.1301 112.403 34.3763 112.825 34.1643 112.316C33.6844 111.216 33.0875 110.168 32.3835 109.189H32.3553C27.5406 109.363 22.5092 109.157 17.7511 110.019C17.2093 110.115 17.0021 109.299 17.5485 109.198C22.1795 108.359 27.0459 108.506 31.7523 108.364C28.9822 104.907 25.0061 102.33 21.1478 100.111C16.6817 100.432 12.0461 100.446 7.68837 101.487C7.633 101.5 7.57555 101.502 7.51931 101.493C7.46306 101.485 7.40912 101.465 7.36056 101.436C7.312 101.407 7.26978 101.369 7.2363 101.325C7.20282 101.28 7.17874 101.229 7.16544 101.175C7.15214 101.121 7.14988 101.065 7.15878 101.01C7.16768 100.956 7.18758 100.903 7.21732 100.856C7.24707 100.809 7.28609 100.768 7.33215 100.735C7.37822 100.702 7.43043 100.679 7.4858 100.666C11.476 99.7079 15.6924 99.5979 19.8004 99.3503C14.6701 96.5491 9.23358 94.3072 3.8112 92.1111C3.3401 91.9415 3.58978 91.1345 4.10328 91.3454Z" fill="#40967D"/>
<path d="M64.1122 84.5143C60.6609 79.554 55.4679 75.9903 49.5081 74.4921C45.5697 73.511 41.3109 73.4376 37.7635 71.5075C34.0936 69.5131 31.7664 65.8591 28.7278 63.035C25.9247 60.4309 22.3066 58.4503 18.4342 58.3357C14.5617 58.221 10.4961 60.197 8.9509 63.6539C6.95813 68.1331 9.77061 73.566 14.0388 76.1334C16.2012 77.4355 18.8676 78.357 20.0312 80.5577C20.6389 81.7084 20.7284 83.0426 20.8085 84.3309C21.0535 88.4021 21.2796 92.5054 22.3585 96.4482C23.7718 101.753 26.7538 106.713 31.0691 110.239C35.3844 113.765 41.0706 115.773 46.6909 115.365C49.5976 115.154 52.4242 114.319 55.1707 113.347C68.4417 108.634 71.9514 95.9164 64.1122 84.5143Z" fill="#B4DFD5"/>
<path d="M12.2486 66.3176C14.6625 66.8207 17.1013 67.2033 19.5554 67.4638C17.9867 66.1801 16.3943 64.9147 14.7596 63.6906C14.2602 63.3146 14.9292 62.6178 15.4239 62.9891C17.2329 64.3416 18.9901 65.7399 20.7238 67.1704C20.6681 65.7829 20.4916 64.4025 20.1961 63.0441C20.0689 62.4481 21.0017 62.1547 21.1383 62.7553C21.5115 64.4802 21.7041 66.2375 21.7131 68.0002C25.1615 70.8931 28.464 73.9328 31.6627 77.0779C31.4837 75.2073 31.3848 73.3368 31.3848 71.4571C31.3848 70.8473 32.36 70.806 32.3647 71.4204C32.3662 73.677 32.4999 75.9318 32.7651 78.1736C38.1687 83.5652 43.2707 89.2548 48.2361 95.0499C47.6896 89.1723 47.0144 83.307 46.2104 77.4538C46.1256 76.8441 47.1055 76.812 47.1903 77.4126C48.0571 83.7028 48.7732 90.0067 49.3385 96.3244C51.628 99.0157 53.8799 101.725 56.1318 104.439C56.3906 104.066 56.5626 103.642 56.6359 103.197C56.9656 101.702 57.2561 100.2 57.5074 98.6901C58.0731 95.2588 58.4442 91.7998 58.6192 88.3287C58.6475 87.719 59.6274 87.6777 59.5944 88.2921C59.2911 94.1196 58.4507 99.9089 57.0834 105.59L58.7087 107.548C59.1044 108.029 58.2753 108.533 57.8843 108.061L56.16 105.984C49.2772 105.485 42.7384 102.848 35.7943 102.867C35.1677 102.867 35.1253 101.918 35.7566 101.918C41.5842 101.918 47.0631 103.752 52.7775 104.669C53.8281 104.838 54.6619 105.049 55.2885 104.944C53.0131 102.193 50.733 99.442 48.4198 96.7371L27.7338 92.2807C27.6088 92.2516 27.5009 92.1753 27.4338 92.0686C27.3666 91.962 27.3457 91.8338 27.3757 91.7122C27.4057 91.5906 27.4841 91.4856 27.5937 91.4203C27.7032 91.3549 27.8349 91.3346 27.9599 91.3638L47.3881 95.5542C42.4887 89.8417 37.4573 84.2346 32.1338 78.9209C29.1334 78.8821 26.1407 78.6154 23.1829 78.1232C22.5611 78.0223 22.7872 77.0916 23.4043 77.2063C25.9684 77.6274 28.5594 77.8756 31.1587 77.949C27.861 74.6939 24.4408 71.5533 20.8698 68.5687C17.8937 68.3081 14.9362 67.8748 12.0131 67.2712C11.9487 67.2562 11.8881 67.2289 11.8346 67.1911C11.781 67.1532 11.7357 67.1054 11.7011 67.0505C11.6313 66.9396 11.6097 66.8063 11.6409 66.6798C11.6721 66.5533 11.7537 66.4441 11.8677 66.3762C11.9817 66.3083 12.1187 66.2872 12.2486 66.3176Z" fill="#61BDA6"/>
<path d="M24.5821 62.8699C30.1741 63.5943 35.8886 65.3227 39.6197 69.3802C38.2064 65.9004 36.7931 62.4114 35.4693 58.8996C34.8724 59.0881 34.234 59.1151 33.6226 58.9775C30.8289 58.3815 30.1129 55.8461 30.1364 53.375C30.1851 52.0677 30.3047 50.7639 30.4944 49.4688C30.5981 48.5519 30.372 43.9672 32.4778 45.5902C33.429 46.4336 34.3052 47.3538 35.0971 48.341C36.402 49.6838 37.3002 51.3513 37.6929 53.1595C37.9412 54.5404 37.7454 55.9622 37.1323 57.2307C36.9079 57.7662 36.5501 58.2388 36.0911 58.6061L36.0252 58.6474C37.5798 62.7324 39.2145 66.7898 40.887 70.8381C40.887 70.8152 40.887 70.7922 40.887 70.7693C40.7156 69.114 40.827 67.4424 41.2167 65.8224C41.5848 64.4726 42.2284 63.2087 43.1089 62.106C43.9895 61.0033 45.0891 60.0843 46.3423 59.4039C46.3856 59.3787 46.4344 59.364 46.4847 59.3609C46.535 59.3579 46.5853 59.3666 46.6314 59.3864C46.6775 59.4061 46.7181 59.4363 46.7498 59.4745C46.7814 59.5126 46.8033 59.5576 46.8134 59.6056C46.8134 59.6881 47.9629 66.6706 46.4554 69.6919C45.8937 70.8464 45.0707 71.8621 44.048 72.6628C43.544 73.0525 42.7243 73.6898 42.0035 73.5797C43.7513 77.7977 45.5179 82.011 47.2186 86.2473C47.2356 85.5181 47.3223 84.7922 47.4777 84.0787C47.9348 81.7199 49.2785 79.6114 51.2465 78.1644C52.0267 77.5724 52.9381 77.1658 53.9082 76.977C54.7797 78.7788 54.7373 80.8694 54.3793 82.8317C54.2449 83.9225 53.8619 84.9704 53.2581 85.8988C52.645 86.7136 51.8022 87.3379 50.8319 87.696C50.1205 87.9665 48.7261 88.3929 47.9299 88.0582C49.9792 93.2297 51.9202 98.4334 53.6161 103.715C54.0874 102.465 54.9638 101.398 56.113 100.675C57.2767 99.9541 58.5435 99.4041 59.8724 99.0431C60.7392 98.7726 61.6673 98.5067 62.2514 97.8328C61.7803 98.7497 61.7191 99.8042 61.4835 100.799C61.1642 102.15 60.5182 103.408 59.5991 104.467C59.0189 105.187 58.2558 105.748 57.3849 106.094C56.4321 106.479 55.363 106.489 54.4029 106.122C54.9965 108.07 55.5618 110.028 56.08 111.999C57.5428 117.494 58.593 123.086 59.2222 128.729C59.2275 128.768 59.2247 128.809 59.2141 128.847C59.2034 128.885 59.1851 128.921 59.1602 128.953C59.1352 128.984 59.1042 129.011 59.0687 129.031C59.0333 129.05 58.9942 129.063 58.9537 129.068C58.9132 129.073 58.872 129.071 58.8326 129.06C58.7931 129.05 58.7562 129.032 58.7238 129.008C58.6914 128.984 58.6643 128.953 58.6439 128.919C58.6235 128.884 58.6104 128.846 58.6051 128.807C57.6304 120.524 55.8221 112.355 53.2063 104.416C53.1287 104.962 52.8982 105.477 52.5401 105.904C52.1819 106.331 51.7099 106.654 51.1758 106.837C50.597 107.058 49.9792 107.168 49.3574 107.158C47.4465 107.173 45.6021 106.477 44.201 105.212C42.8 103.947 41.9482 102.21 41.8197 100.354C41.8197 100.148 41.8197 99.8959 42.0223 99.8088C42.1604 99.7706 42.3081 99.7837 42.4369 99.8455C43.7743 100.198 45.1621 100.334 46.5449 100.249C47.9299 100.158 49.3203 100.314 50.6482 100.707C51.3243 100.948 51.9226 101.36 52.3818 101.899C50.8508 97.3147 49.1501 92.7942 47.3646 88.292C47.0207 88.8559 46.135 89.209 45.5697 89.3786C44.1708 89.8543 42.6862 90.0441 41.2085 89.9363C39.7308 89.8285 38.2919 89.4254 36.9815 88.7521C35.6711 88.0787 34.5175 87.1497 33.5926 86.023C32.6678 84.8962 31.9916 83.596 31.6062 82.2036C34.0248 81.4875 36.5951 81.4072 39.0559 81.9709C41.5167 82.5345 43.7803 83.7221 45.6168 85.4128C45.8571 85.6329 46.2198 85.9355 46.559 86.2793C44.7971 81.8551 42.9598 77.4951 41.1508 73.0938C38.8942 76.7019 33.0101 75.6337 29.6747 73.9098C25.6185 71.81 22.9285 67.5417 24.2523 63.0487C24.2795 62.9878 24.3266 62.9373 24.3862 62.905C24.4457 62.8727 24.5146 62.8604 24.5821 62.8699Z" fill="#1C04FC"/>
<path d="M137.534 20.7778C140.318 20.4615 143.13 20.7182 145.933 20.7778C151.007 20.8545 156.066 20.2152 160.952 18.8798L157.301 29.3558C156.359 32.0608 155.417 34.7886 153.961 37.2781C152.579 39.6713 150.764 41.8022 148.604 43.5683C144.134 47.204 138 49.1296 132.328 47.8321C127.372 46.6997 122.859 43.0457 121.667 38.1171C119.387 28.7048 128.917 21.7681 137.534 20.7778Z" fill="#61BDA6"/>
<path d="M157.522 21.6673C153.57 23.1481 149.598 24.6382 145.745 26.3391C146.437 25.108 147.258 23.9495 148.195 22.8822C148.557 22.4742 147.954 21.8736 147.592 22.2816C146.369 23.6575 145.335 25.1816 144.515 26.8159C144.502 26.8451 144.492 26.8759 144.487 26.9076C142.763 27.6962 141.062 28.526 139.394 29.4338C136.926 30.7299 134.572 32.2219 132.356 33.8947C133.393 30.7589 134.594 27.677 135.955 24.6611C136.177 24.1705 135.432 23.7442 135.211 24.2301C133.632 27.7138 132.262 31.2836 131.108 34.9216C128.985 36.6926 127.27 38.8798 126.076 41.3402C125.85 41.8308 126.59 42.2572 126.821 41.7712C127.332 40.6823 127.964 39.6507 128.705 38.6948H128.729C133.539 39.002 138.575 38.9378 143.295 39.9327C143.837 40.0473 144.068 39.2358 143.521 39.1212C138.919 38.1539 134.052 38.1584 129.35 37.8879C132.224 34.5044 136.271 32.047 140.186 29.9564C144.638 30.4149 149.273 30.5478 153.598 31.7215C153.705 31.7409 153.816 31.7203 153.908 31.6639C154 31.6075 154.067 31.5195 154.095 31.4172C154.124 31.315 154.112 31.206 154.062 31.1121C154.011 31.0181 153.927 30.946 153.824 30.91C149.867 29.8372 145.655 29.608 141.552 29.2458C146.767 26.5867 152.265 24.5144 157.753 22.4604C158.262 22.2862 158.045 21.4701 157.522 21.6673Z" fill="#40967D"/>
<path d="M149.325 7.42697C149.317 7.37638 149.292 7.32962 149.255 7.29339C149.218 7.25716 149.17 7.23331 149.118 7.22525C144.784 6.62007 140.129 6.73469 136.483 9.00411C138.721 6.1616 140.935 3.29616 143.078 0.380299C143.257 0.13731 142.88 -0.151526 142.697 0.0914625C140.285 3.38327 137.769 6.60631 135.23 9.8156C135.227 9.79889 135.227 9.78188 135.23 9.76517C135.714 8.56436 135.993 7.29433 136.054 6.00572C136.068 4.92396 135.859 3.85051 135.439 2.84884C135.019 1.84717 134.397 0.937628 133.609 0.173987C133.584 0.141998 133.55 0.117041 133.511 0.101564C133.473 0.0860875 133.431 0.0806238 133.39 0.0857103C133.348 0.0907969 133.309 0.106259 133.276 0.130577C133.242 0.154896 133.216 0.187234 133.199 0.224419C133.176 0.288605 130.811 5.26758 131.287 7.81209C131.457 8.78976 131.851 9.7175 132.441 10.5262C132.733 10.9205 133.204 11.5624 133.769 11.6311C131.55 14.4186 129.322 17.2061 127.136 20.0165C127.28 19.4681 127.372 18.908 127.41 18.3431C127.578 16.4904 127.034 14.6427 125.883 13.1578C125.427 12.557 124.833 12.0674 124.149 11.7274C123.113 12.8919 122.689 14.4782 122.519 16.0004C122.384 16.8412 122.442 17.7009 122.689 18.5174C122.97 19.2478 123.461 19.8843 124.102 20.3512C124.573 20.6997 125.516 21.3003 126.194 21.2177C123.542 24.6563 120.97 28.1452 118.558 31.7396C118.476 30.7107 118.053 29.7355 117.351 28.9613C116.648 28.1906 115.832 27.5248 114.93 26.9853C114.304 26.6731 113.78 26.1967 113.418 25.6099C113.573 26.3893 113.39 27.187 113.352 27.9802C113.295 29.0483 113.502 30.114 113.955 31.0886C114.23 31.7463 114.679 32.3219 115.255 32.7574C115.884 33.2405 116.681 33.4673 117.479 33.3901C116.612 34.7197 115.764 36.0676 114.954 37.4338C112.672 41.2363 110.679 45.1958 108.989 49.2807C108.977 49.309 108.971 49.3393 108.97 49.3701C108.97 49.4008 108.976 49.4314 108.988 49.4599C109.012 49.5175 109.058 49.5635 109.117 49.5878C109.175 49.6121 109.242 49.6128 109.301 49.5896C109.36 49.5663 109.407 49.5212 109.432 49.464C111.957 43.4753 115.082 37.7428 118.76 32.3494C118.697 32.7735 118.757 33.2061 118.931 33.5994C119.106 33.9927 119.389 34.3313 119.749 34.5775C120.134 34.8588 120.571 35.0658 121.035 35.1873C122.46 35.59 123.989 35.4478 125.31 34.7899C126.63 34.132 127.642 33.0081 128.14 31.6479C128.192 31.4966 128.229 31.2995 128.107 31.1894C128.012 31.1342 127.9 31.1131 127.791 31.1298C126.715 31.1233 125.648 30.9404 124.635 30.5889C123.62 30.2412 122.549 30.0735 121.474 30.0937C120.916 30.1339 120.38 30.3174 119.919 30.6255C122.053 27.5263 124.305 24.4912 126.609 21.4974C126.741 21.988 127.334 22.4143 127.716 22.6757C128.656 23.3166 129.721 23.7626 130.846 23.9857C131.97 24.2087 133.13 24.2043 134.253 23.9725C135.376 23.7407 136.438 23.2866 137.372 22.6384C138.307 21.9901 139.095 21.1617 139.686 20.2045C138.034 19.1779 136.131 18.5948 134.172 18.5143C132.213 18.4338 130.267 18.8587 128.531 19.746C128.309 19.8607 127.97 20.012 127.636 20.2045C129.916 17.2749 132.234 14.3774 134.537 11.4936C135.437 14.6525 140.063 15.0605 142.928 14.4553C146.409 13.6897 149.339 11.0489 149.325 7.42697Z" fill="#2A514A"/>
<path d="M194.41 42.1609V102.193C194.41 105.354 193.119 108.386 190.822 110.622C188.525 112.857 185.41 114.113 182.161 114.113L66.9954 114.113C63.7469 114.113 60.6314 112.857 58.3343 110.622C56.0372 108.386 54.7468 105.354 54.7468 102.193V43.9947C54.7468 40.8333 56.0372 37.8013 58.3343 35.5659C60.6314 33.3304 63.7469 32.0745 66.9954 32.0745L184.055 32.0745C186.804 32.0745 189.44 33.1372 191.383 35.0287C193.327 36.9203 194.419 39.4858 194.419 42.1609H194.41Z" fill="#76A9B7"/>
<path d="M183.438 35.3159H65.7281C61.4507 35.3159 57.9832 38.6905 57.9832 42.8532V103.339C57.9832 107.502 61.4507 110.876 65.7281 110.876H183.438C187.715 110.876 191.183 107.502 191.183 103.339V42.8532C191.183 38.6905 187.715 35.3159 183.438 35.3159Z" fill="#E4F3F7"/>
<path d="M153.947 128.559H95.205C94.9039 128.559 94.6151 128.443 94.4022 128.236C94.1893 128.029 94.0696 127.748 94.0696 127.455C94.0696 127.309 94.099 127.166 94.1561 127.032C94.2131 126.898 94.2968 126.776 94.4022 126.673C94.5076 126.571 94.6328 126.489 94.7705 126.434C94.9083 126.378 95.0559 126.35 95.205 126.35H153.947C154.097 126.35 154.246 126.379 154.384 126.435C154.523 126.491 154.649 126.574 154.755 126.678C154.86 126.782 154.943 126.906 155 127.041C155.056 127.177 155.084 127.322 155.082 127.468C155.078 127.759 154.957 128.036 154.745 128.241C154.532 128.445 154.245 128.559 153.947 128.559Z" fill="#76A9B7"/>
<path d="M154.276 126.35H94.894L99.9537 114.108H149.212L154.276 126.35Z" fill="#527480"/>
<path d="M185.303 49.4505H63.8625V106.094H185.303V49.4505Z" fill="#B4DFD5"/>
<path d="M185.303 41.1339H63.8625V49.5101H185.303V41.1339Z" fill="#E6E6CE"/>
<path d="M67.7727 46.9473C68.6938 46.9473 69.4404 46.2206 69.4404 45.3243C69.4404 44.4279 68.6938 43.7013 67.7727 43.7013C66.8517 43.7013 66.105 44.4279 66.105 45.3243C66.105 46.2206 66.8517 46.9473 67.7727 46.9473Z" fill="#EC7772"/>
<path d="M75.5883 45.3243C75.5893 45.0031 75.4922 44.6889 75.3096 44.4214C75.1269 44.1539 74.8667 43.9451 74.5621 43.8216C74.2574 43.698 73.922 43.6652 73.5982 43.7273C73.2744 43.7894 72.9768 43.9437 72.7431 44.1705C72.5094 44.3973 72.3501 44.6864 72.2853 45.0014C72.2206 45.3163 72.2533 45.6429 72.3794 45.9397C72.5055 46.2366 72.7193 46.4903 72.9936 46.6688C73.268 46.8474 73.5906 46.9427 73.9206 46.9427C74.3621 46.9427 74.7856 46.7723 75.0982 46.4689C75.4108 46.1656 75.5871 45.7539 75.5883 45.3243Z" fill="#FDD17A"/>
<path d="M80.0685 46.9473C80.9895 46.9473 81.7362 46.2206 81.7362 45.3243C81.7362 44.4279 80.9895 43.7013 80.0685 43.7013C79.1474 43.7013 78.4008 44.4279 78.4008 45.3243C78.4008 46.2206 79.1474 46.9473 80.0685 46.9473Z" fill="#61BDA6"/>
<path d="M83.9033 55.7636H69.5205V96.9892H83.9033V55.7636Z" fill="#61BDA6"/>
<path d="M76.1395 57.0978H70.7313V62.361H76.1395V57.0978Z" fill="#B4DFD5"/>
<path d="M82.6926 57.0978H77.2843V62.361H82.6926V57.0978Z" fill="#B4DFD5"/>
<path d="M76.1395 63.8832H70.7313V69.1464H76.1395V63.8832Z" fill="#B4DFD5"/>
<path d="M82.6926 63.8832H77.2843V69.1464H82.6926V63.8832Z" fill="#B4DFD5"/>
<path d="M76.1395 70.673H70.7313V75.9363H76.1395V70.673Z" fill="#B4DFD5"/>
<path d="M82.6926 70.673H77.2843V75.9363H82.6926V70.673Z" fill="#B4DFD5"/>
<path d="M76.1395 77.4584H70.7313V82.7217H76.1395V77.4584Z" fill="#B4DFD5"/>
<path d="M82.6926 77.4584H77.2843V82.7217H82.6926V77.4584Z" fill="#B4DFD5"/>
<path d="M76.1395 84.2438H70.7313V89.507H76.1395V84.2438Z" fill="#B4DFD5"/>
<path d="M82.6926 84.2438H77.2843V89.507H82.6926V84.2438Z" fill="#B4DFD5"/>
<path d="M169.959 90.0892V90.7769H169.253" stroke="#1C1C38" stroke-linecap="round" stroke-linejoin="round"/>
<path d="M167.392 90.777H90.0983" stroke="#1C1C38" stroke-linecap="round" stroke-linejoin="round" stroke-dasharray="2.96 3.95"/>
<path d="M89.1702 90.7769H88.4635V90.0892" stroke="#1C1C38" stroke-linecap="round" stroke-linejoin="round"/>
<path d="M88.4635 88.3288V64.6075" stroke="#1C1C38" stroke-linecap="round" stroke-linejoin="round" stroke-dasharray="2.87 3.83"/>
<path d="M88.4635 63.7273V63.0396H89.1702" stroke="#1C1C38" stroke-linecap="round" stroke-linejoin="round"/>
<path d="M91.031 63.0396H168.32" stroke="#1C1C38" stroke-linecap="round" stroke-linejoin="round" stroke-dasharray="2.96 3.95"/>
<path d="M169.253 63.0396H169.959V63.7273" stroke="#1C1C38" stroke-linecap="round" stroke-linejoin="round"/>
<path d="M169.959 65.4832V89.209" stroke="#1C1C38" stroke-linecap="round" stroke-linejoin="round" stroke-dasharray="2.87 3.83"/>
<path d="M90.7012 60.8618H86.2211V65.2219H90.7012V60.8618Z" fill="#1C1C38"/>
<path d="M172.202 60.8618H167.722V65.2219H172.202V60.8618Z" fill="#1C1C38"/>
<path d="M90.7012 88.5947H86.2211V92.9547H90.7012V88.5947Z" fill="#1C1C38"/>
<path d="M172.202 88.5947H167.722V92.9547H172.202V88.5947Z" fill="#1C1C38"/>
<path d="M169.959 55.7636H88.9299V57.6892H169.959V55.7636Z" fill="#61BDA6"/>
<path d="M169.959 96.0494H88.9299V97.9749H169.959V96.0494Z" fill="#61BDA6"/>
<g style="mix-blend-mode:overlay" opacity="0.4">
<g style="mix-blend-mode:overlay" opacity="0.4">
<path d="M190.98 39.9006C190.498 38.5622 189.601 37.4023 188.413 36.5811C187.225 35.7598 185.804 35.3178 184.347 35.3159H183.348L105.706 110.876H118.039L190.98 39.9006Z" fill="#FAF9DD"/>
</g>
<g style="mix-blend-mode:overlay" opacity="0.4">
<path d="M134.335 35.3159L59.5614 108.084C60.2123 108.949 61.0633 109.652 62.0454 110.137C63.0276 110.622 64.1133 110.875 65.2146 110.876H99.0209L176.663 35.3159H134.335Z" fill="#FAF9DD"/>
</g>
<g style="mix-blend-mode:overlay" opacity="0.4">
<path d="M58.1858 78.8063V99.5612L124.201 35.3159H102.875L58.1858 78.8063Z" fill="#FAF9DD"/>
</g>
</g>
<path d="M72.8418 84.4684C73.9734 84.8499 75.1302 85.1562 76.3044 85.3854L82.4617 86.7608C82.9945 86.9245 83.5598 86.9622 84.1106 86.8708C84.942 86.6805 85.7276 86.3349 86.4237 85.853C87.135 85.3212 87.4083 82.6667 87.8841 81.9285C88.1715 81.4701 88.8263 81.305 88.7415 81.5755C88.6473 81.9698 88.9393 86.0043 88.8404 86.4032C88.7067 86.8303 88.4784 87.2236 88.1715 87.5555C87.8646 87.8874 87.4867 88.1498 87.0644 88.3242C86.2431 88.661 85.368 88.8564 84.478 88.9018C82.0182 89.1318 79.5438 89.1762 77.077 89.0348C74.8722 88.9064 72.6063 88.966 70.4345 88.4846C68.2627 88.0032 66.3406 87.5952 64.4185 86.6508C63.6647 86.2794 62.9345 85.3487 62.3739 84.7298C60.7769 82.9738 62.9345 79.8287 65.2005 80.2689C66.4584 80.5164 67.7398 81.7314 68.7998 82.3916C70.0699 83.2177 71.4244 83.9137 72.8418 84.4684Z" fill="#E27E5A"/>
<path d="M55.8444 162.096C55.8208 162.376 55.7149 162.643 55.5395 162.866C55.3641 163.089 55.1265 163.258 54.8551 163.353C54.3125 163.538 53.7382 163.619 53.1639 163.591L39.973 163.733C38.4843 163.733 36.9532 163.761 35.5494 163.275C35.4241 162.638 35.4532 161.982 35.6342 161.358C35.9121 160.258 36.4727 159.158 36.6753 158.03C36.9108 156.76 36.6989 155.453 36.7601 154.165C36.7529 154.109 36.7594 154.052 36.7791 153.998C36.7987 153.945 36.8309 153.897 36.8732 153.858C36.9432 153.819 37.0233 153.8 37.104 153.803C38.4796 153.757 39.8552 153.706 41.2356 153.665C41.6737 153.665 44.2318 153.665 44.3307 153.986C44.7757 155.201 45.5786 156.261 46.6391 157.035C47.652 157.86 48.7779 158.552 49.7342 159.437C50.1185 159.858 50.5723 160.213 51.0769 160.487C51.9249 160.859 52.9 160.629 53.8281 160.657C54.4695 160.658 55.085 160.903 55.5429 161.34C55.7364 161.547 55.8438 161.817 55.8444 162.096Z" fill="#1C04FC"/>
<path d="M55.8444 162.096C55.8208 162.376 55.7149 162.643 55.5395 162.866C55.3641 163.089 55.1265 163.258 54.8551 163.353C54.3125 163.538 53.7382 163.619 53.1639 163.591L39.973 163.733C38.4843 163.733 36.9532 163.761 35.5494 163.275C35.4241 162.638 35.4532 161.982 35.6342 161.358C35.782 161.29 35.9419 161.249 36.1053 161.239C37.4856 161.134 39.1439 161.629 40.543 161.743C42.0129 161.863 43.5157 162.019 44.995 162.019C48.5282 162.206 52.1887 162.381 55.5382 161.34C55.7334 161.546 55.8426 161.816 55.8444 162.096Z" fill="#040484"/>
<path d="M46.4224 126.143C47.3646 127.34 48.3633 128.798 47.9064 130.237C47.657 130.858 47.2876 131.426 46.8181 131.911C42.1495 137.573 40.4582 144.959 38.9036 152.061C38.8453 152.214 38.823 152.378 38.8385 152.54C38.854 152.703 38.9068 152.86 38.9931 153C39.1589 153.154 39.3697 153.253 39.5961 153.285L43.5864 154.247C43.8235 154.321 44.0744 154.343 44.3213 154.312C45.0326 154.16 45.1881 153.271 45.3247 152.574C45.5655 151.596 45.9361 150.653 46.4271 149.768L51.8118 138.962C53.0225 136.532 54.2804 134.043 56.3344 132.223C56.8691 131.834 57.3098 131.337 57.6252 130.765C57.8417 130.092 57.8417 129.37 57.6252 128.697C56.856 125.784 55.8704 122.929 54.6761 120.156C52.2641 114.137 49.8489 108.116 47.4305 102.092C47.2886 101.619 47.0185 101.191 46.6485 100.854C45.8571 100.263 44.7217 100.634 43.8219 101.079C40.8017 102.604 38.1589 104.75 36.077 107.369C35.05 108.657 34.3056 110.12 35.3609 111.55C36.468 113.04 37.7164 114.466 38.8 115.988C41.2717 119.418 43.8125 122.803 46.4224 126.143Z" fill="#3B6472"/>
<path d="M18.5096 149.016C18.7498 149.777 18.5096 150.594 18.3965 151.382C18.1092 153.12 18.3117 154.894 18.5143 156.645C18.5854 157.636 18.7946 158.612 19.1362 159.547C19.4094 160.208 19.8193 160.813 20.0784 161.478C20.228 161.841 20.3093 162.228 20.3186 162.619C20.329 162.946 20.2527 163.269 20.0972 163.559C19.8959 163.888 19.6074 164.159 19.2618 164.343C18.9163 164.527 18.5263 164.617 18.1327 164.604C17.3439 164.566 16.5819 164.313 15.9327 163.875C13.7656 162.546 12.3853 160.299 11.3488 158.025C10.3124 155.751 9.52097 153.344 8.15477 151.235C7.80248 150.783 7.54916 150.265 7.41043 149.713C7.34633 149.432 7.38876 149.138 7.52989 148.886C7.67102 148.633 7.90133 148.438 8.17833 148.338C8.45232 148.275 8.72278 148.199 8.98862 148.109C10.7741 147.522 12.1309 146.509 13.7844 145.569C15.438 144.629 16.7854 146.632 17.7511 147.788C18.0824 148.146 18.3399 148.563 18.5096 149.016Z" fill="#1C04FC"/>
<path d="M19.7062 162.858C19.9088 162.798 20.1161 162.715 20.3233 162.637C20.3337 162.964 20.2574 163.288 20.1019 163.577C19.8978 163.904 19.6075 164.172 19.2612 164.352C18.9149 164.533 18.5253 164.62 18.1327 164.604C17.3439 164.565 16.5819 164.313 15.9327 163.875C13.7656 162.546 12.3853 160.299 11.3488 158.025C10.3124 155.751 9.52097 153.344 8.15477 151.235C7.80248 150.783 7.54916 150.265 7.41043 149.713C7.34633 149.432 7.38876 149.138 7.52989 148.886C7.67102 148.633 7.90133 148.438 8.17833 148.338C8.45232 148.275 8.72278 148.199 8.98862 148.109C9.15567 148.537 9.27875 148.981 9.35608 149.434C9.93083 151.804 11.0615 154.018 12.1827 156.15C13.2568 158.177 14.3875 160.249 16.1588 161.739C17.1528 162.578 18.4672 163.229 19.7062 162.858Z" fill="#040484"/>
<path d="M44.7123 95.7835C45.0562 96.2969 44.8206 96.9755 44.5615 97.5348C42.4934 101.932 38.9083 105.952 38.9083 110.785C38.9429 111.968 39.1104 113.144 39.4077 114.292C39.4595 114.521 39.516 114.75 39.5679 114.98C41.0424 121.242 42.4746 127.67 41.6219 134.043C41.5726 134.668 41.3965 135.277 41.1036 135.835C40.7295 136.393 40.2322 136.863 39.6479 137.211C34.984 140.319 28.9681 141.14 24.4973 144.5C22.4386 146.05 20.7803 148.086 18.5944 149.452C16.9593 148.312 15.5646 146.877 14.4864 145.225C18.2128 143.226 20.4317 139.338 23.753 136.743C25.7033 135.216 27.9929 134.167 30.2447 133.098C30.7869 132.91 31.2394 132.535 31.5167 132.044C31.6266 131.696 31.6429 131.327 31.5638 130.971C30.9655 126.386 29.1 122.1 27.3522 117.822C26.9376 116.809 26.5278 115.786 26.1414 114.755C24.8977 111.44 23.8896 108.043 23.753 104.536C23.664 102.481 23.9365 100.426 24.5585 98.4609C25.1014 96.6964 26.0087 95.0583 27.225 93.647C28.4734 92.2441 29.458 92.2716 31.2717 92.455C35.4987 92.8671 39.6589 93.7754 43.6617 95.1599C44.0724 95.2508 44.4413 95.4697 44.7123 95.7835Z" fill="#547989"/>
<path d="M61.3846 92.3541C62.3409 92.9927 63.3907 93.4873 64.4985 93.8212C66.9341 94.486 69.5205 93.945 71.9985 93.4407C75.5223 92.7255 79.065 92.0897 82.6265 91.5334C83.7096 91.3028 84.8261 91.2609 85.9243 91.4097C86.7298 91.561 87.7145 91.8681 88.2421 91.2538C88.4729 90.9879 88.7132 90.7953 88.7603 90.4652C89.0123 87.507 89.0123 84.5336 88.7603 81.5755C88.2892 81.7405 87.8181 84.9361 87.738 85.4266C87.7261 85.925 87.5728 86.4106 87.2952 86.8295C87.1303 87.0083 86.9089 87.1321 86.7251 87.288C86.4519 87.5448 86.2917 87.8978 86.0232 88.1591C85.587 88.5164 85.05 88.7369 84.4827 88.7918C81.9482 89.2503 79.3383 89.0119 76.7755 88.7414C74.1326 88.4663 71.4944 88.1499 68.8798 87.6961C67.41 87.4393 65.8883 87.1184 64.7247 86.206C63.4197 85.1882 62.7649 83.5973 61.851 82.2357C61.6856 81.9483 61.4492 81.7057 61.1631 81.5296C60.7989 81.3745 60.395 81.3298 60.0042 81.4013C58.6051 81.4931 57.256 81.9439 56.0941 82.7079C55.3073 83.2581 54.2097 84.308 54.2803 85.3441C54.3369 86.261 55.9151 86.3482 56.4851 86.9808C58.0774 88.7964 59.3164 91.0521 61.3846 92.3541Z" fill="#F29D7E"/>
<path d="M46.1114 74.7443L43.5157 78.1049C42.5216 79.3886 41.5323 80.6769 40.4723 81.9056C37.0624 85.8473 32.9735 89.1812 28.3886 91.7581C27.889 91.9613 27.4856 92.3391 27.2579 92.8172C27.1724 93.3409 27.3028 93.8764 27.6207 94.3072C30.7017 99.6988 35.4692 104.05 40.755 107.461C41.1559 107.779 41.6514 107.964 42.1683 107.988C42.6699 107.903 43.1322 107.669 43.4921 107.319C47.3677 104.169 50.7638 100.5 53.5784 96.4207C54.7938 94.6556 55.9339 92.753 57.7618 91.5793C58.3695 91.1804 59.1468 90.6394 58.9348 89.9563C58.8662 89.7741 58.7605 89.6072 58.6239 89.4657C57.5247 88.1454 56.3752 86.8662 55.1754 85.6284C56.8855 85.2203 57.7053 83.1939 59.3494 82.5841C59.9418 82.3784 60.5878 82.3709 61.1851 82.5627C61.7824 82.7545 62.2969 83.1347 62.6471 83.6432C63.2036 82.4222 64.1938 81.4374 65.436 80.8694C64.7451 79.6469 63.9976 78.4701 63.1936 77.3392C62.2608 75.9415 61.1425 74.6697 59.8676 73.5569C57.5126 71.7068 54.6539 70.5659 51.6422 70.2742C48.8203 69.9579 47.586 72.8279 46.1114 74.7443Z" fill="#E289A9"/>
<path d="M57.7712 68.7246C57.0976 69.6104 56.3354 70.4289 55.4958 71.1683C56.2616 71.4545 56.9497 71.9077 57.5074 72.4932C58.6757 73.9145 58.1434 76.2206 59.4342 77.5364C59.3447 77.0413 59.7169 76.5874 60.0702 76.216L62.0347 74.1162C62.4198 73.6316 62.9235 73.2486 63.4998 73.0021C64.0548 72.8637 64.635 72.8511 65.1958 72.9655C64.051 70.8336 62.878 68.665 61.1396 66.9549C60.692 66.4965 59.6415 65.4787 58.9819 66.1343C58.6851 66.4277 58.6569 67.0512 58.5108 67.4317C58.3125 67.8872 58.0646 68.3206 57.7712 68.7246Z" fill="#E27E5A"/>
<path d="M67.6691 57.9505C68.1779 58.7574 69.219 60.8527 69.2049 61.5128C69.1907 62.173 69.0211 62.3335 69.0258 63.0533C69.0258 64.2774 70.2224 64.6304 70.5664 65.9279C70.5664 66.258 69.9586 66.313 69.5959 66.3451C69.4572 66.3434 69.3212 66.3817 69.2049 66.4551C68.8657 66.7211 69.2567 67.2758 69.1012 67.6701C68.8986 68.1836 67.9988 68.0506 67.7115 68.5274C67.6495 68.6959 67.6361 68.8776 67.6726 69.053C67.7092 69.2283 67.7943 69.3906 67.9187 69.5223C68.1744 69.7838 68.3206 70.1288 68.3286 70.4897C68.2627 70.9482 67.6832 71.2874 67.735 71.7551C67.7633 72.021 67.8952 72.3327 67.7727 72.5711C67.6799 72.7386 67.5496 72.8837 67.3914 72.9956C67.2332 73.1075 67.0512 73.1834 66.8588 73.2176C66.1003 73.4697 64.2065 72.8829 63.5893 72.3877C61.1584 70.4072 59.7734 68.6787 59.8865 68.2386C59.9713 67.9177 60.3576 67.6701 60.2822 67.3492C60.2068 67.0282 59.6603 66.9778 59.34 66.7807C59.0599 66.5627 58.8707 66.2531 58.8076 65.9096L58.4826 64.8688C58.3202 64.4502 58.2418 64.005 58.2517 63.5576C58.2429 63.3521 58.2958 63.1485 58.4039 62.9717C58.512 62.7949 58.6707 62.6526 58.8606 62.5622C59.0505 62.4717 59.2633 62.437 59.4731 62.4624C59.6829 62.4877 59.8805 62.572 60.0419 62.7049C60.337 62.9256 60.5946 63.1902 60.8051 63.4889C61.3013 62.957 61.7724 62.4038 62.2184 61.8292C62.3052 61.7304 62.3695 61.6147 62.4069 61.4899C62.4232 61.3345 62.4022 61.1776 62.3456 61.0315C62.1679 60.4457 62.0434 59.8458 61.9735 59.2388C61.8974 58.7982 61.9264 58.3464 62.0582 57.9184C62.4022 57.0015 63.5375 56.543 64.541 56.6439C65.5371 56.813 66.4828 57.1934 67.311 57.758C67.4374 57.8089 67.5575 57.8735 67.6691 57.9505Z" fill="#F29D7E"/>
<path d="M59.7923 63.6722C59.909 63.6031 60.039 63.5578 60.1742 63.5389C60.3095 63.5199 60.4473 63.5278 60.5793 63.5621C60.7114 63.5964 60.8349 63.6563 60.9425 63.7382C61.0502 63.8202 61.1396 63.9225 61.2056 64.039C61.3045 64.172 61.4364 64.3187 61.606 64.3003C61.7756 64.282 61.8368 64.1628 61.9122 64.0527C62.3551 63.4201 61.9876 63.0716 62.4257 62.4389C62.7545 62.0882 63.1376 61.7897 63.5611 61.5541C67.801 60.2016 68.2721 59.0233 68.2721 58.9316C68.1496 58.2044 67.8547 57.515 67.4106 56.9182C66.9666 56.3213 66.3857 55.8333 65.714 55.4931C63.8664 54.4365 61.7227 53.9759 59.5897 54.1773C58.5061 54.2461 57.3143 54.8879 56.292 55.2547C55.7455 54.6816 55.1236 54.0673 54.3228 54.0123C53.7393 54.0235 53.1729 54.2056 52.6975 54.5349C51.5668 55.1905 50.4833 56.057 50.031 57.2537C49.2773 59.2434 50.4691 61.4486 50.21 63.553C50.13 64.2361 49.8944 64.9284 50.1676 65.584C50.3985 66.1205 50.9497 66.4735 51.2276 66.9915C51.5809 67.6563 51.4208 68.4632 51.5715 69.1968C51.6617 69.6098 51.8485 69.9972 52.1173 70.3287C52.386 70.6602 52.7296 70.9271 53.1214 71.1086C53.9553 71.4845 55.0388 71.5029 55.5712 72.2319C55.9952 72.8095 55.8821 73.6073 56.0423 74.2904C56.2033 74.9866 56.6401 75.5929 57.2577 75.9775C57.4837 76.0941 57.6982 76.2307 57.8984 76.3856C58.3318 76.7707 58.4213 77.385 58.5533 77.9352C58.6852 78.4854 58.9678 79.1043 59.5331 79.2556C59.8052 79.3027 60.0857 79.2556 60.3258 79.1224C60.5659 78.9893 60.7505 78.7785 60.8475 78.5266C61.0595 78.0269 60.7957 75.597 60.7863 75.2211C60.758 74.1116 59.0856 70.7877 58.9961 69.8065C58.9396 69.2014 58.5674 68.5733 58.8265 68.0185C58.8972 67.8626 59.0149 67.7343 59.0903 67.56C59.3212 67.1016 59.1233 66.5377 59.0526 66.0196C58.8877 65.0385 59.7923 63.6722 59.7923 63.6722Z" fill="#1B4E61"/>
<path d="M184.771 104.261C182.349 111.348 181.86 118.895 181.388 126.35L181.092 131.008C181.022 131.655 181.038 132.308 181.139 132.952C181.298 133.578 181.507 134.191 181.765 134.785C182.576 137.004 182.528 139.416 182.467 141.768C182.354 146.353 182.236 150.974 181.558 155.522C181.36 156.861 181.112 158.193 180.814 159.52C180.688 159.878 180.698 160.268 180.842 160.62C181.084 160.921 181.431 161.125 181.817 161.193L185.402 162.266C186.49 162.587 187.894 162.816 188.559 161.922C189.604 160.51 187.324 158.484 188.125 156.93C188.295 156.595 188.596 156.338 188.766 156.013C188.92 155.677 189.01 155.316 189.03 154.949C189.388 151.892 189.749 148.824 190.113 145.743C190.463 143.424 190.583 141.078 190.471 138.737C190.358 137.362 190.085 135.987 190.061 134.611C189.995 130.664 191.946 126.987 193.83 123.484C194.711 121.847 195.592 120.179 195.955 118.368C196.351 116.387 196.11 114.347 195.865 112.343C195.526 109.565 195.189 106.787 194.853 104.008C194.8 103.08 194.557 102.171 194.136 101.336C193.048 99.5016 190.325 98.9102 188.295 99.0661C185.793 99.2357 185.459 102.252 184.771 104.261Z" fill="#040484"/>
<path d="M189.534 107.034C190.311 109.478 191.588 111.743 192.591 114.113C194.476 118.537 195.357 123.282 196.36 127.959C196.74 129.878 197.274 131.765 197.957 133.603C198.635 135.313 199.554 136.936 200.119 138.682C200.831 140.901 200.953 143.267 200.953 145.559C200.953 150.789 200.37 156.003 199.215 161.111L206.154 162.77C205.457 160.336 206.004 157.755 206.399 155.256C207.2 150.213 207.341 145.073 207.52 139.962C207.585 138.939 207.546 137.914 207.403 136.899C207.092 135.166 206.173 133.584 205.744 131.856C205.273 130.022 205.391 128.101 205.509 126.217C205.697 123.114 205.887 120.012 206.079 116.91C206.102 115.856 206.243 114.807 206.498 113.783C206.776 112.806 207.257 111.899 207.591 110.94C208.416 108.584 208.345 106.021 208.114 103.545C208.108 102.934 207.931 102.337 207.601 101.817C207.129 101.225 206.357 100.992 205.627 100.795C201.519 99.6804 197.222 98.5388 192.907 98.9148C191.022 99.0752 189.75 99.1027 189.138 100.886C188.483 102.789 188.954 105.2 189.534 107.034Z" fill="#1C04FC"/>
<path d="M188.893 165.929C188.847 166.168 188.735 166.39 188.569 166.571C188.403 166.752 188.189 166.885 187.951 166.956C187.48 167.1 186.987 167.159 186.495 167.13H184.389C182.566 167.13 180.748 167.13 178.925 167.245C175.693 167.461 172.329 168.043 169.3 166.938C169.163 166.896 169.036 166.831 168.923 166.745C168.83 166.655 168.761 166.544 168.723 166.421C168.684 166.299 168.677 166.17 168.702 166.044C168.745 165.794 168.867 165.563 169.05 165.384C169.147 165.284 169.254 165.195 169.371 165.118C169.717 164.921 170.092 164.775 170.482 164.687C171.468 164.42 172.469 164.206 173.479 164.045C173.659 164.025 173.835 163.978 174.002 163.907C174.216 163.78 174.412 163.625 174.586 163.449C175.001 163.127 175.451 162.851 175.928 162.624C177.2 161.818 178.381 160.886 179.452 159.841C179.834 159.506 180.691 158.883 180.931 159.598C181.03 159.896 180.931 160.107 181.176 160.368C181.458 160.634 181.798 160.835 182.17 160.955C183.46 161.554 184.838 161.955 186.255 162.142C186.985 162.181 187.718 162.163 188.445 162.087C188.348 163.044 188.419 164.01 188.657 164.944C188.705 165.095 188.761 165.246 188.804 165.402C188.867 165.571 188.897 165.75 188.893 165.929Z" fill="#F8F8DC"/>
<path d="M188.893 165.929C188.847 166.168 188.735 166.39 188.569 166.571C188.403 166.752 188.189 166.885 187.951 166.956C187.48 167.1 186.987 167.159 186.495 167.13H184.389C182.566 167.13 180.748 167.13 178.925 167.245C175.693 167.461 172.329 168.043 169.3 166.938C169.163 166.896 169.036 166.831 168.923 166.745C168.83 166.655 168.761 166.544 168.723 166.421C168.684 166.299 168.677 166.17 168.702 166.044C168.745 165.794 168.867 165.563 169.05 165.384C169.111 165.673 168.937 165.971 169.385 166.218C169.731 166.371 170.113 166.434 170.492 166.402L185.468 166.246C186.133 166.264 186.798 166.2 187.447 166.058C187.922 165.93 188.368 165.715 188.761 165.425L188.804 165.393C188.868 165.565 188.898 165.747 188.893 165.929Z" fill="#65BDA5"/>
<path d="M206.319 166.479C206.32 166.696 206.247 166.908 206.112 167.08C206.003 167.186 205.875 167.273 205.735 167.337L203.733 168.391C203.094 168.757 202.419 169.056 201.716 169.285C201.222 169.416 200.718 169.513 200.209 169.574C199.19 169.748 198.158 169.845 197.123 169.863C196.031 169.853 194.948 169.666 193.92 169.308C193.822 169.286 193.73 169.244 193.65 169.187C193.569 169.13 193.5 169.057 193.449 168.974C193.395 168.825 193.395 168.663 193.449 168.515C193.495 168.34 193.555 168.168 193.628 168.002C193.859 167.461 194.215 166.979 194.669 166.594C195.145 166.28 195.577 165.907 195.955 165.485C196.124 165.242 196.233 164.962 196.426 164.724C196.59 164.532 196.771 164.356 196.968 164.196C197.652 163.559 198.142 162.75 198.381 161.858C198.475 161.457 198.698 161.095 199.017 160.825C199.336 160.554 199.736 160.39 200.157 160.354C200.543 160.342 200.929 160.395 201.297 160.51C201.985 160.651 202.623 160.968 203.144 161.427C203.303 161.611 203.476 161.782 203.662 161.941C204.073 162.177 204.541 162.302 205.019 162.303C205.142 162.306 205.262 162.344 205.363 162.413C205.442 162.5 205.494 162.606 205.513 162.72C205.711 163.499 205.911 164.279 206.112 165.058C206.168 165.297 206.23 165.517 206.272 165.778C206.318 166.009 206.334 166.245 206.319 166.479Z" fill="#F8F8DC"/>
<path d="M206.319 166.479C206.32 166.696 206.247 166.908 206.112 167.08C206.003 167.186 205.875 167.273 205.735 167.337L203.733 168.391C203.094 168.757 202.419 169.056 201.716 169.285C201.222 169.416 200.718 169.513 200.209 169.574C199.19 169.748 198.158 169.845 197.123 169.863C196.031 169.853 194.948 169.666 193.92 169.308C193.822 169.286 193.73 169.244 193.65 169.187C193.569 169.13 193.5 169.057 193.449 168.974C193.395 168.825 193.395 168.663 193.449 168.515C193.495 168.34 193.555 168.168 193.628 168.002L193.863 168.089C194.426 168.296 195.013 168.431 195.611 168.492C197.032 168.67 198.467 168.727 199.898 168.662C201.337 168.593 202.731 168.155 203.94 167.392C204.722 166.865 205.429 166.136 206.296 165.787C206.333 166.016 206.341 166.249 206.319 166.479Z" fill="#65BDA5"/>
<path d="M181.016 76.7891C179.999 77.3117 178.957 77.7885 177.963 78.3524C175.085 79.9846 172.513 82.3595 169.243 82.9646C168.286 83.1888 167.279 83.1052 166.374 82.7262C165.79 82.4466 165.286 81.9835 164.645 81.8781C163.006 81.6076 163.84 83.0884 163.633 83.7119C163.298 84.7068 162.149 85.0461 161.72 85.9493C161.197 87.0679 162.064 88.3517 162.959 89.0485C163.311 89.3309 163.723 89.533 164.166 89.6401C164.608 89.7472 165.07 89.7565 165.517 89.6675C167.302 89.2457 168.815 87.8107 170.647 87.3018C172.616 86.7562 174.661 86.5178 176.649 86.0593C180.013 85.2753 183.381 84.4959 186.669 83.4414C188.011 83.0731 189.284 82.4972 190.438 81.7359C191.138 81.2032 191.785 80.6076 192.37 79.9571L194.193 78.059C194.315 77.9575 194.394 77.8153 194.414 77.6601C194.403 77.5731 194.372 77.4895 194.324 77.4151C194.276 77.3407 194.212 77.2773 194.136 77.2292C192.802 76.0871 191.406 75.0158 189.953 74.0199C188.403 72.9562 187.513 72.6445 186.015 73.7219C184.435 74.8719 182.763 75.8975 181.016 76.7891Z" fill="#F29D7E"/>
<path d="M175.858 60.6693C174.915 59.0463 173.592 57.4921 171.75 57.0015C171.217 56.8594 170.492 56.9098 170.303 57.4141C170.262 57.6183 170.285 57.8299 170.369 58.0212C170.453 58.2126 170.594 58.3748 170.774 58.4869C171.145 58.6987 171.479 58.9664 171.764 59.2801C171.808 59.334 171.836 59.3993 171.844 59.4681C171.836 59.5361 171.812 59.6014 171.774 59.6593C171.737 59.7172 171.687 59.7663 171.627 59.8028C170.951 60.2719 170.412 60.9038 170.063 61.6366C169.554 63.0487 170.534 64.5204 171.429 65.7262C171.793 66.3115 172.317 66.7875 172.941 67.1016C173.474 67.3125 174.082 67.2804 174.609 67.505C175.111 67.7571 175.534 68.1355 175.834 68.6008C176.809 69.9074 177.506 71.3974 178.42 72.7499C179.747 74.6047 181.347 76.2592 183.169 77.6601C186.161 80.0671 189.684 82.1577 193.562 82.2999C197.137 82.4282 200.524 80.8969 203.752 79.4023C204.049 79.2897 204.317 79.1126 204.534 78.8843C204.661 78.7044 204.755 78.5043 204.811 78.2928C205.376 76.715 205.435 75.0076 204.981 73.3964C204.745 72.5962 204.311 71.8648 203.716 71.2668C203.121 70.6687 202.384 70.2223 201.57 69.967C199.309 69.3573 197.024 70.6043 194.791 71.3195C193.109 71.8822 191.322 72.0855 189.553 71.9155C187.152 71.5811 184.88 70.6494 182.957 69.2105C181.115 67.9268 178.924 66.3451 177.775 64.4195C177.106 63.2138 176.564 61.9071 175.858 60.6693Z" fill="#FFBDA9"/>
<path d="M187.282 71.3379C188.776 71.8424 190.2 72.5246 191.522 73.3689C191.741 73.5364 191.998 73.6525 192.271 73.7081C192.604 73.7081 192.931 73.6159 193.213 73.4422L198.847 70.6181C199.16 70.4305 199.517 70.3232 199.884 70.3063C200.189 70.3391 200.481 70.4463 200.732 70.6181C201.989 71.3467 203.019 72.394 203.712 73.6481C204.404 74.9021 204.734 76.3158 204.666 77.7381C204.663 78.0494 204.58 78.3552 204.425 78.6275C204.103 78.9866 203.661 79.2236 203.177 79.2969L195.55 81.3325C194.767 81.6049 193.932 81.7036 193.105 81.6213C192.299 81.4838 191.541 81.007 190.749 81.0987C190.121 82.7312 189.582 84.3947 189.133 86.0822C188.977 86.5775 188.89 87.091 188.874 87.6089C188.874 88.1316 189.016 88.6497 189.058 89.1723C189.374 92.9639 184.818 95.811 184.851 99.6163C190.74 100.533 196.765 100.313 202.663 101.175C204.854 101.491 207.096 101.991 208.882 103.27C208.284 101.56 208.524 99.6988 208.778 97.9108C209.48 92.9364 210.253 87.9436 211.836 83.1664C212.707 80.5256 213.828 77.9627 214.512 75.2715C215.195 72.5803 215.426 69.6965 214.512 67.0741C213.598 64.4516 211.388 62.1364 208.59 61.6366C205.17 61.0315 202.286 63.0762 199.168 63.9978C197.519 64.4883 195.87 64.7176 194.457 65.7033C193.287 66.593 192.195 67.576 191.192 68.6421C190.561 69.206 188.234 71.6588 187.282 71.3379Z" fill="#E4F3F7"/>
<path d="M200.331 64.6167C200.124 65.176 199.86 65.7078 199.677 66.2763C199.601 66.5285 199.606 66.8907 199.865 66.964C199.952 66.9705 200.04 66.9577 200.121 66.9268C200.203 66.8958 200.276 66.8475 200.336 66.7852C203.252 64.4929 206.861 63.2596 210.389 62.0584C209.447 61.5999 209.094 60.4904 208.811 59.5001C208.535 58.6427 208.353 57.7589 208.269 56.8639C208.268 56.4686 208.243 56.0736 208.194 55.6811C208.111 55.3079 207.989 54.9439 207.831 54.5945C207.783 54.4413 207.694 54.3035 207.572 54.1956C207.448 54.1214 207.304 54.0848 207.158 54.0902C206.451 54.1339 205.773 54.3742 205.203 54.7825C204.151 55.4113 203.149 56.1163 202.206 56.8914C201.193 57.7213 200.181 58.762 200.487 60.1007C200.89 61.5884 200.836 63.1585 200.331 64.6167Z" fill="#F29D7E"/>
<path d="M193.863 54.3195C193.741 55.1493 193.114 55.9424 193.354 56.7494H194.235L195.154 58.3173C195.437 58.8033 196.049 59.3535 196.473 58.9821C196.073 59.6836 196.591 60.6097 197.33 60.9627C198.105 61.2492 198.945 61.3268 199.761 61.1873C200.036 61.1907 200.307 61.1158 200.539 60.9719C200.729 60.7902 200.866 60.5622 200.934 60.3117C201.452 59.0377 202.251 57.8898 203.274 56.9488C204.297 56.0077 205.52 55.2965 206.856 54.865C207.021 54.81 207.214 54.7413 207.271 54.5808C207.295 54.4568 207.273 54.3284 207.209 54.2186C206.933 53.5584 206.654 52.8997 206.371 52.2426C206.036 51.4494 205.532 50.5325 204.656 50.4729C204.882 49.7439 204.274 48.992 203.577 48.639C202.88 48.286 202.07 48.1806 201.363 47.8596C200.482 47.447 199.823 46.7135 199.092 46.0899C197.133 44.4119 194.527 44.9575 193.486 47.3645C193.147 48.1485 193.213 49.0975 193.204 49.9319C193.194 51.3944 194.061 52.9074 193.863 54.3195Z" fill="#FFBDA9"/>
<path d="M190.396 46.2825C190.423 46.7868 190.623 47.2676 190.965 47.6476C191.307 48.0276 191.77 48.2848 192.28 48.3777C193.741 48.5427 194.909 47.1444 196.36 46.9151C196.581 46.8671 196.811 46.893 197.015 46.9885C197.187 47.0992 197.318 47.2595 197.392 47.447C197.863 48.4281 197.637 49.666 198.259 50.5646C198.596 50.9243 198.911 51.304 199.201 51.7016C199.422 52.1279 199.422 52.6414 199.672 53.077C199.922 53.5125 200.557 53.783 200.873 53.4117C200.68 52.7455 200.632 52.0476 200.732 51.3623C200.79 51.0248 200.926 50.7046 201.13 50.4258C201.334 50.1471 201.601 49.917 201.91 49.7531C202.224 49.5994 202.583 49.556 202.926 49.6304C203.27 49.7047 203.576 49.8922 203.794 50.1611C204.265 50.803 203.992 51.7291 204.411 52.3893C204.67 52.8019 205.146 53.0357 205.448 53.4162C205.749 53.7968 205.853 54.2507 206.145 54.6128C206.366 54.8771 206.669 55.0646 207.009 55.1473C207.348 55.2299 207.706 55.2033 208.029 55.0713C207.935 54.1988 207.911 53.3204 207.959 52.4443C208.138 51.1703 208.393 49.9074 208.722 48.6619C209.045 47.4086 208.984 46.0906 208.547 44.8704C208.178 44.0548 207.554 43.3731 206.765 42.9221C205.975 42.4711 205.059 42.2737 204.147 42.358C204.128 42.1089 204.046 41.8684 203.908 41.6579C203.77 41.4475 203.58 41.2737 203.356 41.1522C202.904 40.9161 202.407 40.774 201.895 40.735C199.462 40.4485 196.995 40.8296 194.772 41.8353C193.025 42.6147 190.245 44.0268 190.396 46.2825Z" fill="#1B4E61"/>
<path d="M158.766 90.456V155.009H170.308V90.456H158.766Z" fill="#1C04FC"/>
<path d="M170.303 90.4514V89.4382C170.304 88.7005 170.155 87.9699 169.865 87.2882C169.576 86.6066 169.15 85.9872 168.614 85.4656C168.078 84.9439 167.442 84.5303 166.742 84.2482C166.041 83.9662 165.29 83.8214 164.532 83.822C163.774 83.8214 163.024 83.9662 162.323 84.2482C161.623 84.5303 160.986 84.9439 160.45 85.4656C159.914 85.9872 159.489 86.6066 159.199 87.2882C158.91 87.9699 158.761 88.7005 158.761 89.4382V90.4514H170.303Z" fill="#040484"/>
<path d="M158.761 90.456V155.009H162.639V90.456H158.761Z" fill="#3EDBF0"/>
<path d="M162.643 90.456V155.009H166.431V90.456H162.643Z" fill="#77ACF1"/>
<path d="M170.303 155.009H158.761L164.796 164.444L170.303 155.009Z" fill="#0F0663"/>
<path d="M158.761 90.456V92.0194H170.303V90.456H158.761Z" fill="#FDD17A"/>
<path d="M146.8 156.274C147.559 156.331 148.322 156.304 149.076 156.196L151.582 155.93C151.984 155.863 152.395 155.873 152.793 155.962C152.989 156.012 153.167 156.118 153.302 156.265C153.438 156.413 153.526 156.596 153.556 156.792C153.584 157.319 153.052 157.709 152.571 157.947C150.583 158.979 148.303 159.648 146.079 159.323C145.57 159.281 145.076 159.137 144.627 158.9C144.178 158.664 143.784 158.339 143.469 157.947C143.045 157.31 142.942 155.834 143.837 155.458C144.308 155.256 144.704 155.623 145.118 155.815C145.649 156.058 146.217 156.213 146.8 156.274Z" fill="#0F0F23"/>
<path d="M148.807 157.801C150.275 157.899 151.75 157.796 153.188 157.493C153.769 157.301 154.364 157.156 154.969 157.058C155.273 157.013 155.584 157.04 155.876 157.136C156.168 157.231 156.432 157.393 156.646 157.608C156.84 157.872 156.955 158.183 156.978 158.507C157 158.831 156.929 159.155 156.773 159.442C156.46 160.007 156.026 160.501 155.501 160.891C152.783 163.183 149.448 164.93 145.863 165.095C144.887 165.141 143.884 165.067 142.951 165.361C141.886 165.7 140.878 166.512 139.785 166.278C139.409 166.172 139.055 166.003 138.74 165.778C138.512 165.672 138.334 165.485 138.245 165.255C138.224 164.984 138.314 164.716 138.495 164.508C139.248 163.245 139.824 161.89 140.209 160.478C140.433 159.642 140.767 158.837 141.203 158.085C141.552 157.518 142.063 157.063 142.673 156.774C143.38 156.476 143.752 156.948 144.407 157.209C145.792 157.727 147.332 157.769 148.807 157.801Z" fill="#1C1C38"/>
<path d="M132.384 149.415C133.374 149.952 134.363 150.479 135.395 150.924C138.405 152.23 141.755 152.895 144.407 154.793L143.206 157.214C142.942 157.75 142.612 158.342 142.023 158.511C141.53 158.596 141.023 158.517 140.582 158.287L130.849 154.49C124.14 151.877 117.432 149.259 110.902 146.238C109.954 145.862 109.082 145.327 108.325 144.656C107.947 144.319 107.662 143.895 107.497 143.422C107.332 142.949 107.293 142.443 107.383 141.951C107.746 140.576 109.315 139.897 110.681 139.416C111.42 139.155 111.99 138.815 112.739 138.994C113.492 139.235 114.22 139.542 114.916 139.911C116.381 140.567 117.823 141.287 119.241 142.016C122.114 143.519 124.894 145.156 127.72 146.774C129.289 147.682 130.83 148.558 132.384 149.415Z" fill="#165260"/>
<path d="M138.881 165.237C138.41 165.966 136.224 163.94 135.456 163.664C133.176 162.844 130.886 161.739 128.455 160.767L113.795 154.908C112.433 154.362 111.02 153.807 109.555 153.867C107.901 153.936 106.398 154.784 104.971 155.582L91.8508 163.036C89.7544 164.233 87.6108 165.434 85.293 166.094C83.6274 166.52 81.9236 166.788 80.2051 166.897C78.5374 167.048 76.8179 167.163 75.2303 166.654C73.3883 166.067 71.9326 164.705 70.5428 163.389C70.1679 163.107 69.909 162.704 69.8126 162.252C69.8149 161.931 69.9026 161.615 70.067 161.335C70.9712 159.475 72.0201 157.685 73.2045 155.981C73.6446 155.304 74.1754 154.687 74.7827 154.147C75.6036 153.539 76.5136 153.056 77.4822 152.712C80.7799 151.336 83.6395 149.282 87.0408 148.187C92.369 146.472 98.4274 146.105 103.28 143.363C105.018 142.382 106.794 141.154 108.801 141.241C110.158 141.3 111.401 141.97 112.57 142.616L125.723 149.851C128.399 151.322 131.145 152.817 134.179 153.321C136.21 153.656 139.399 155.041 141.934 155.875C144.299 156.636 140.054 163.426 138.881 165.237Z" fill="#1A5A6B"/>
<path d="M85.3778 140.814C85.3812 141.274 85.5061 141.726 85.7406 142.126C85.9629 142.374 86.2371 142.574 86.5449 142.712C86.8528 142.849 87.1873 142.921 87.5261 142.923C88.7259 142.984 89.9287 142.898 91.1064 142.667C90.7699 143.412 90.2014 144.036 89.4811 144.45C88.5418 145.128 87.4787 145.626 86.3483 145.917C85.4532 146.123 84.4121 146.114 83.729 145.509C83.3908 145.172 83.1306 144.769 82.9658 144.326C81.6561 141.378 80.8835 138.114 81.4206 134.946C81.5207 133.981 81.9312 133.071 82.5936 132.346C83.2767 131.695 85.4202 131.145 85.4673 132.571C85.5003 133.401 85.3119 134.286 85.2742 135.12C85.2365 135.955 85.2129 136.899 85.2271 137.788C85.2428 138.797 85.293 139.806 85.3778 140.814Z" fill="#F39E81"/>
<path d="M95.8362 141.222C96.338 140.852 96.9279 140.61 97.5511 140.521C98.3708 140.443 99.2141 140.773 100.01 140.567C100.274 140.473 100.543 140.392 100.816 140.324C101.274 140.304 101.729 140.409 102.13 140.626C102.226 140.656 102.307 140.72 102.356 140.805C102.427 140.97 102.248 141.126 102.092 141.218C100.169 142.373 98.086 143.256 95.9069 143.84C95.2379 144.024 94.3664 143.721 94.3005 142.923C94.2345 142.126 95.3086 141.571 95.8362 141.222Z" fill="#F39E81"/>
<path d="M75.3622 153.798C74.3072 155.515 73.1544 157.172 71.909 158.763C71.2738 159.454 70.7381 160.225 70.3167 161.056C70.067 161.633 69.8455 162.353 69.2284 162.518C68.873 162.579 68.5071 162.514 68.1967 162.335C67.3871 161.963 66.6653 161.432 66.0767 160.776C65.6669 160.318 65.323 159.8 64.9178 159.332C64.5127 158.864 63.9756 158.387 63.5799 157.846C63.1965 157.264 62.9043 156.629 62.7131 155.962C61.8783 153.409 61.5365 150.728 61.7049 148.054C61.6971 147.918 61.7445 147.784 61.8368 147.682C61.9279 147.622 62.0379 147.594 62.1477 147.604C62.6944 147.597 63.2404 147.644 63.7778 147.742C66.1072 148.12 68.3693 148.819 70.4957 149.819C71.7535 150.415 72.9595 151.112 74.1656 151.804C74.6722 152.037 75.1549 152.316 75.6071 152.638C76.0641 153.051 75.6966 153.276 75.3622 153.798Z" fill="#FDD17A"/>
<path d="M61.2197 148.796C61.4458 150.561 61.818 152.505 63.269 153.578C64.4703 154.463 66.0956 154.495 67.5937 154.527C69.1896 154.585 70.7876 154.511 72.3707 154.307C73.8817 154.046 75.3589 153.625 76.7755 153.051C81.2462 151.327 85.3543 148.828 89.7355 146.898C92.5857 145.642 95.5819 144.606 98.1824 142.942C98.2494 142.886 98.2992 142.813 98.3259 142.732C98.3527 142.65 98.3555 142.563 98.3339 142.48C98.3123 142.397 98.2673 142.321 98.2039 142.262C98.1404 142.203 98.0612 142.162 97.9751 142.144L95.1485 141.864C94.6565 141.802 94.1599 141.784 93.6645 141.809C92.9057 141.905 92.1648 142.105 91.4644 142.405C90.4727 142.755 89.5023 143.159 88.5578 143.616C87.7384 144.093 86.8777 144.499 85.9855 144.831C85.2935 145.018 84.5828 145.134 83.8656 145.174C80.392 145.48 76.9105 145.66 73.4212 145.715C72.889 145.76 72.3532 145.696 71.8478 145.527C70.6747 145.069 70.2649 143.643 70.1848 142.41C70.0906 140.956 70.2413 139.494 70.0858 138.05C69.9304 136.606 69.4122 135.106 68.2533 134.189C67.223 133.445 65.9368 133.116 64.6635 133.273C63.1936 133.405 61.5306 133.731 60.546 134.909C59.5614 136.088 60.1597 136.404 60.1409 137.995C60.122 139.586 60.4707 141.626 60.612 143.258C60.7816 145.104 60.9841 146.95 61.2197 148.796Z" fill="#F5B7A0"/>
<path d="M81.5996 121.935C82.3211 122.237 82.9852 122.655 83.5641 123.172C84.2511 123.952 84.7257 124.887 84.9444 125.891C85.5525 127.994 85.8912 130.162 85.9525 132.346L83.8561 132.704C83.7083 132.711 83.5679 132.77 83.4604 132.869C83.3859 132.976 83.3479 133.102 83.3521 133.231C83.1542 135.979 83.4086 138.74 84.1058 141.41C84.4281 142.399 84.6289 143.42 84.7041 144.455C84.7169 144.612 84.6877 144.77 84.6193 144.913C84.4168 145.266 83.9127 145.28 83.4981 145.28C81.4064 145.28 79.4231 146.114 77.3738 146.554C75.2181 147.026 72.9854 147.059 70.816 146.651C70.4368 146.616 70.0741 146.483 69.7655 146.266C69.4238 145.883 69.2276 145.397 69.2096 144.89C68.795 141.913 68.5014 138.924 68.3286 135.922C68.342 135.739 68.2868 135.556 68.1732 135.409C68.0208 135.283 67.8264 135.216 67.6267 135.221C66.2765 135.04 64.9061 135.057 63.5611 135.271C62.8892 135.384 62.2515 135.641 61.6942 136.023C61.1369 136.405 60.6739 136.903 60.3387 137.481C60.221 137.715 60.0043 138.018 59.7687 137.898C59.618 137.825 59.5944 137.628 59.5897 137.467C59.5583 136.245 59.5237 135.031 59.486 133.827C59.4349 132.774 59.4522 131.719 59.5379 130.668C59.8433 127.776 61.1762 125.078 63.3067 123.039C64.1829 122.21 65.1911 121.504 66.0249 120.646C66.7269 119.936 67.377 119.092 68.3475 118.812C69.0436 118.666 69.7654 118.684 70.4533 118.863C72.545 119.239 74.6367 119.78 76.7378 120.091C78.5515 120.334 79.9743 121.141 81.5996 121.935Z" fill="#FDD17A"/>
<path d="M78.6787 103.041C78.7965 103.266 78.8719 103.499 78.9849 103.733C79.2427 104.219 79.6515 104.614 80.1532 104.861C80.5013 105.003 80.8355 105.175 81.152 105.375C81.3076 105.48 81.4268 105.629 81.494 105.802C81.5612 105.974 81.5734 106.163 81.5289 106.342C81.3734 106.745 80.7845 107.043 80.9447 107.447C81.0068 107.567 81.0972 107.67 81.2085 107.749C81.4389 107.959 81.6233 108.211 81.7504 108.492C81.8775 108.772 81.9448 109.075 81.9481 109.382C81.9128 109.635 81.952 109.892 82.0612 110.124C82.1458 110.224 82.2405 110.314 82.3439 110.395C82.4809 110.529 82.5889 110.689 82.6613 110.865C82.7338 111.041 82.7694 111.229 82.7658 111.418C82.7623 111.607 82.7198 111.794 82.6409 111.967C82.5619 112.14 82.4481 112.296 82.3062 112.426C81.9136 112.692 81.4547 112.85 80.9777 112.884C79.0933 113.178 77.157 113.256 75.3857 113.925C74.9327 114.167 74.4163 114.272 73.9017 114.228C72.8842 114.012 72.4225 112.531 71.3766 112.563C71.0257 112.632 70.6807 112.727 70.3449 112.848C70.0618 112.889 69.7726 112.865 69.5008 112.778C69.229 112.69 68.9824 112.541 68.7809 112.343C68.3832 111.95 68.0722 111.482 67.8669 110.968C67.5262 110.287 67.3643 109.534 67.3958 108.776C67.4174 108.399 67.5441 108.035 67.7624 107.722C67.9806 107.409 68.2822 107.161 68.6348 107.002C68.9605 106.909 69.2927 106.838 69.6288 106.791C70.995 106.47 71.9043 105.246 72.6957 104.118C73.3882 103.124 74.3634 101.721 75.6872 101.487C76.7001 101.299 78.217 102.17 78.6787 103.041Z" fill="#F5B7A0"/>
<path d="M79.2158 114.351C78.7405 115.192 78.39 116.093 78.1747 117.029C77.7432 118.373 77.4497 119.755 77.2984 121.155C77.3152 121.535 77.2134 121.91 77.0063 122.233C76.8323 122.404 76.6092 122.52 76.3663 122.566C76.1234 122.611 75.872 122.585 75.6449 122.489C75.1935 122.294 74.7744 122.034 74.4011 121.719C72.5544 120.376 70.2649 119.784 68.1025 119.009C67.9188 118.945 67.7068 118.835 67.7068 118.647C68.7197 118.386 69.8786 117.996 70.2272 117.033C70.348 116.613 70.3753 116.172 70.3073 115.741L70.0529 112.531C70.0252 112.378 70.0382 112.22 70.0906 112.073C70.1666 111.955 70.2713 111.857 70.3953 111.787C70.5193 111.718 70.6589 111.679 70.8019 111.674C72.2906 111.431 73.7981 111.857 75.3009 111.949C77.0534 112.059 78.8389 111.715 80.549 112.087C80.7375 112.128 81.4111 112.265 81.4206 112.522C81.43 112.779 80.8411 112.871 80.648 112.981C80.0567 113.309 79.5632 113.782 79.2158 114.351Z" fill="#F39E81"/>
<path d="M75.56 97.7915C76.0929 97.6946 76.6438 97.7817 77.1177 98.0378C77.5916 98.2939 77.9587 98.703 78.1558 99.1944C78.2531 99.4922 78.3147 99.7999 78.3395 100.111C78.4222 100.61 78.4126 101.12 78.3113 101.615C78.2565 101.862 78.1426 102.093 77.9789 102.289C77.8152 102.485 77.6063 102.64 77.3691 102.743C77.0487 102.853 76.6718 102.839 76.4269 103.055C76.2028 103.317 76.0562 103.634 76.0029 103.972C75.8736 104.332 75.6447 104.652 75.3414 104.894C75.0381 105.137 74.6721 105.294 74.2833 105.347C74.0478 105.379 73.7746 105.384 73.6285 105.563C73.5443 105.702 73.4974 105.86 73.4919 106.021C73.4362 106.293 73.3093 106.546 73.1237 106.757C72.938 106.967 72.6998 107.128 72.4319 107.222C72.1587 107.314 71.8619 107.337 71.5886 107.433C71.4483 107.472 71.3216 107.548 71.2227 107.652C71.1237 107.756 71.0564 107.885 71.028 108.025C70.9903 108.391 71.3484 108.662 71.6216 108.914C71.8949 109.166 72.0927 109.634 71.8101 109.872C71.6859 109.939 71.5434 109.967 71.4024 109.951C71.2614 109.935 71.1289 109.877 71.0233 109.785C70.8142 109.598 70.5541 109.474 70.2743 109.427C70.1123 109.445 69.9586 109.506 69.8304 109.604C69.7023 109.702 69.6047 109.833 69.5488 109.982C69.4104 110.276 69.3545 110.601 69.3868 110.923C69.4191 111.245 69.5383 111.553 69.7325 111.816C69.876 111.977 70.0023 112.153 70.1094 112.339C70.3073 112.797 70.0481 113.416 70.392 113.788C70.5381 113.948 70.7736 114.026 70.8631 114.218C70.9527 114.411 70.8396 114.718 70.915 114.957C70.9966 115.133 71.1172 115.289 71.2683 115.415C71.3932 115.569 71.4841 115.746 71.5351 115.935C71.5861 116.125 71.5963 116.322 71.5648 116.516C71.5334 116.709 71.4611 116.894 71.3525 117.059C71.2439 117.224 71.1013 117.365 70.9338 117.474C70.7957 117.538 70.666 117.618 70.5475 117.712C70.4502 117.822 70.3605 117.939 70.279 118.06C70.0572 118.331 69.7666 118.54 69.436 118.667C69.1054 118.794 68.7463 118.835 68.3946 118.785C67.5984 119.702 65.9307 119.243 65.1393 118.294C65.0333 118.136 64.8974 117.999 64.7388 117.891C64.6235 117.835 64.5017 117.794 64.3761 117.767C63.8055 117.579 63.3308 117.185 63.0495 116.666C62.7682 116.148 62.7018 115.544 62.8638 114.98C62.2905 114.748 61.785 114.381 61.3921 113.913C60.9993 113.446 60.7313 112.89 60.612 112.297C60.4673 111.85 60.4673 111.37 60.612 110.922C60.6655 110.821 60.699 110.71 60.7109 110.597C60.6906 110.445 60.6213 110.304 60.513 110.193C59.8769 109.352 59.532 108.336 59.5284 107.291C59.5074 106.842 59.6133 106.397 59.8347 106.003C59.9474 105.808 60.1118 105.646 60.3106 105.534C60.5095 105.422 60.7355 105.364 60.9653 105.365C61.0265 104.577 60.6968 103.775 60.8711 103C60.9458 102.738 61.0742 102.493 61.2486 102.281C61.423 102.069 61.6398 101.893 61.8859 101.765C62.132 101.636 62.4023 101.557 62.6805 101.533C62.9587 101.509 63.239 101.54 63.5045 101.624C63.3941 101.272 63.3823 100.896 63.4705 100.538C63.5587 100.179 63.7437 99.8499 64.0063 99.584C64.269 99.3181 64.5997 99.1253 64.9645 99.0254C65.3293 98.9255 65.7149 98.9221 66.0815 99.0156C66.091 98.7876 66.1725 98.5679 66.315 98.3866C66.4575 98.2052 66.6539 98.0711 66.8776 98.0024C67.327 97.8732 67.801 97.8465 68.2627 97.9245C68.2812 97.594 68.3912 97.2747 68.5812 97.0002C68.7711 96.7257 69.0338 96.5063 69.3414 96.3653C69.649 96.2243 69.9901 96.1669 70.3285 96.1993C70.6669 96.2316 70.99 96.3525 71.2636 96.5491C71.6283 96.3554 72.0181 96.2105 72.4225 96.1181C72.8289 96.1233 73.234 96.1631 73.6332 96.2373C74.6225 96.3611 75.1125 96.9663 75.56 97.7915Z" fill="#77ACF1"/>
<path d="M121.591 119.913L111.642 121.352L102.239 140.512L112.871 137.596L121.591 119.913Z" fill="#0B3A47"/>
<path d="M112.871 137.596L112.975 139.155L87.1821 150.355L86.0845 148.636L102.168 141.099L102.239 140.512L112.871 137.596Z" fill="#547989"/>
</g>
<defs>
<clipPath id="clip0">
<rect width="246" height="188" fill="white"/>
</clipPath>
</defs>
</svg>
