<svg width="246" height="188" viewBox="0 0 246 188" fill="none" xmlns="http://www.w3.org/2000/svg">
<g clip-path="url(#clip0)">
<path d="M212.257 187.352C212.257 187.352 225.479 188.833 233.15 168.307C244.403 138.201 232.91 99.0252 205.591 96.966C166.191 93.9965 189.186 28.7156 127.013 49.5699C109.53 55.434 71.506 25.1622 49.1217 76.4533C45.3192 85.171 33.9374 84.7475 18.778 99.6254C-7.96319 125.872 1.66331 187.63 24.1951 187.911C46.7268 188.192 212.257 187.352 212.257 187.352Z" fill="#FCECDB"/>
<path d="M28.1335 187.799C28.1335 187.799 28.9551 181.223 39.4329 179.454C49.9107 177.685 59.6569 163.502 76.9392 165.56C94.2215 167.618 108.561 180.537 128.233 176.578C147.904 172.62 160.222 177.665 164.635 181.643C169.047 185.621 187.308 180.707 188.658 188L28.1335 187.799Z" fill="#A8D29F"/>
<path d="M71.211 31.1165C71.211 31.1165 59.384 30.4145 65.6571 74.4538C65.6571 74.4538 69.8781 89.4042 64.5492 99.0404H142.992V31.1165H71.211Z" fill="#AFCDFB"/>
<path d="M155.037 53.8896C155.037 53.8896 151.094 44.8056 157.001 41.3377C157.001 41.3377 161.165 39.6342 164.112 40.6767C164.112 40.6767 158.281 48.187 159.492 49.426C160.702 50.6651 165.496 40.4848 165.496 40.4848C165.496 40.4848 174.018 41.7894 176.412 44.1025C176.412 44.1025 167.971 49.2704 169.395 50.107C170.819 50.9435 179.806 46.0646 179.806 46.0646C179.806 46.0646 187.275 49.8086 185.791 55.4832C184.306 61.1577 181.481 60.8992 180.332 60.423C179.183 59.9468 173.671 53.4286 172.362 57.2897C171.978 58.4176 175.426 63.4088 178.29 64.3858C178.29 64.3858 171.461 70.2546 168.216 67.126C164.971 63.9974 165.282 60.5411 163.248 58.6527C161.214 56.7643 159.279 56.2355 159.977 57.7834C160.675 59.3314 164.547 61.7123 165.328 64.8702C166.11 68.0281 166.923 70.2382 163.288 68.5124C159.654 66.7867 154.157 61.7416 154.598 57.8162L155.037 53.8896Z" fill="#82B378"/>
<path d="M181.945 54.5904C181.945 54.5904 161.048 47.8043 155.037 53.8884C155.037 53.8884 153.314 57.3727 149.514 59.9327L148.717 61.442C148.717 61.442 153.237 57.7401 154.596 57.815C154.596 57.8161 154.232 48.1284 181.945 54.5904Z" fill="#82B378"/>
<path d="M149.514 59.9339C149.514 59.9339 144.237 62.7794 142.577 69.996L143.382 70.3119C143.382 70.3119 146.218 63.1561 149.373 60.9202C152.528 58.6843 149.514 59.9339 149.514 59.9339Z" fill="#599DAD"/>
<path d="M129.074 37.4933C129.074 37.4933 117.398 30.0532 122.5 19.1919C122.5 19.1919 126.628 12.4878 131.181 10.6356C131.181 10.6356 129.118 26.6297 131.577 26.9152C134.037 27.2007 132.822 8.89701 132.822 8.89701C132.822 8.89701 144.747 1.34574 149.508 1.73419C149.508 1.73419 142.383 17.5387 144.824 17.0754C147.264 16.6121 155.304 0.579385 155.304 0.579385C155.304 0.579385 167.641 -2.6791 169.851 6.23055C172.061 15.1402 168.954 19.7465 167.129 20.3748C165.305 21.0031 153.51 21.2453 153.861 23.1056C154.213 24.966 162.25 27.6687 166.65 25.8236C166.65 25.8236 162.11 40.7845 155.66 40.2697C149.209 39.7549 147.1 34.9626 143.109 34.7332C139.117 34.5039 136.24 35.9196 138.263 37.1575C140.287 38.3954 147.002 37.2745 150.3 40.492C153.598 43.7096 156.25 45.6799 150.314 47.3951C144.378 49.1104 133.636 48.5651 131.354 43.0286L129.074 37.4933Z" fill="#A8D29F"/>
<path d="M164.25 9.24542C164.25 9.24542 132.403 23.1393 129.074 37.493C129.074 37.493 129.383 43.8497 126.344 51.2641L126.413 54.0721C126.413 54.0721 129.549 44.4066 131.355 43.0307C131.355 43.0295 123.857 30.941 164.25 9.24542Z" fill="#82B378"/>
<path d="M126.344 51.2641C126.344 51.2641 121.609 60.6465 124.71 71.7393L125.976 71.2713C125.976 71.2713 124.436 58.978 126.88 52.6787C129.323 46.3793 126.344 51.2641 126.344 51.2641Z" fill="#6BB7BF"/>
<path d="M158.076 57.1891H76.1846V187.681H158.076V57.1891Z" fill="#9ABCEF"/>
<path d="M159.377 57.1891H78.8621V187.681H159.377V57.1891Z" fill="#E9F3FE"/>
<path d="M159.378 57.1879H78.862C79.3073 49.7489 78.636 44.3458 77.5607 40.4567C75.4961 32.9885 71.9397 31.1165 71.9397 31.1165H147.875C154.356 31.1165 159.382 35.8878 160.75 42.2187C160.801 42.4574 160.848 42.6949 160.89 42.9313C162.183 50.1783 159.431 57.0557 159.378 57.1879Z" fill="#E9F3FE"/>
<path d="M159.378 57.1879H78.862C79.3073 49.749 78.636 44.3459 77.5607 40.4567C85.7891 42.2983 106.168 46.2214 127.982 45.5603C142.094 45.1321 153.245 43.9785 160.885 42.9278C162.183 50.1784 159.431 57.0557 159.378 57.1879Z" fill="#D8E8FD"/>
<path d="M160.543 182.495C160.543 182.495 163.033 171.932 165.946 173.178C168.859 174.424 160.543 182.495 160.543 182.495Z" fill="#A8D29F"/>
<path d="M162.814 181.919C162.814 181.919 169.161 176.829 170.556 178.402C171.95 179.976 162.814 181.919 162.814 181.919Z" fill="#A8D29F"/>
<path d="M154.879 69.5596H83.9142V74.5181H154.879V69.5596Z" fill="#A8C3F7"/>
<path d="M154.879 99.8255H83.9142V102.1H154.879V99.8255Z" fill="#A8C3F7"/>
<path d="M154.879 105.178H83.9142V107.453H154.879V105.178Z" fill="#A8C3F7"/>
<path d="M154.879 110.53H83.9142V112.804H154.879V110.53Z" fill="#A8C3F7"/>
<path d="M154.879 115.883H83.9142V118.157H154.879V115.883Z" fill="#A8C3F7"/>
<path d="M154.879 121.236H83.9142V123.51H154.879V121.236Z" fill="#A8C3F7"/>
<path d="M154.879 126.587H83.9142V128.862H154.879V126.587Z" fill="#A8C3F7"/>
<path d="M104.695 157.672C104.695 158.996 104.374 160.289 103.772 161.39C103.17 162.491 102.315 163.348 101.314 163.855C100.314 164.362 99.2124 164.494 98.15 164.236C97.0876 163.978 96.1118 163.341 95.3458 162.405C94.5799 161.469 94.0583 160.277 93.847 158.978C93.6357 157.68 93.7443 156.335 94.1589 155.112C94.5735 153.889 95.2755 152.844 96.1763 152.109C97.077 151.374 98.1359 150.982 99.2192 150.982C100.671 150.982 102.064 151.687 103.091 152.942C104.117 154.196 104.694 155.898 104.695 157.672Z" fill="#A8C3F7"/>
<path d="M127.62 164.104C127.604 164.105 127.589 164.105 127.573 164.104C127.538 164.096 127.504 164.081 127.473 164.057C127.443 164.034 127.416 164.003 127.396 163.967C127.375 163.931 127.36 163.891 127.352 163.848C127.345 163.805 127.344 163.761 127.35 163.718C127.401 163.351 128.646 154.696 132.575 151.75C132.855 151.54 133.031 151.649 133.111 151.732C133.456 152.094 133.193 153.012 132.01 156.478C131.539 157.859 130.98 159.497 130.75 160.493C131.169 159.823 131.795 158.675 132.292 157.762C133.846 154.911 134.149 154.446 134.452 154.446C134.506 154.446 134.56 154.462 134.608 154.492C134.657 154.523 134.698 154.567 134.729 154.622C134.894 154.911 134.769 155.395 134.339 156.816C134.175 157.36 133.923 158.194 133.85 158.642C134.073 158.396 134.401 157.875 134.599 157.561C135.136 156.705 135.41 156.295 135.731 156.357C135.804 156.373 135.871 156.412 135.925 156.472C135.98 156.531 136.02 156.608 136.041 156.694C136.072 156.813 136.093 156.936 136.105 157.06C136.147 157.403 136.195 157.791 136.532 158.023C137.215 158.491 139.181 158.467 144.671 155.669C144.738 155.635 144.814 155.635 144.881 155.669C144.948 155.702 145.002 155.767 145.03 155.849C145.057 155.931 145.058 156.023 145.03 156.105C145.002 156.187 144.949 156.253 144.882 156.287C140.245 158.648 137.426 159.407 136.264 158.607C135.698 158.217 135.613 157.564 135.565 157.169C135.409 157.37 135.191 157.715 135.032 157.968C134.439 158.914 134.048 159.482 133.65 159.442C133.591 159.437 133.535 159.414 133.485 159.377C133.435 159.339 133.393 159.288 133.362 159.227C133.171 158.861 133.362 158.14 133.829 156.584C133.903 156.335 133.991 156.049 134.065 155.784C133.682 156.418 133.169 157.366 132.751 158.133C131.01 161.325 130.695 161.788 130.344 161.671C130.272 161.646 130.209 161.592 130.164 161.518C130.12 161.443 130.097 161.354 130.099 161.262C130.065 160.514 130.634 158.78 131.508 156.22C131.952 154.919 132.533 153.216 132.677 152.467C129.103 155.4 127.904 163.745 127.889 163.83C127.877 163.907 127.844 163.976 127.795 164.026C127.746 164.077 127.684 164.104 127.62 164.104Z" fill="#A8C3F7"/>
<path d="M66.584 56.239V57.2394C66.584 57.2394 66.8061 60.3668 63.6548 60.8231C60.5034 61.2794 57.9179 61.2209 58.0051 58.8083C58.2923 56.9363 58.7979 54.0382 58.819 52.4903C58.8255 51.8635 58.788 51.2372 58.707 50.6183L64.8144 50.4697L66.6137 50.8289L66.584 56.239Z" fill="#FFB27D"/>
<path d="M66.6079 50.83L66.584 56.239C65.8946 56.633 65.1426 56.8359 64.3816 56.8333C61.5749 56.8333 59.7603 54.3178 58.8123 52.4926C58.8188 51.8658 58.7813 51.2395 58.7003 50.6206L64.8077 50.472L66.6079 50.83Z" fill="#E2915A"/>
<path d="M58.233 49.419C58.9416 54.0792 63.8626 53.9259 65.9894 53.6311C66.5878 53.5492 66.9642 53.4556 66.9642 53.4556C67.6393 53.2356 68.0175 51.9346 68.1908 50.2357C68.5375 46.8696 68.0951 41.9286 67.6335 40.6627C66.9335 38.7614 65.614 36.7045 60.6585 38.1881C55.7031 39.6717 57.3242 43.4485 58.233 49.419Z" fill="#FFB27D"/>
<path d="M54.2064 187.383H61.1795C61.0582 186.348 60.8722 185.326 60.6231 184.325C60.5169 183.906 60.385 183.497 60.2286 183.101C59.5507 181.447 55.2425 182.5 55.2425 182.5C55.2425 182.5 54.8423 182.919 54.5301 184.518C54.3557 185.46 54.2475 186.419 54.2064 187.383Z" fill="#233862"/>
<path d="M75.2788 184.695C75.2979 185.854 75.4167 186.95 75.7576 187.386H89.5467C89.3714 186.776 88.8764 185.865 87.4582 185.578C85.8495 185.26 83.3406 184.313 81.8774 182.419C81.3451 181.758 80.9712 180.931 80.7963 180.029C80.1471 176.499 75.4339 181.11 75.4339 181.11C75.3207 182.3 75.2688 183.497 75.2788 184.695Z" fill="#233862"/>
<path d="M66.1042 146.535C66.27 147.563 66.3857 148.603 66.4509 149.648C66.8895 160.099 73.6499 183.993 74.8593 184.55C76.7304 185.413 79.6769 183.579 81.2186 182.978C81.8573 182.729 82.2892 181.942 82.1465 181.144C78.795 162.337 77.5683 135.255 77.1202 119.221C76.8942 111.148 75.7595 105.567 75.7595 105.567C75.7595 105.567 59.27 100.185 59.1714 106.991C59.0852 113.009 64.6344 136.608 66.1042 146.535Z" fill="#2B478B"/>
<path d="M66.1043 146.535L77.1164 119.221C76.8904 111.148 75.7557 105.567 75.7557 105.567C75.7557 105.567 59.2662 100.185 59.1676 106.991C59.0852 113.009 64.6344 136.608 66.1043 146.535Z" fill="#233862"/>
<path d="M69.7737 107.015L61.0597 184.212C61.0597 184.212 57.2294 185.339 54.2543 184.437C54.2543 184.437 51.7023 143.38 51.9149 133.455C52.1275 123.53 50.0831 106.896 52.3812 105.06C54.6794 103.224 69.7737 107.015 69.7737 107.015Z" fill="#2B478B"/>
<path d="M69.1541 36.2306C69.1541 36.2306 66.9737 36.0247 64.4007 34.6581C62.3122 33.5489 59.6779 34.7751 58.8228 35.3215C58.8534 35.0956 58.9244 34.8806 59.0306 34.692C59.0306 34.692 58.6476 35.0255 58.5901 35.49C58.5509 35.5262 58.5336 35.5496 58.5432 35.559C58.5528 35.5684 58.1085 35.4607 57.8289 35.6152C57.8289 35.6152 58.0204 35.5812 58.0941 35.7322C58.102 35.7488 58.1128 35.7632 58.1257 35.7743C54.87 37.6978 54.5674 43.9878 55.6159 45.4433C56.877 47.1983 58.3929 51.1377 58.3929 51.1377C58.3929 51.1377 58.9444 50.2017 58.7146 48.6655C58.4848 47.1293 59.5764 47.1246 60.9506 46.4237C62.3247 45.7229 61.1804 43.762 62.3869 42.5709C63.5935 41.3798 68.005 42.0807 67.9476 41.1669C69.5793 40.4438 69.1541 36.4353 69.1541 36.2306Z" fill="#233862"/>
<path d="M57.2562 60.1492L59.2671 112.766C59.2671 112.766 76.018 113.1 75.5392 108.468C75.0604 103.836 69.5065 61.7603 69.5065 61.7603L57.2562 60.1492Z" fill="#E9F3FE"/>
<path d="M51.2752 89.974C52.2721 93.6268 50.3933 105.886 49.723 110.036C49.5765 110.915 49.4779 111.44 49.4779 111.44C51.7981 116.051 60.2985 115.992 60.2985 115.992C61.9321 107.167 62.7814 93.1143 62.7814 93.1143L56.2584 58.1918L48.0568 67.4559C48.0568 67.4559 48.6773 73.1048 49.4453 78.8542C50.0505 83.4055 50.7361 88.0376 51.2752 89.974Z" fill="#22407A"/>
<path d="M65.2156 50.1877C65.2156 50.1877 65.3755 50.7891 66.6165 50.5691C66.6165 50.5691 67.6593 50.3855 67.5817 49.715C67.5817 49.7127 66.5342 49.3348 65.2156 50.1877Z" fill="white"/>
<path d="M74.6315 60.8991C74.6315 60.8991 74.6315 60.9085 74.6315 60.9214C75.0279 61.3894 86.2105 74.6561 88.3765 79.8522C90.5789 85.1231 78.2961 95.6228 78.2961 95.6228C78.2961 95.6228 77.5052 96.0042 76.9555 95.8568C77.5301 101.685 78.186 107.061 77.8001 109.356C77.1039 113.505 73.9631 114.898 73.9631 114.579C73.9631 114.478 73.1539 99.4522 72.1906 91.6915C70.0533 74.4666 67.5033 58.3005 67.5033 58.3005C71.1641 58.7627 74.6315 60.8991 74.6315 60.8991ZM81.2895 82.129C81.3026 82.1058 81.3084 82.0775 81.3058 82.0495C81.3058 81.2913 78.9358 79.6135 76.3714 77.6373L76.3216 77.5777C76.3676 79.1923 76.3628 80.7765 76.2843 82.2577C76.1387 84.992 76.3015 88.2611 76.5715 91.5897C77.7886 89.2486 81.0501 82.9866 81.2895 82.129Z" fill="#22407A"/>
<path d="M56.7813 58.1298C56.7612 57.6278 58.707 56.934 58.707 56.934C58.707 56.934 60.9353 60.7085 64.6066 60.7728C64.6066 60.7728 63.56 63.2603 62.3276 63.9049C62.3276 63.9049 56.9058 61.1121 56.7813 58.1298Z" fill="#D9E9F9"/>
<path d="M69.7612 96.3354C69.6714 97.565 69.2098 98.7096 68.4666 99.5459L67.2993 100.86C67.2299 100.938 67.1481 100.998 67.0589 101.035C66.9698 101.073 66.8752 101.088 66.7811 101.079C66.6871 101.069 66.5956 101.037 66.5124 100.982C66.4292 100.928 66.3561 100.853 66.2977 100.763L64.8537 98.5174C64.4663 97.9148 64.2835 97.1532 64.3433 96.3904C64.4783 94.6915 64.7263 91.419 64.9322 88.2588C65.0969 85.7 65.2281 83.2125 65.2386 81.6997C65.2702 76.8699 64.4859 61.4667 64.4859 61.4667L65.433 61.5275C65.433 61.5275 67.7838 67.5039 69.0162 75.6414C69.3375 77.7375 69.5565 79.855 69.6722 81.9828C69.6722 81.9828 70.1653 90.7802 69.7612 96.3354Z" fill="#C65447"/>
<path d="M69.7612 96.3353C69.6714 97.5649 69.2098 98.7096 68.4666 99.5458L67.2993 100.86C67.2299 100.938 67.1481 100.998 67.0589 101.035C66.9697 101.073 66.8752 101.088 66.7811 101.079C66.6871 101.069 66.5956 101.037 66.5124 100.982C66.4292 100.928 66.3561 100.853 66.2977 100.763L64.8537 98.5174C64.4663 97.9147 64.2835 97.1531 64.3433 96.3903C64.4783 94.6914 64.7263 91.4189 64.9322 88.2587C67.5511 84.6644 68.6121 79.6954 69.0191 75.6413C69.3403 77.7374 69.5594 79.8549 69.675 81.9828C69.675 81.9828 70.1653 90.7801 69.7612 96.3353Z" fill="#BA4C43"/>
<path d="M64.6066 60.6851C64.6066 60.6851 66.5504 59.2811 66.5572 57.7495C66.5572 57.7495 67.8135 57.5576 68.3622 58.3018C68.3622 58.3018 68.8228 60.9179 68.2118 62.4389C68.2118 62.4389 65.4109 61.9171 64.6066 60.6851Z" fill="#D9E9F9"/>
<path d="M63.2861 60.4581L65.9233 59.6859C65.9233 59.6859 66.268 59.7233 66.2584 60.2475C66.2489 60.7716 65.5154 62.3055 65.1907 62.4284C64.8661 62.5512 62.6627 61.5204 63.2861 60.4581Z" fill="#BA4C43"/>
<path d="M57.0887 57.87C57.0676 57.368 58.3852 56.3337 58.3852 56.3337C58.3852 56.3337 60.9353 59.9748 64.6095 60.0403C64.6095 60.0403 63.5628 62.5278 62.3305 63.1725C62.3276 63.1748 57.2093 60.8523 57.0887 57.87Z" fill="#E9F3FE"/>
<path d="M64.6066 60.0404C64.6066 60.0404 66.5773 58.7662 66.5773 57.2394C66.5773 57.2394 67.7637 57.8782 68.3124 58.6223C68.3124 58.6223 68.8199 60.2744 68.209 61.7942C68.2118 61.7942 65.4109 61.2724 64.6066 60.0404Z" fill="#E9F3FE"/>
<path d="M79.0823 96.4769C79.0823 95.136 78.117 94.0596 77.0321 94.2609C76.8828 94.2796 76.7381 94.3347 76.6065 94.4229C76.4749 94.5111 76.3592 94.6307 76.266 94.7745C75.5191 95.989 74.8086 99.5236 76.132 99.6886C76.6701 99.7564 77.3625 99.2943 77.8949 98.7994C78.4273 98.3044 79.0775 97.5123 79.0775 96.6793L79.0823 96.4769Z" fill="#FFB27D"/>
<path d="M49.724 110.036C52.1265 106.982 56.2757 100.973 56.1292 96.0416C55.9377 89.1385 49.4463 78.8541 49.4463 78.8541C50.0515 83.4055 50.7371 88.0376 51.2762 89.9693C52.2721 93.6267 50.3943 105.88 49.724 110.036Z" fill="#233862"/>
<path d="M49.7986 98.0226C49.7986 98.0226 51.5223 99.0756 52.5756 98.5491C53.6289 98.0226 54.8566 97.6259 56.0286 99.2511C57.2007 100.876 57.4468 102.011 57.1997 102.614C56.9527 103.216 54.2217 102.99 53.7687 102.614C53.3158 102.237 52.5986 101.309 52.1409 101.471C50.8864 101.916 49.8293 100.748 49.2385 99.8162C48.8822 99.2581 49.8456 98.9867 49.7986 98.0226Z" fill="#FFB27D"/>
<path d="M56.2584 58.1918C56.2584 58.1918 49.3821 59.1278 47.76 62.7817C46.1378 66.4357 37.7054 81.2679 37.9812 87.4327C38.257 93.5975 49.4846 100.506 49.4846 100.506C49.4846 100.506 51.9743 99.2194 52.0087 97.8411C52.0432 96.4629 44.2466 88.2038 44.7197 86.6628C45.1927 85.1219 53.7802 72.9363 54.6076 68.9184C55.4349 64.9006 56.2584 58.1918 56.2584 58.1918Z" fill="#22407A"/>
<path d="M76.3216 77.5766L76.3714 77.6362C78.9358 79.6124 81.3058 81.2902 81.3058 82.0483C81.6486 80.711 78.3153 75.1207 77.237 73.9834C76.1425 72.8251 76.3216 77.5766 76.3216 77.5766Z" fill="#233862"/>
<path d="M58.3852 56.3337C58.3852 56.3337 63.6088 83.051 62.7757 93.1155C62.7757 93.1155 60.8606 82.3607 56.2364 73.5505C56.2364 73.5505 57.9227 71.7393 57.8308 71.0712C57.8308 71.0712 56.5793 70.6184 55.3651 70.9238C55.3651 70.9238 55.4991 59.4062 56.2566 58.1906C57.014 56.9749 58.3852 56.3337 58.3852 56.3337Z" fill="#233862"/>
<path d="M66.5773 57.2394C66.5065 57.2803 71.7482 83.347 72.1916 91.6904C72.1916 91.6904 71.6688 76.802 71.7205 72.5104C71.7205 72.5104 69.5515 71.1064 69.5515 70.6161C69.5515 70.1259 71.8679 68.7909 71.8679 68.7909C71.8679 68.7909 70.4076 59.6239 69.6033 58.6118C68.7989 57.5997 66.5773 57.2394 66.5773 57.2394Z" fill="#233862"/>
<path d="M20.7593 187.488L35.889 187.467C36.8379 187.462 37.7468 186.999 38.4171 186.178C39.0875 185.357 39.4647 184.246 39.4665 183.086L39.4588 175.074C39.4555 173.914 39.077 172.804 38.4058 171.984C37.7347 171.164 36.8254 170.702 35.8765 170.699L20.7468 170.721C19.7969 170.725 18.8868 171.188 18.2158 172.01C17.5447 172.832 17.1675 173.945 17.1664 175.105L17.1741 183.118C17.1781 184.277 17.5574 185.387 18.2292 186.206C18.9009 187.025 19.8105 187.485 20.7593 187.488Z" fill="#233862"/>
<path d="M36.9882 172.791C36.7028 172.184 36.3031 171.668 35.8222 171.287C35.3413 170.906 34.793 170.67 34.2227 170.6C34.1078 170.587 33.99 170.579 33.8713 170.579L30.8597 170.582V168.853C30.8592 168.468 30.7339 168.1 30.5112 167.829C30.2886 167.557 29.9868 167.405 29.6723 167.405H28.8871H25.7223H25.1526C24.8382 167.406 24.5369 167.56 24.3148 167.832C24.0928 168.104 23.9681 168.472 23.9681 168.856V170.586L18.7665 170.593C17.8141 170.597 16.9019 171.062 16.2292 171.886C15.5565 172.71 15.1781 173.826 15.1766 174.989L15.1852 183.095C15.189 184.259 15.5695 185.373 16.2436 186.195C16.9177 187.016 17.8306 187.479 18.7828 187.481L33.8885 187.461C34.1495 187.46 34.4097 187.425 34.6642 187.354C35.0585 187.247 35.4348 187.058 35.7769 186.795C36.2961 186.4 36.7246 185.85 37.0218 185.197C37.319 184.544 37.4752 183.81 37.4756 183.063L37.468 174.958C37.4659 174.197 37.3005 173.45 36.9882 172.791ZM24.7044 168.862C24.7045 168.747 24.7347 168.635 24.7907 168.542C24.8467 168.449 24.9255 168.38 25.0157 168.346C25.0581 168.33 25.1023 168.321 25.1468 168.32H25.8171H28.3068H29.6637C29.781 168.32 29.8935 168.377 29.9765 168.478C30.0596 168.579 30.1066 168.717 30.1071 168.86V170.589L24.7016 170.596L24.7044 168.862Z" fill="#2B478B"/>
<path d="M245.761 187.361H0.239394C0.10718 187.361 0 187.492 0 187.654V187.707C0 187.869 0.10718 188 0.239394 188H245.761C245.893 188 246 187.869 246 187.707V187.654C246 187.492 245.893 187.361 245.761 187.361Z" fill="#1C468A"/>
<path d="M158.556 67.4653C159.227 69.1302 160.316 71.0233 161.318 71.4C162.454 71.8282 162.976 72.57 162.976 72.57L163.801 71.8353L164.785 70.9566C164.785 70.9566 164.749 70.8174 164.677 70.5927C164.605 70.3681 164.501 70.0568 164.364 69.714C164.255 69.5625 164.178 69.3811 164.14 69.1852C164.101 68.9894 164.102 68.785 164.142 68.5897C164.284 67.9309 164.162 66.9516 163.774 66.4017C163.386 65.8518 162.936 64.4127 162.738 64.4876C162.259 64.6525 163.16 66.5819 162.982 66.9832C162.822 67.3471 162.574 67.2605 162.528 67.2406H162.52C161.083 66.6778 159.072 62.9116 158.379 63.5387C158.121 63.7715 158.268 66.7562 158.556 67.4653Z" fill="#FFB27D"/>
<path d="M186.578 63.3141C186.578 63.3141 179.868 75.8742 176.849 79.5644L164.608 69.7796C164.608 69.7796 162.941 70.5436 162.302 72.6824C162.302 72.6824 170.299 89.843 177.336 90.0688C184.373 90.2946 193.092 67.5987 193.092 67.5987L186.578 63.3141Z" fill="#1C04FC"/>
<path d="M210.576 187.795H215.672C216.313 187.369 216.884 186.391 217.065 184.943C217.314 182.937 219.153 181.845 219.555 180.204C219.956 178.564 217.914 176.257 217.914 176.257L217.573 175.72L217.218 175.163L213.838 176.135C213.838 176.135 213.754 177.119 213.703 178.372C213.659 179.326 213.654 180.282 213.689 181.237C213.784 183.424 213.188 185.779 211.597 186.205C210.416 186.519 210.468 187.372 210.576 187.795Z" fill="#233862"/>
<path d="M181.014 187.795H192.663C193.223 186.96 193.017 183.877 192.932 182.871C192.915 182.667 192.902 182.549 192.902 182.549C192.902 182.549 188.925 178.662 188.379 181.639C188.362 181.732 188.342 181.823 188.319 181.914C187.631 184.697 184.544 185.963 182.761 186.315C181.601 186.544 181.173 187.282 181.014 187.795Z" fill="#233862"/>
<path d="M183.234 108.347C183.234 108.347 183.838 117.555 184.548 128.623C185.513 143.659 186.674 162.128 186.788 165.626C186.987 171.702 187.782 181.421 187.782 181.421C187.782 181.421 189.671 183.73 193.45 182.756C193.45 182.756 196.818 168.883 197.779 154.208C197.795 153.967 197.809 153.725 197.824 153.482C198.719 138.54 200.111 107.075 200.111 107.075L183.234 108.347Z" fill="#22407A"/>
<path d="M183.234 108.347C183.234 108.347 183.838 117.555 184.548 128.623L197.779 154.202C197.795 153.961 197.809 153.719 197.824 153.476C198.719 138.534 200.111 107.069 200.111 107.069L183.234 108.347Z" fill="#233862"/>
<path d="M185.993 109.439C185.993 109.439 196.879 142.785 204.038 158.463C211.197 174.141 213.434 178.509 213.434 178.509C213.434 178.509 217.535 176.503 217.909 175.137C217.909 175.137 215.171 144.883 210.377 137.508C207.668 133.341 204.486 120.834 204.337 116.461C204.187 112.087 203.367 103.423 203.367 103.423L185.993 109.439Z" fill="#22407A"/>
<path d="M188.703 60.8266C192.957 62.4646 200.319 58.0396 200.319 58.0396C200.319 58.0396 196.393 54.443 196.602 46.9631L193.311 50.2029L191.077 52.4025C191.077 52.4025 191.086 53.6989 191.331 55.9722C191.395 56.5701 191.476 57.237 191.577 57.9613C190.483 58.6927 189.509 59.664 188.703 60.8266Z" fill="#FFB27D"/>
<path d="M191.077 52.4025C191.077 52.4025 191.086 53.6989 191.331 55.9722C193.806 55.4539 196.615 50.5644 196.615 50.5644C195.355 50.1187 194.251 50.0391 193.311 50.2029L191.077 52.4025Z" fill="#ED975D"/>
<path d="M189.776 52.2797C189.776 52.2797 196.804 53.706 197.463 48.345C198.123 42.984 199.474 39.5582 195.015 38.4209C190.555 37.2837 189.434 39.1686 188.86 40.892C188.285 42.6154 187.965 51.7696 189.776 52.2797Z" fill="#FFB27D"/>
<path d="M182.765 109.113C182.888 109.246 183.047 109.32 183.212 109.321C184.809 109.296 189.469 110.374 193.41 109.885C196.734 109.494 199.675 108.292 202.834 106.562C203.253 106.328 204.218 105.702 204.197 105.129C204.183 104.502 204.132 103.593 204.068 102.447C203.845 98.4636 203.455 91.6108 203.834 83.7062C203.903 82.2343 203.939 80.7741 203.943 79.3362C203.976 68.6224 202.237 59.1991 198.743 56.0097C198.445 55.7487 196.612 56.8427 194.929 57.8571C193.374 58.7931 191.819 58.8984 190.349 58.5345L188.88 60.1222C187.09 62.1522 185.13 64.9123 184.278 69.1021C183.553 72.6683 183.129 79.0987 182.893 85.7631C182.787 88.7829 182.701 91.8284 182.678 94.7184V94.8213C182.658 95.108 182.658 95.4215 182.658 95.707C182.572 103.126 182.658 109.009 182.765 109.113Z" fill="#1C04FC"/>
<path d="M204.068 102.448C203.845 98.4636 203.455 91.6108 203.834 83.7062C203.903 82.2344 203.939 80.7742 203.943 79.3362C202.488 75.0224 201.298 71.895 201.298 71.895H197.629C197.629 71.895 194.94 94.3405 204.068 102.448Z" fill="#040484"/>
<path d="M197.469 47.8289C197.469 47.8289 196.748 47.6815 196.864 46.4682C196.98 45.2549 196.979 43.6684 196.172 43.9644C195.364 44.2604 195.323 45.049 194.992 44.588C194.661 44.127 194.654 42.1836 192.251 42.0479C189.849 41.9122 188.871 42.9348 187.751 42.3345C186.63 41.7343 186.574 39.6669 186.574 39.6669C186.574 39.6669 186.892 40.4052 187.372 40.6404C187.372 40.6404 185.507 37.5246 187.666 35.3882C189.824 33.2517 192.025 34.6499 193.274 34.7423C196.026 34.9459 197.804 35.1483 198.703 37.3573C199.601 39.5663 199.235 45.7018 197.469 47.8289Z" fill="#233862"/>
<path d="M128.611 37.6276L135.218 42.6154L135.957 41.1529L129.35 36.1651C129.191 36.0454 129 36.0077 128.819 36.0601C128.637 36.1126 128.48 36.2509 128.382 36.4447C128.284 36.6387 128.253 36.8722 128.296 37.094C128.339 37.3158 128.452 37.5077 128.611 37.6276Z" fill="#233862"/>
<path d="M199.318 83.2862L197.547 88.5033L197.582 88.5302L197.498 88.6472L197.448 88.7923L197.414 88.7653L194.386 93.0336C194.386 93.0336 149.015 58.7861 131.97 41.202C131.706 40.9289 131.531 40.549 131.477 40.1315C131.423 39.714 131.494 39.2867 131.676 38.9275C131.858 38.5681 132.139 38.3004 132.468 38.1731C132.798 38.0457 133.154 38.0672 133.472 38.2337C153.963 49.0072 199.318 83.2862 199.318 83.2862Z" fill="#6BB7BF"/>
<path d="M132.661 38.1225C132.741 38.4477 132.896 38.7375 133.109 38.9568C150.153 56.5385 195.523 90.7883 195.523 90.7883L197.917 87.4128L197.547 88.5044L197.582 88.5314L197.498 88.6484L197.448 88.7934L197.414 88.7665L194.386 93.0347C194.386 93.0347 149.015 58.7873 131.97 41.2032C131.76 40.9862 131.605 40.7004 131.524 40.3796C131.443 40.0587 131.438 39.7161 131.51 39.3921C131.583 39.0681 131.73 38.7761 131.933 38.5506C132.137 38.3251 132.389 38.1753 132.661 38.119V38.1225Z" fill="#599DAD"/>
<path d="M241.718 125.056L233.866 119.124L236.068 114.776L243.92 120.708C244.392 121.064 244.728 121.635 244.856 122.295C244.983 122.954 244.891 123.649 244.599 124.225C244.455 124.511 244.265 124.759 244.042 124.956C243.819 125.152 243.567 125.293 243.299 125.37C243.032 125.447 242.754 125.459 242.483 125.405C242.212 125.351 241.952 125.232 241.718 125.056Z" fill="#233862"/>
<path d="M193.126 93.5156L228.79 120.453C230.073 121.422 231.619 121.728 233.087 121.305C234.554 120.882 235.825 119.763 236.618 118.196C237.411 116.628 237.661 114.74 237.315 112.947C236.969 111.153 236.053 109.601 234.77 108.632L199.106 81.695C198.996 81.6123 198.875 81.5568 198.748 81.5317C198.621 81.5065 198.491 81.5121 198.366 81.5481C198.241 81.5842 198.123 81.65 198.019 81.7419C197.914 81.8337 197.826 81.9498 197.758 82.0834L192.808 91.8682C192.671 92.1382 192.628 92.4634 192.687 92.7723C192.747 93.0813 192.905 93.3486 193.126 93.5156Z" fill="#6BB7BF"/>
<path d="M237.096 117.005C236.968 117.42 236.808 117.818 236.618 118.196C235.825 119.763 234.554 120.882 233.087 121.305C231.619 121.728 230.073 121.422 228.79 120.453L193.127 93.5156C192.906 93.3487 192.748 93.0813 192.688 92.7724C192.629 92.4634 192.672 92.1382 192.809 91.8682L193.431 90.6374L229.928 118.204C231.051 119.052 232.381 119.395 233.688 119.177C234.996 118.958 236.201 118.19 237.096 117.005Z" fill="#599DAD"/>
<path d="M204.076 83.8139L207.601 86.5529C207.954 88.047 208.95 89.6113 210.403 90.7403C211.857 91.8694 213.438 92.3082 214.695 92.066L235.757 108.433C237.168 109.533 238.164 111.271 238.527 113.267C238.891 115.263 238.591 117.354 237.695 119.08L235.684 122.953C235.594 123.099 235.529 123.266 235.494 123.444C235.459 123.621 235.455 123.806 235.482 123.986C235.508 124.166 235.565 124.337 235.648 124.489C235.732 124.64 235.84 124.769 235.966 124.867C236.092 124.965 236.234 125.03 236.382 125.058C236.53 125.086 236.681 125.076 236.825 125.029C236.97 124.982 237.105 124.899 237.222 124.785C237.339 124.671 237.435 124.528 237.504 124.367L239.515 120.494C240.719 118.175 241.121 115.368 240.633 112.688C240.146 110.008 238.807 107.674 236.913 106.197L205.234 81.5827C205.114 81.4895 204.98 81.4261 204.841 81.396C204.701 81.366 204.557 81.3699 204.418 81.4076C204.28 81.4453 204.148 81.5161 204.032 81.6157C203.916 81.7154 203.817 81.8421 203.74 81.9887C203.664 82.1352 203.612 82.2986 203.588 82.4696C203.563 82.6406 203.566 82.8159 203.597 82.9853C203.628 83.1548 203.686 83.3152 203.767 83.4574C203.849 83.5996 203.953 83.7207 204.073 83.8139H204.076Z" fill="#2B478B"/>
<path d="M193.354 92.5164L193.43 90.6374L197.749 82.101L191.675 90.4209L193.354 92.5164Z" fill="#599DAD"/>
<path d="M211.183 105.404C211.183 105.302 211.173 105.197 211.167 105.089C211.134 104.556 210.312 103.217 210.312 103.217L212.372 101.91L213.188 103.558C214.42 104.755 214.442 104.777 214.218 107.068C214.027 109.057 215.088 109.079 215.062 110.498C215.036 111.918 213.54 111.22 213.54 111.22C211.22 109.89 211.027 109.22 211.099 107.871C210.879 108.252 210.633 108.474 210.423 108.308C210.239 108.162 210.607 107.58 210.767 106.235C210.788 106.037 210.986 105.7 211.183 105.404Z" fill="#FFB27D"/>
<path d="M212.402 104.242C211.081 104.557 209.649 104.43 209.649 104.43C209.649 104.43 205.727 89.6265 205.223 88.274C204.718 86.9214 193.574 70.9168 193.574 70.9168L198.216 56.7211C198.216 56.7211 210.269 81.3229 211.494 84.7792C213.516 90.4912 214.218 103.298 214.218 103.298C213.669 103.756 213.052 104.077 212.402 104.242Z" fill="#1C04FC"/>
<path d="M158.263 65.3371C158.263 65.3371 158.153 63.1538 158.857 63.1538C159.561 63.1538 163.146 68.8108 163.146 68.8108L162.859 70.0276L158.263 65.3371Z" fill="#FFB27D"/>
</g>
<defs>
<clipPath id="clip0">
<rect width="246" height="188" fill="white"/>
</clipPath>
</defs>
</svg>
