<svg width="246" height="188" viewBox="0 0 246 188" fill="none" xmlns="http://www.w3.org/2000/svg">
<g clip-path="url(#clip0)">
<path fill-rule="evenodd" clip-rule="evenodd" d="M198.445 178.801C207.918 178.773 216.994 174.928 223.692 168.105C230.39 161.283 234.165 152.038 234.192 142.389C234.159 132.745 230.381 123.505 223.684 116.688C216.987 109.87 207.914 106.028 198.445 106C194.442 105.988 190.605 104.363 187.774 101.479C184.943 98.5952 183.347 94.6872 183.336 90.6089C183.347 86.53 184.943 82.6215 187.774 79.7368C190.605 76.8521 194.441 75.2255 198.445 75.2123H200.244C204.407 75.1991 208.397 73.509 211.341 70.5107C214.286 67.5125 215.946 63.4496 215.961 59.2088C215.946 54.9679 214.286 50.905 211.341 47.9068C208.397 44.9086 204.407 43.2184 200.244 43.2052H194.728C193.103 43.2008 191.547 42.5398 190.4 41.3674C189.253 40.195 188.609 38.607 188.611 36.9519C188.617 35.3011 189.263 33.7197 190.409 32.5524C191.555 31.3851 193.107 30.7267 194.728 30.7209H198.79C199.908 30.7165 200.979 30.2622 201.769 29.4569C202.56 28.6517 203.006 27.5608 203.01 26.4221C203.007 25.2824 202.562 24.1901 201.771 23.3836C200.98 22.5772 199.909 22.1221 198.79 22.1177H171.528C169.77 22.1118 168.086 21.3976 166.843 20.1309C165.601 18.8643 164.901 17.1482 164.896 15.3577C164.901 13.5662 165.601 11.8493 166.845 10.5825C168.089 9.31571 169.774 8.60208 171.533 8.59767H179.657C180.775 8.59473 181.847 8.14088 182.637 7.33533C183.428 6.52979 183.874 5.43808 183.877 4.29887C183.874 3.15966 183.428 2.06795 182.637 1.26241C181.847 0.456866 180.775 0.00301427 179.657 7.4361e-05H60.3137C58.8545 0.00447324 57.4563 0.596483 56.424 1.64696C55.3917 2.69743 54.8091 4.12112 54.8033 5.60744C54.8076 7.09473 55.3896 8.51985 56.422 9.57152C57.4545 10.6232 58.8536 11.216 60.3137 11.2204H68.6832C70.9775 11.2277 73.1758 12.1594 74.7982 13.8119C76.4205 15.4644 77.3352 17.7037 77.3424 20.0407C77.3352 22.3772 76.4204 24.6159 74.7979 26.2675C73.1753 27.9192 70.977 28.8496 68.6832 28.8555H36.3424C34.8822 28.8599 33.4832 29.4527 32.4507 30.5043C31.4182 31.556 30.8363 32.9811 30.832 34.4684C30.8363 35.9557 31.4182 37.3808 32.4507 38.4325C33.4832 39.4842 34.8822 40.0769 36.3424 40.0813H41.6286C43.7441 40.0872 45.7714 40.9455 47.2679 42.4687C48.7643 43.9919 49.6082 46.0563 49.6154 48.2112C49.6082 50.3661 48.7643 52.4305 47.2679 53.9537C45.7714 55.4769 43.7441 56.3352 41.6286 56.341H34.429C28.996 56.3572 23.7902 58.5632 19.9489 62.4769C16.1077 66.3906 13.9435 71.694 13.929 77.2281C13.9435 82.7622 16.1077 88.0655 19.9489 91.9792C23.7902 95.893 28.996 98.0989 34.429 98.1151H36.7797C42.0049 98.1298 47.0119 100.251 50.7067 104.014C54.4015 107.778 56.4835 112.878 56.498 118.2C56.485 123.524 54.4037 128.626 50.7089 132.392C47.0142 136.158 42.0063 138.28 36.7797 138.297H31.6957C26.4308 138.316 21.3871 140.455 17.6653 144.248C13.9434 148.042 11.8457 153.18 11.8298 158.543C11.8443 163.91 13.9434 169.054 17.6688 172.849C21.3942 176.645 26.4429 178.785 31.7121 178.801H198.445ZM46.2206 11.2204C45.131 11.2193 44.0662 10.8892 43.1607 10.2717C42.2552 9.6543 41.5498 8.77729 41.1336 7.75156C40.7174 6.72584 40.609 5.59744 40.8222 4.509C41.0355 3.42057 41.5607 2.42096 42.3316 1.63653C43.1025 0.852106 44.0843 0.318079 45.1531 0.101954C46.2218 -0.114172 47.3295 -0.00269274 48.3361 0.4223C49.3427 0.847293 50.203 1.56672 50.8082 2.48964C51.4135 3.41256 51.7365 4.49755 51.7365 5.60744C51.7365 7.09512 51.1567 8.52195 50.1245 9.57442C49.0923 10.6269 47.6921 11.2189 46.2316 11.2204H46.2206ZM210.631 30.7097C209.794 30.7108 208.977 30.4592 208.281 29.9866C207.585 29.5141 207.043 28.8419 206.722 28.0552C206.402 27.2684 206.318 26.4025 206.48 25.567C206.643 24.7315 207.046 23.964 207.637 23.3617C208.228 22.7594 208.982 22.3494 209.802 22.1835C210.622 22.0175 211.472 22.1033 212.245 22.4297C213.017 22.7562 213.677 23.3088 214.141 24.0175C214.605 24.7262 214.852 25.5592 214.851 26.4109C214.852 26.9759 214.743 27.5355 214.531 28.0577C214.319 28.5799 214.009 29.0545 213.617 29.4543C213.225 29.854 212.759 30.1712 212.247 30.3876C211.735 30.6039 211.185 30.7153 210.631 30.7153V30.7097Z" fill="#EBF4F4"/>
<path fill-rule="evenodd" clip-rule="evenodd" d="M19.9806 174.886V170.259H15.498L15.3722 170.075H30.2744V164.045H12.5624L12.5132 163.861H19.9806V157.83H11.8298C11.8298 157.769 11.8298 157.708 11.8298 157.647H30.2744V151.622H13.0161L13.0817 151.438H19.9806V145.407H16.5913L16.7498 145.224H30.2744V139.193H25.8354L26.4532 139.009H40.5681V137.896L40.7485 137.862V138.976H61.1556V132.979H50.0965L50.2878 132.795H50.8345V132.238L51.0149 132.049V132.806H71.422V126.77H54.6065L54.6885 126.586H61.1556V120.556H56.3613C56.3613 120.494 56.3613 120.433 56.3613 120.372H71.4274V114.352H56.1098C56.1098 114.291 56.1098 114.23 56.0716 114.169H61.1337V108.127H53.8193C53.7865 108.066 53.7537 108.004 53.7154 107.943H71.4493V101.918H51.0422V104.363L50.8618 104.179V101.918H48.287L48.0356 101.734H61.1556V95.7039H40.7485V98.5271L40.5681 98.4881V95.7039H24.9006L24.5672 95.5202H30.2744V89.4896H17.8432L17.712 89.3058H19.9642V83.2753H14.8092C14.8092 83.2196 14.7764 83.1528 14.7545 83.0915H30.2744V77.0443H13.929V76.8605H19.9806V70.8522H14.913C14.913 70.791 14.9513 70.7297 14.9677 70.6684H30.2744V64.6379H18.1001L18.2368 64.4541H19.9806V62.4439L20.161 62.2657V64.4541H40.5681V58.4236H25.5293L25.912 58.2454H30.2853V56.7753L30.4657 56.7419V58.2454H50.8618V52.2148H48.5713L48.6697 52.031H61.1556V46.0005H49.3093L49.2601 45.8167H50.8618V39.7861H34.5876C34.4303 39.7365 34.2768 39.6751 34.1284 39.6024H40.5681V33.5774H30.903C30.903 33.5106 30.914 33.4493 30.9358 33.3936H50.8618V28.8554H51.0422V33.3936H71.4493V28.3821L71.6297 28.3208V33.3881H92.0313V27.3631H73.4829L73.7398 27.1793H81.7376V21.1487H77.2604C77.2604 21.0875 77.2604 21.0262 77.2604 20.965H92.0204V14.9344H75.7242L75.5876 14.7507H81.7376V8.72567H61.336V11.2203H61.1556V8.72567H55.7381L55.6233 8.54191H71.4766V2.51135H55.7272L55.8529 2.32759H61.1556V0H61.336V2.32759H81.7376V0H81.918V2.32759H102.325V0H102.505V2.32759H122.912V0H123.093V2.32759H143.495V0H143.675V2.32759H164.082V0H164.262V2.32759H183.423C183.456 2.38884 183.483 2.45009 183.51 2.51135H174.556V8.55305H180.373C180.143 8.59139 179.911 8.61002 179.678 8.60873H171.528C171.104 8.60886 170.681 8.65176 170.265 8.73681H164.251V14.7618H164.896C164.896 14.8231 164.896 14.8843 164.896 14.9456H153.963V20.9761H167.832L168.116 21.1599H164.257V27.1905H184.664V22.1232H184.844V27.1905H202.934C202.934 27.2517 202.934 27.313 202.895 27.3742H195.144V30.7152H194.963V27.3742H174.556V33.4048H189.71C189.671 33.4605 189.628 33.5217 189.589 33.5885H184.85V39.6135H189.223C189.251 39.6748 189.278 39.736 189.311 39.7973H174.556V45.8279H194.963V43.1884H195.144V45.8279H208.859L209.127 46.0116H205.432V52.0422H214.293L214.381 52.2259H195.144V58.2565H215.545V55.5558C215.616 55.851 215.676 56.1517 215.726 56.4523V58.2565H215.933C215.933 58.3122 215.933 58.3734 215.933 58.4347H205.432V64.4653H215.075C215.075 64.5265 215.037 64.5878 215.015 64.649H195.144V70.6796H211.161L210.975 70.8633H205.432V74.299L205.251 74.3603V70.8633H184.85V76.8939H191.579C191.465 76.9496 191.355 77.0108 191.24 77.0777H174.556V83.1027H185.26C185.222 83.1639 185.189 83.2252 185.156 83.2864H184.85V83.8989C184.784 84.027 184.724 84.1607 184.669 84.2887V83.2864H164.262V89.2947H183.396C183.396 89.356 183.396 89.4172 183.396 89.4785H174.556V95.509H184.134L184.199 95.6928H164.262V101.723H184.669V96.8789C184.724 97.0125 184.784 97.1406 184.85 97.2686V101.723H188.053L188.245 101.907H174.578V107.932H194.963V105.549L195.144 105.593V107.932H210.007L210.516 108.116H205.432V114.146H220.952L221.176 114.33H215.737V120.361H226.872L227.014 120.545H226.03V126.603H230.639L230.721 126.787H215.737V132.812H232.935L232.984 132.995H226.019V139.026H234.033V139.21H215.737V145.24H234.094V145.424H226.019V151.438H233.066C233.066 151.499 233.033 151.56 233.022 151.622H215.737V157.647H230.879C230.852 157.708 230.825 157.769 230.792 157.83H226.019V163.861H227.266L227.135 164.045H215.737V170.075H221.608L221.395 170.259H205.432V176.29H211.445L210.975 176.468H195.122V178.801H194.963V176.468H174.556V178.801H174.376V176.468H153.963V178.801H153.783V176.468H133.387V178.801H133.19V176.468H112.799V178.801H112.619V176.468H92.1898V178.801H92.0094V176.468H71.6297V178.801H71.4493V176.468H51.0422V178.801H50.8618V176.468H30.4548V178.756H30.2744V176.479H22.468L22.1345 176.301H40.5681V170.259H20.161V175.048L19.9806 174.914V174.886ZM50.8017 8.72567C50.8892 8.59203 50.9657 8.45838 51.0422 8.32474V2.89556C50.9876 2.79533 50.9274 2.68953 50.8618 2.5893V8.55305H41.5193L41.6341 8.73681L50.8017 8.72567ZM50.8017 2.51135L50.676 2.32759H41.7489L41.6232 2.51135H50.8017ZM206.503 27.3631H214.753L214.785 27.1793H206.476C206.476 27.2406 206.476 27.3018 206.514 27.3631H206.503ZM205.251 170.259H184.85V176.29H205.251V170.259ZM184.669 170.259H164.262V176.29H184.669V170.259ZM164.082 170.259H143.675V176.29H164.082V170.259ZM143.495 170.259H123.093V176.29H143.495V170.259ZM122.912 170.259H102.505V176.29H122.912V170.259ZM102.325 170.259H81.918V176.29H102.325V170.259ZM81.7376 170.259H61.336V176.29H81.7376V170.259ZM61.1556 170.259H40.7485V176.29H61.1556V170.259ZM215.545 164.045H195.144V170.075H215.545V164.045ZM194.963 164.045H174.556V170.075H194.963V164.045ZM174.376 164.045H153.963V170.075H174.37V164.045H174.376ZM153.788 164.045H133.387V170.075H153.788V164.045ZM133.206 164.045H112.799V170.075H133.19V164.045H133.206ZM112.619 164.045H92.1898V170.075H112.597V164.045H112.619ZM92.0313 164.045H71.6297V170.075H92.0313V164.045ZM71.4493 164.045H51.0422V170.075H71.4493V164.045ZM50.8618 164.045H30.4548V170.075H50.8618V164.045ZM225.839 157.83H205.432V163.861H225.839V157.83ZM205.251 157.83H184.85V163.861H205.251V157.83ZM184.669 157.83H164.262V163.861H184.669V157.83ZM164.082 157.83H143.675V163.861H164.082V157.83ZM143.495 157.83H123.093V163.861H143.495V157.83ZM122.912 157.83H102.505V163.861H122.912V157.83ZM102.325 157.83H81.918V163.861H102.325V157.83ZM81.7376 157.83H61.336V163.861H81.7376V157.83ZM61.1556 157.83H40.7485V163.861H61.1556V157.83ZM40.5681 157.83H20.161V163.861H40.5681V157.83ZM215.545 151.622H195.144V157.647H215.545V151.622ZM194.963 151.622H174.556V157.647H194.963V151.622ZM174.376 151.622H153.963V157.647H174.37V151.622H174.376ZM153.788 151.622H133.387V157.647H153.788V151.622ZM133.206 151.622H112.799V157.647H133.19V151.622H133.206ZM112.619 151.622H92.1898V157.647H112.597V151.622H112.619ZM92.0313 151.622H71.6297V157.647H92.0313V151.622ZM71.4493 151.622H51.0422V157.647H71.4493V151.622ZM50.8618 151.622H30.4548V157.647H50.8618V151.622ZM225.839 145.407H205.432V151.438H225.839V145.407ZM205.251 145.407H184.85V151.438H205.251V145.407ZM184.669 145.407H164.262V151.438H184.669V145.407ZM164.082 145.407H143.675V151.438H164.082V145.407ZM143.495 145.407H123.093V151.438H143.495V145.407ZM122.912 145.407H102.505V151.438H122.912V145.407ZM102.325 145.407H81.918V151.438H102.325V145.407ZM81.7376 145.407H61.336V151.438H81.7376V145.407ZM61.1556 145.407H40.7485V151.438H61.1556V145.407ZM40.5681 145.407H20.161V151.438H40.5681V145.407ZM215.545 139.193H195.144V145.224H215.545V139.193ZM194.963 139.193H174.556V145.224H194.963V139.193ZM174.376 139.193H153.963V145.224H174.37V139.193H174.376ZM153.788 139.193H133.387V145.224H153.788V139.193ZM133.206 139.193H112.799V145.224H133.19V139.193H133.206ZM112.619 139.193H92.1898V145.224H112.597V139.193H112.619ZM92.0313 139.193H71.6297V145.224H92.0313V139.193ZM71.4493 139.193H51.0422V145.224H71.4493V139.193ZM50.8618 139.193H30.4548V145.224H50.8618V139.193ZM225.839 132.979H205.432V139.009H225.839V132.979ZM205.251 132.979H184.85V139.009H205.251V132.979ZM184.669 132.979H164.262V139.009H184.669V132.979ZM164.082 132.979H143.675V139.009H164.082V132.979ZM143.495 132.979H123.093V139.009H143.495V132.979ZM122.912 132.979H102.505V139.009H122.912V132.979ZM102.325 132.979H81.918V139.009H102.325V132.979ZM81.7376 132.979H61.336V139.009H81.7376V132.979ZM215.545 126.77H195.144V132.795H215.545V126.77ZM194.963 126.77H174.556V132.795H194.963V126.77ZM174.376 126.77H153.963V132.795H174.37V126.77H174.376ZM153.788 126.77H133.387V132.795H153.788V126.77ZM133.206 126.77H112.799V132.795H133.19V126.77H133.206ZM112.619 126.77H92.1898V132.795H112.597V126.77H112.619ZM92.0313 126.77H71.6297V132.795H92.0313V126.77ZM225.839 120.556H205.432V126.603H225.839V120.556ZM205.251 120.556H184.85V126.603H205.251V120.556ZM184.669 120.556H164.262V126.603H184.669V120.556ZM164.082 120.556H143.675V126.603H164.082V120.556ZM143.495 120.556H123.093V126.603H143.495V120.556ZM122.912 120.556H102.505V126.603H122.912V120.556ZM102.325 120.556H81.918V126.603H102.325V120.556ZM81.7376 120.556H61.336V126.603H81.7376V120.556ZM215.545 114.352H195.144V120.383H215.545V114.352ZM194.963 114.352H174.556V120.383H194.963V114.352ZM174.376 114.352H153.963V120.383H174.37V114.352H174.376ZM153.788 114.352H133.387V120.383H153.788V114.352ZM133.19 114.352H112.799V120.383H133.19V114.352ZM112.602 114.352H92.1898V120.383H112.597V114.352H112.602ZM92.0149 114.352H71.6297V120.383H92.0313V114.352H92.0149ZM205.235 108.138H184.85V114.169H205.251V108.127L205.235 108.138ZM184.653 108.138H164.262V114.169H184.669V108.127L184.653 108.138ZM164.066 108.138H143.675V114.169H164.082V108.127L164.066 108.138ZM143.478 108.138H123.093V114.169H143.495V108.127L143.478 108.138ZM122.896 108.138H102.505V114.169H122.912V108.127L122.896 108.138ZM102.309 108.138H81.918V114.169H102.325V108.127L102.309 108.138ZM81.7212 108.138H61.336V114.169H81.7376V108.127L81.7212 108.138ZM174.359 101.929H153.963V107.954H174.37V101.918L174.359 101.929ZM153.772 101.929H133.387V107.954H153.788V101.918L153.772 101.929ZM133.19 101.929H112.799V107.954H133.19V101.918V101.929ZM112.602 101.929H92.1898V107.954H112.597V101.918L112.602 101.929ZM92.0149 101.929H71.6297V107.954H92.0313V101.918L92.0149 101.929ZM164.066 95.7151H143.675V101.746H164.082V95.7039L164.066 95.7151ZM143.478 95.7151H123.093V101.746H143.495V95.7039L143.478 95.7151ZM122.896 95.7151H102.505V101.746H122.912V95.7039L122.896 95.7151ZM102.309 95.7151H81.918V101.746H102.325V95.7039L102.309 95.7151ZM81.7212 95.7151H61.336V101.746H81.7376V95.7039L81.7212 95.7151ZM174.359 89.5007H153.963V95.5313H174.37V89.4896L174.359 89.5007ZM153.772 89.5007H133.387V95.5313H153.788V89.4896L153.772 89.5007ZM133.19 89.5007H112.799V95.5313H133.19V89.4896V89.5007ZM112.602 89.5007H92.1898V95.5313H112.597V89.4896L112.602 89.5007ZM92.0149 89.5007H71.6297V95.5313H92.0313V89.4896L92.0149 89.5007ZM71.4329 89.5007H51.0422V95.5313H71.4493V89.4896L71.4329 89.5007ZM50.8454 89.5007H30.4548V95.5313H50.8618V89.4896L50.8454 89.5007ZM164.066 83.2864H143.675V89.2947H164.082V83.2753L164.066 83.2864ZM143.478 83.2864H123.093V89.2947H143.495V83.2753L143.478 83.2864ZM122.896 83.2864H102.505V89.2947H122.912V83.2753L122.896 83.2864ZM102.309 83.2864H81.918V89.2947H102.325V83.2753L102.309 83.2864ZM81.7212 83.2864H61.336V89.2947H81.7376V83.2753L81.7212 83.2864ZM61.1392 83.2864H40.7485V89.2947H61.1556V83.2753L61.1392 83.2864ZM40.5517 83.2864H20.161V89.2947H40.5681V83.2753L40.5517 83.2864ZM174.376 77.0443H153.963V83.0693H174.37V77.0443H174.376ZM153.788 77.0443H133.387V83.0693H153.788V77.0443ZM133.19 77.0443H112.799V83.0693H133.19V77.0443ZM112.602 77.0443H92.1898V83.0693H112.597V77.0443H112.602ZM92.0149 77.0443H71.6297V83.0693H92.0313V77.0443H92.0149ZM71.4329 77.0443H51.0422V83.0693H71.4493V77.0443H71.4329ZM50.8454 77.0443H30.4548V83.0693H50.8618V77.0443H50.8454ZM184.653 70.8299H164.262V76.8605H184.669V70.8522L184.653 70.8299ZM164.066 70.8299H143.675V76.8605H164.082V70.8522L164.066 70.8299ZM143.478 70.8299H123.093V76.8605H143.495V70.8522L143.478 70.8299ZM122.896 70.8299H102.505V76.8605H122.912V70.8522L122.896 70.8299ZM102.309 70.8299H81.918V76.8605H102.325V70.8522L102.309 70.8299ZM81.7212 70.8299H61.336V76.8605H81.7376V70.8522L81.7212 70.8299ZM61.1392 70.8299H40.7485V76.8605H61.1556V70.8522L61.1392 70.8299ZM40.5517 70.8299H20.161V76.8605H40.5681V70.8522L40.5517 70.8299ZM194.963 64.6379H174.556V70.6684H194.963V64.6379ZM174.376 64.6379H153.963V70.6684H174.37V64.6379H174.376ZM153.788 64.6379H133.387V70.6684H153.788V64.6379ZM133.206 64.6379H112.799V70.6684H133.19V64.6379H133.206ZM112.619 64.6379H92.1898V70.6684H112.597V64.6379H112.619ZM92.0313 64.6379H71.6297V70.6684H92.0313V64.6379ZM71.4493 64.6379H51.0422V70.6684H71.4493V64.6379ZM50.8618 64.6379H30.4548V70.6684H50.8618V64.6379ZM205.251 58.4236H184.85V64.4541H205.251V58.4236ZM184.669 58.4236H164.262V64.4541H184.669V58.4236ZM164.082 58.4236H143.675V64.4541H164.082V58.4236ZM143.495 58.4236H123.093V64.4541H143.495V58.4236ZM122.912 58.4236H102.505V64.4541H122.912V58.4236ZM102.325 58.4236H81.918V64.4541H102.325V58.4236ZM81.7376 58.4236H61.336V64.4541H81.7376V58.4236ZM61.1556 58.4236H40.7485V64.4541H61.1556V58.4236ZM194.963 52.2148H174.556V58.2454H194.963V52.2148ZM174.376 52.2148H153.963V58.2454H174.37V52.2148H174.376ZM153.788 52.2148H133.387V58.2454H153.788V52.2148ZM133.206 52.2148H112.799V58.2454H133.19V52.2148H133.206ZM112.619 52.2148H92.1898V58.2454H112.597V52.2148H112.619ZM92.0313 52.2148H71.6297V58.2454H92.0313V52.2148ZM71.4493 52.2148H51.0422V58.2454H71.4493V52.2148ZM205.251 46.0005H184.85V52.031H205.251V46.0005ZM184.669 46.0005H164.262V52.031H184.669V46.0005ZM164.082 46.0005H143.675V52.031H164.082V46.0005ZM143.495 46.0005H123.093V52.031H143.495V46.0005ZM122.912 46.0005H102.505V52.031H122.912V46.0005ZM102.325 46.0005H81.918V52.031H102.325V46.0005ZM81.7376 46.0005H61.336V52.031H81.7376V46.0005ZM174.376 39.7861H153.963V45.8167H174.37V39.7861H174.376ZM153.788 39.7861H133.387V45.8167H153.788V39.7861ZM133.206 39.7861H112.799V45.8167H133.19V39.7861H133.206ZM112.619 39.7861H92.1898V45.8167H112.597V39.7861H112.619ZM92.0313 39.7861H71.6297V45.8167H92.0313V39.7861ZM71.4493 39.7861H51.0422V45.8167H71.4493V39.7861ZM184.669 33.5774H164.262V39.6024H184.669V33.5774ZM164.082 33.5774H143.675V39.6024H164.082V33.5774ZM143.495 33.5774H123.093V39.6024H143.495V33.5774ZM122.912 33.5774H102.505V39.6024H122.912V33.5774ZM102.325 33.5774H81.918V39.6024H102.325V33.5774ZM81.7376 33.5774H61.336V39.6024H81.7376V33.5774ZM61.1556 33.5774H40.7485V39.6024H61.1556V33.5774ZM174.376 27.3631H153.963V33.3936H174.37V27.3631H174.376ZM153.788 27.3631H133.387V33.3936H153.788V27.3631ZM133.206 27.3631H112.799V33.3936H133.19V27.3631H133.206ZM112.619 27.3631H92.1898V33.3936H112.597V27.3631H112.619ZM164.082 21.1487H143.675V27.1793H164.082V21.1487ZM143.495 21.1487H123.093V27.1793H143.495V21.1487ZM122.912 21.1487H102.505V27.1793H122.912V21.1487ZM102.325 21.1487H81.918V27.1793H102.325V21.1487ZM153.788 14.9344H133.387V20.965H153.788V14.9344ZM133.206 14.9344H112.799V20.965H133.19V14.9344H133.206ZM112.619 14.9344H92.1898V20.965H112.597V14.9344H112.619ZM164.082 8.72567H143.675V14.7507H164.082V8.72567ZM143.495 8.72567H123.093V14.7507H143.495V8.72567ZM122.912 8.72567H102.505V14.7507H122.912V8.72567ZM102.325 8.72567H81.918V14.7507H102.325V8.72567ZM174.376 2.51135H153.963V8.55305H174.37V2.51135H174.376ZM153.788 2.51135H133.387V8.55305H153.788V2.51135ZM133.206 2.51135H112.799V8.55305H133.19V2.51135H133.206ZM112.619 2.51135H92.1898V8.55305H112.597V2.51135H112.619ZM92.0313 2.51135H71.6297V8.55305H92.0313V2.51135Z" fill="#C8DEE1"/>
<path d="M73.8 58.3454C73.9218 58.3454 74.0386 58.3947 74.1247 58.4824C74.2108 58.5701 74.2592 58.6891 74.2592 58.8132V59.6985C74.2592 59.8241 74.2102 59.9444 74.1231 60.0332C74.0359 60.122 73.9177 60.1718 73.7945 60.1718C73.6713 60.1718 73.5531 60.122 73.4659 60.0332C73.3788 59.9444 73.3298 59.8241 73.3298 59.6985V58.8132C73.3298 58.7508 73.342 58.689 73.3658 58.6315C73.3896 58.5741 73.4244 58.522 73.4682 58.4784C73.512 58.4348 73.5639 58.4006 73.6209 58.3778C73.6779 58.3549 73.7388 58.3439 73.8 58.3454Z" fill="#ABC4C8"/>
<path d="M73.8 60.4728C73.9233 60.4728 74.0415 60.5227 74.1286 60.6115C74.2158 60.7002 74.2647 60.8206 74.2647 60.9461V61.8092C74.2647 61.8707 74.2528 61.9315 74.2298 61.9882C74.2067 62.045 74.1729 62.0965 74.1302 62.14C74.0876 62.1834 74.0369 62.2179 73.9812 62.2414C73.9255 62.2649 73.8658 62.277 73.8055 62.277C73.6837 62.277 73.5669 62.2277 73.4808 62.14C73.3947 62.0523 73.3463 61.9333 73.3463 61.8092V60.9239C73.3518 60.8041 73.4017 60.691 73.4859 60.6073C73.5701 60.5236 73.6824 60.4755 73.8 60.4728Z" fill="#ABC4C8"/>
<path d="M73.8 62.572C73.9233 62.572 74.0415 62.6219 74.1286 62.7106C74.2158 62.7994 74.2647 62.9198 74.2647 63.0453V63.9307C74.2647 63.9921 74.2528 64.053 74.2298 64.1097C74.2067 64.1665 74.1729 64.218 74.1302 64.2615C74.0876 64.3049 74.0369 64.3393 73.9812 64.3629C73.9255 64.3864 73.8658 64.3985 73.8055 64.3985C73.7452 64.3985 73.6855 64.3864 73.6298 64.3629C73.5741 64.3393 73.5235 64.3049 73.4808 64.2615C73.4382 64.218 73.4043 64.1665 73.3813 64.1097C73.3582 64.053 73.3463 63.9921 73.3463 63.9307V63.0453C73.3463 62.9217 73.3937 62.803 73.4785 62.7145C73.5633 62.6261 73.6787 62.5749 73.8 62.572Z" fill="#ABC4C8"/>
<path d="M73.8 64.6657C73.9218 64.6657 74.0385 64.715 74.1247 64.8027C74.2108 64.8904 74.2592 65.0094 74.2592 65.1334V66.0188C74.2592 66.1428 74.2108 66.2618 74.1247 66.3495C74.0385 66.4373 73.9218 66.4865 73.8 66.4865C73.6767 66.4865 73.5586 66.4367 73.4714 66.3479C73.3843 66.2591 73.3353 66.1388 73.3353 66.0132V65.1501C73.3331 65.0868 73.3435 65.0238 73.3659 64.9647C73.3884 64.9056 73.4223 64.8518 73.4658 64.8065C73.5092 64.7612 73.5612 64.7254 73.6187 64.7012C73.6761 64.677 73.7378 64.6649 73.8 64.6657Z" fill="#ABC4C8"/>
<path d="M73.8 66.765C73.9233 66.765 74.0415 66.8149 74.1286 66.9036C74.2158 66.9924 74.2647 67.1128 74.2647 67.2383V68.1237C74.2647 68.1851 74.2528 68.2459 74.2298 68.3027C74.2067 68.3594 74.1729 68.411 74.1302 68.4544C74.0876 68.4979 74.0369 68.5323 73.9812 68.5558C73.9255 68.5793 73.8658 68.5914 73.8055 68.5914C73.6837 68.5914 73.5669 68.5422 73.4808 68.4544C73.3947 68.3667 73.3463 68.2478 73.3463 68.1237V67.2383C73.3463 67.1128 73.3953 66.9924 73.4824 66.9036C73.5696 66.8149 73.6877 66.765 73.811 66.765H73.8Z" fill="#ABC4C8"/>
<path d="M73.7999 68.8644C73.9217 68.8644 74.0385 68.9137 74.1246 69.0014C74.2107 69.0891 74.2591 69.2081 74.2591 69.3321V70.2175C74.2591 70.3416 74.2107 70.4605 74.1246 70.5483C74.0385 70.636 73.9217 70.6853 73.7999 70.6853C73.6767 70.6853 73.5585 70.6354 73.4713 70.5466C73.3842 70.4579 73.3352 70.3375 73.3352 70.2119V69.3266C73.3381 69.203 73.3883 69.0854 73.4751 68.9991C73.562 68.9127 73.6785 68.8643 73.7999 68.8644Z" fill="#ABC4C8"/>
<path d="M73.7782 70.9636H73.7727C73.5191 70.9636 73.3135 71.173 73.3135 71.4313V72.3223C73.3135 72.5806 73.5191 72.79 73.7727 72.79H73.7782C74.0318 72.79 74.2374 72.5806 74.2374 72.3223V71.4313C74.2374 71.173 74.0318 70.9636 73.7782 70.9636Z" fill="#ABC4C8"/>
<path d="M73.8 73.0573C73.9233 73.0573 74.0415 73.1071 74.1286 73.1959C74.2158 73.2847 74.2647 73.405 74.2647 73.5306V74.4159C74.2647 74.4774 74.2528 74.5382 74.2298 74.5949C74.2067 74.6517 74.1729 74.7032 74.1302 74.7467C74.0876 74.7901 74.0369 74.8246 73.9812 74.8481C73.9255 74.8716 73.8658 74.8837 73.8055 74.8837C73.6837 74.8837 73.5669 74.8344 73.4808 74.7467C73.3947 74.659 73.3463 74.54 73.3463 74.4159V73.5027C73.3463 73.3772 73.3953 73.2568 73.4824 73.1681C73.5696 73.0793 73.6877 73.0294 73.811 73.0294L73.8 73.0573Z" fill="#ABC4C8"/>
<path fill-rule="evenodd" clip-rule="evenodd" d="M74.0843 74.3158C74.176 74.3209 74.264 74.3539 74.3371 74.4104C74.4102 74.467 74.4649 74.5446 74.4943 74.6332L75.6259 78.2638C75.6418 78.2993 75.6485 78.3384 75.6454 78.3773C75.6423 78.4162 75.6294 78.4537 75.608 78.4861C75.5866 78.5184 75.5575 78.5447 75.5233 78.5624C75.4891 78.58 75.451 78.5884 75.4127 78.5868H72.1327C72.0944 78.5884 72.0563 78.58 72.0221 78.5624C71.9879 78.5447 71.9588 78.5184 71.9374 78.4861C71.916 78.4537 71.9031 78.4162 71.9 78.3773C71.8969 78.3384 71.9036 78.2993 71.9195 78.2638L73.0456 74.6332C73.0756 74.545 73.1306 74.4678 73.2035 74.4113C73.2765 74.3549 73.3642 74.3216 73.4556 74.3158H74.0843Z" fill="white"/>
<path d="M83.7219 60.5673H82.5083C82.2155 60.5673 81.9781 60.8091 81.9781 61.1075V173.99C81.9781 174.288 82.2155 174.53 82.5083 174.53H83.7219C84.0148 174.53 84.2522 174.288 84.2522 173.99V61.1075C84.2522 60.8091 84.0148 60.5673 83.7219 60.5673Z" fill="#7A9297"/>
<path d="M84.7935 50.7783H81.4315C80.6285 50.7783 79.9774 51.4414 79.9774 52.2594V61.8482C79.9774 62.6662 80.6285 63.3294 81.4315 63.3294H84.7935C85.5966 63.3294 86.2477 62.6662 86.2477 61.8482V52.2594C86.2477 51.4414 85.5966 50.7783 84.7935 50.7783Z" fill="#7A9297"/>
<path d="M84.7935 169.736H81.4315C80.6285 169.736 79.9774 170.399 79.9774 171.217V177.838C79.9774 178.656 80.6285 179.319 81.4315 179.319H84.7935C85.5966 179.319 86.2477 178.656 86.2477 177.838V171.217C86.2477 170.399 85.5966 169.736 84.7935 169.736Z" fill="#7A9297"/>
<path fill-rule="evenodd" clip-rule="evenodd" d="M89.5057 180.059H76.7247C76.3931 180.058 76.0755 179.923 75.8411 179.684C75.6066 179.445 75.4742 179.122 75.4728 178.784C75.4742 178.447 75.6066 178.123 75.8411 177.884C76.0755 177.645 76.3931 177.511 76.7247 177.509H89.5057C89.8373 177.511 90.1549 177.645 90.3894 177.884C90.6238 178.123 90.7562 178.447 90.7576 178.784C90.7562 179.122 90.6238 179.445 90.3894 179.684C90.1549 179.923 89.8373 180.058 89.5057 180.059Z" fill="#7A9297"/>
<path fill-rule="evenodd" clip-rule="evenodd" d="M83.1152 36.3004H89.0247C89.5107 36.3267 89.9781 36.4995 90.3674 36.7969C90.7568 37.0944 91.0505 37.503 91.2114 37.9709L97.1646 57.1318C97.2465 57.3174 97.2801 57.5215 97.2622 57.7242C97.2443 57.9269 97.1755 58.1216 97.0624 58.2894C96.9493 58.4572 96.7957 58.5925 96.6163 58.6824C96.437 58.7722 96.238 58.8135 96.0384 58.8023H70.2139C70.0144 58.8135 69.8153 58.7722 69.636 58.6824C69.4567 58.5925 69.303 58.4572 69.1899 58.2894C69.0768 58.1216 69.008 57.9269 68.9901 57.7242C68.9722 57.5215 69.0058 57.3174 69.0878 57.1318L75.041 37.9709C75.2018 37.503 75.4955 37.0944 75.8849 36.7969C76.2742 36.4995 76.7416 36.3267 77.2276 36.3004H83.1152Z" fill="white"/>
<path fill-rule="evenodd" clip-rule="evenodd" d="M94.5405 48.7513L95.2183 50.9397H71.0119L71.6898 48.7513H94.5405ZM95.6338 52.2594L96.995 56.6306H69.2298L70.591 52.2594H95.6338Z" fill="#C8DEE1"/>
<path d="M73.7782 60.5842C73.9201 60.5842 74.0351 60.467 74.0351 60.3225C74.0351 60.1779 73.9201 60.0607 73.7782 60.0607C73.6363 60.0607 73.5212 60.1779 73.5212 60.3225C73.5212 60.467 73.6363 60.5842 73.7782 60.5842Z" fill="#7A9297"/>
<path fill-rule="evenodd" clip-rule="evenodd" d="M73.7782 62.6778C73.8463 62.6778 73.9117 62.6502 73.9598 62.6011C74.008 62.552 74.0351 62.4855 74.0351 62.4161C74.0351 62.3467 74.008 62.2801 73.9598 62.231C73.9117 62.1819 73.8463 62.1544 73.7782 62.1544C73.71 62.1544 73.6447 62.1819 73.5965 62.231C73.5483 62.2801 73.5212 62.3467 73.5212 62.4161C73.5212 62.4855 73.5483 62.552 73.5965 62.6011C73.6447 62.6502 73.71 62.6778 73.7782 62.6778Z" fill="#7A9297"/>
<path fill-rule="evenodd" clip-rule="evenodd" d="M73.7782 64.7937C73.8463 64.7937 73.9116 64.7661 73.9598 64.7171C74.008 64.668 74.0351 64.6014 74.0351 64.532C74.0351 64.4621 74.0082 64.3949 73.9602 64.3449C73.9121 64.295 73.8468 64.2662 73.7782 64.2647C73.709 64.2661 73.6431 64.2948 73.5941 64.3446C73.5452 64.3944 73.5171 64.4616 73.5157 64.532C73.5172 64.6019 73.5455 64.6685 73.5945 64.7174C73.6436 64.7663 73.7095 64.7937 73.7782 64.7937Z" fill="#7A9297"/>
<path fill-rule="evenodd" clip-rule="evenodd" d="M73.7782 66.8764C73.8506 66.8764 73.9202 66.8471 73.9714 66.7949C74.0227 66.7427 74.0515 66.6719 74.0515 66.598C74.0515 66.5242 74.0227 66.4534 73.9714 66.4012C73.9202 66.349 73.8506 66.3196 73.7782 66.3196C73.7057 66.3196 73.6361 66.349 73.5849 66.4012C73.5336 66.4534 73.5048 66.5242 73.5048 66.598C73.5048 66.6719 73.5336 66.7427 73.5849 66.7949C73.6361 66.8471 73.7057 66.8764 73.7782 66.8764Z" fill="#7A9297"/>
<path d="M73.7782 68.9756C73.9201 68.9756 74.0351 68.8585 74.0351 68.7139C74.0351 68.5694 73.9201 68.4522 73.7782 68.4522C73.6363 68.4522 73.5212 68.5694 73.5212 68.7139C73.5212 68.8585 73.6363 68.9756 73.7782 68.9756Z" fill="#7A9297"/>
<path d="M73.7782 71.0693C73.9201 71.0693 74.0351 70.9521 74.0351 70.8076C74.0351 70.6631 73.9201 70.5459 73.7782 70.5459C73.6363 70.5459 73.5212 70.6631 73.5212 70.8076C73.5212 70.9521 73.6363 71.0693 73.7782 71.0693Z" fill="#7A9297"/>
<path d="M73.7782 73.1687C73.9201 73.1687 74.0351 73.0515 74.0351 72.907C74.0351 72.7624 73.9201 72.6453 73.7782 72.6453C73.6363 72.6453 73.5212 72.7624 73.5212 72.907C73.5212 73.0515 73.6363 73.1687 73.7782 73.1687Z" fill="#7A9297"/>
<path fill-rule="evenodd" clip-rule="evenodd" d="M127.455 97.987H133.737C136.535 97.987 138.449 97.046 140.843 92.8195C143.238 88.5931 146.266 83.2531 146.266 83.2531C146.266 83.2531 148.333 79.8007 153.624 79.8007H169.505C171.544 79.8007 175.551 80.1125 176.912 83.4257C178.273 86.7389 183.527 99.7355 183.527 99.7355L173.512 100.521L163.902 117.137C163.902 117.137 150.683 118.25 148.021 117.927C145.359 117.604 135.322 117.003 135.322 117.003L127.455 97.987Z" fill="#1C04FC"/>
<path fill-rule="evenodd" clip-rule="evenodd" d="M148.726 54.8097C147.328 55.2582 146.07 56.0745 145.08 57.1763C144.112 58.2287 133.567 78.5756 132.747 79.9398C131.927 81.3041 131.495 84.9514 132.747 87.3124C133.999 89.6734 141.494 103.188 141.494 103.188L144.342 98.8724C144.342 98.8724 138.367 85.3969 138.11 84.7175C137.853 84.0382 137.749 83.3922 138.498 82.3676C139.247 81.3431 146.643 72.2777 146.643 72.2777C146.643 72.2777 151.979 59.3591 148.726 54.8097Z" fill="#141A33"/>
<path d="M155.724 122.126H155.286C154.957 122.126 154.69 122.398 154.69 122.733V177.125C154.69 177.46 154.957 177.732 155.286 177.732H155.724C156.053 177.732 156.319 177.46 156.319 177.125V122.733C156.319 122.398 156.053 122.126 155.724 122.126Z" fill="#00000F"/>
<path d="M156.325 120.578H154.685C153.456 120.578 152.46 121.593 152.46 122.844V125.038C152.46 126.29 153.456 127.305 154.685 127.305H156.325C157.554 127.305 158.55 126.29 158.55 125.038V122.844C158.55 121.593 157.554 120.578 156.325 120.578Z" fill="#141A33"/>
<path d="M156.855 174.413H154.154C153.496 174.413 152.963 174.957 152.963 175.627V176.518C152.963 177.188 153.496 177.732 154.154 177.732H156.855C157.513 177.732 158.047 177.188 158.047 176.518V175.627C158.047 174.957 157.513 174.413 156.855 174.413Z" fill="#141A33"/>
<path d="M162.677 176.073H148.333C147.324 176.073 146.507 176.905 146.507 177.932V179.308C146.507 180.335 147.324 181.168 148.333 181.168H162.677C163.685 181.168 164.503 180.335 164.503 179.308V177.932C164.503 176.905 163.685 176.073 162.677 176.073Z" fill="#030822"/>
<path fill-rule="evenodd" clip-rule="evenodd" d="M166.93 121.703C166.929 121.278 166.762 120.871 166.468 120.57C166.173 120.27 165.773 120.101 165.356 120.099H145.676C145.26 120.102 144.861 120.272 144.568 120.572C144.274 120.873 144.108 121.279 144.107 121.703C144.108 122.126 144.274 122.532 144.568 122.831C144.862 123.131 145.26 123.299 145.676 123.301H165.356C165.772 123.299 166.171 123.131 166.466 122.832C166.76 122.532 166.927 122.127 166.93 121.703Z" fill="#030822"/>
<path fill-rule="evenodd" clip-rule="evenodd" d="M171.15 121.034C171.149 120.796 171.055 120.567 170.889 120.398C170.724 120.229 170.499 120.134 170.265 120.132H140.772C140.538 120.134 140.313 120.229 140.147 120.398C139.982 120.567 139.888 120.796 139.886 121.034C139.888 121.273 139.982 121.502 140.147 121.671C140.313 121.84 140.538 121.935 140.772 121.937H170.265C170.499 121.935 170.724 121.84 170.889 121.671C171.055 121.502 171.149 121.273 171.15 121.034Z" fill="#00000F"/>
<path fill-rule="evenodd" clip-rule="evenodd" d="M150.24 117.538H170.227C170.688 117.539 171.13 117.726 171.456 118.057C171.783 118.389 171.968 118.839 171.97 119.308C171.968 119.778 171.783 120.228 171.456 120.559C171.13 120.891 170.688 121.078 170.227 121.079H150.24C149.779 121.079 149.336 120.893 149.009 120.561C148.682 120.229 148.498 119.778 148.497 119.308C148.498 118.838 148.682 118.388 149.009 118.056C149.336 117.724 149.779 117.538 150.24 117.538Z" fill="#060651"/>
<path fill-rule="evenodd" clip-rule="evenodd" d="M138.853 117.538H155.893C156.354 117.539 156.796 117.726 157.122 118.057C157.449 118.389 157.634 118.839 157.637 119.308C157.634 119.778 157.449 120.228 157.122 120.559C156.796 120.891 156.354 121.078 155.893 121.079H138.853C138.393 121.078 137.951 120.891 137.626 120.559C137.3 120.227 137.116 119.777 137.115 119.308C137.116 118.839 137.3 118.39 137.626 118.058C137.951 117.726 138.393 117.539 138.853 117.538Z" fill="#4F46F9"/>
<path fill-rule="evenodd" clip-rule="evenodd" d="M174.338 83.4256C175.48 86.2098 179.378 95.8376 180.586 98.8334H182.226C182.509 98.8332 182.785 98.9189 183.02 99.0796C183.255 99.2403 183.437 99.4686 183.543 99.7354C183.543 99.7354 178.29 86.7332 176.929 83.4256C175.568 80.118 171.539 79.8284 169.5 79.8284H166.925C168.969 79.8284 172.976 80.1124 174.338 83.4256Z" fill="#040484"/>
<path fill-rule="evenodd" clip-rule="evenodd" d="M120.425 100.899C120.23 100.912 120.035 100.883 119.851 100.815C119.667 100.748 119.498 100.643 119.356 100.506C119.213 100.37 119.1 100.205 119.022 100.022C118.945 99.8394 118.905 99.6424 118.905 99.4432C118.905 99.244 118.945 99.0469 119.022 98.8641C119.1 98.6813 119.213 98.5166 119.356 98.3802C119.498 98.2438 119.667 98.1385 119.851 98.0709C120.035 98.0033 120.23 97.9747 120.425 97.987H128.133C128.424 97.987 128.708 98.077 128.947 98.245C129.186 98.4131 129.369 98.6514 129.473 98.9281L137.224 116.396H163.3L172.643 99.574C172.768 99.3511 172.948 99.1658 173.166 99.0367C173.384 98.9077 173.632 98.8395 173.884 98.839H182.204C182.568 98.8619 182.909 99.0253 183.159 99.2959C183.409 99.5664 183.548 99.9238 183.548 100.295C183.548 100.666 183.409 101.024 183.159 101.294C182.909 101.565 182.568 101.728 182.204 101.751H174.737L165.443 118.456C165.329 118.707 165.147 118.919 164.918 119.068C164.69 119.217 164.424 119.297 164.153 119.297H136.3C136.026 119.296 135.757 119.214 135.527 119.062C135.296 118.91 135.113 118.694 134.999 118.44L127.215 100.888L120.425 100.899Z" fill="#1C04FC"/>
<path fill-rule="evenodd" clip-rule="evenodd" d="M125.881 164.507C125.881 164.507 116.839 120.968 116.38 116.062C115.943 111.346 113.39 104.569 142.828 99.9137C144.069 99.7188 145.014 98.4437 146.386 98.2432C146.386 98.2432 169.838 99.4014 172.419 100.471C174.999 101.54 168.231 110.522 146.272 112.643C124.312 114.765 129.91 122.288 129.91 122.288C129.91 122.288 130.703 162.291 131.227 164.396C131.752 166.5 128.018 167.581 125.881 164.507Z" fill="#00000F"/>
<path fill-rule="evenodd" clip-rule="evenodd" d="M147.403 95.8376C146.403 96.2942 144.67 100.231 143.434 100.699C138.514 102.553 132.228 104.513 129.254 106.568C126.072 108.762 124.766 111.964 123.787 114.52C122.519 117.861 107.573 152.914 106.704 154.384C105.835 155.854 108.453 158.215 109.492 158.749C110.53 159.284 111.946 157.313 111.946 157.313C111.946 157.313 130.784 124.459 136.246 116.374L159.561 116.402C159.561 116.402 167.045 115.177 171.107 109.803C175.48 104.018 171.877 89.9184 169.948 89.7569C166.29 89.4006 154.947 87.5908 149.081 90.5087C145.512 92.2571 148.994 95.8488 147.403 95.8376Z" fill="#030822"/>
<path fill-rule="evenodd" clip-rule="evenodd" d="M147.403 95.8376C146.408 96.2942 144.67 100.231 143.44 100.699L142.221 101.15C142.221 101.15 154.346 98.4102 157.959 102.497C161.573 106.585 161.168 112.637 149.688 113.044C138.208 113.45 136.432 113.456 134.792 113.044C133.152 112.632 120.802 137.985 117.577 141.582C116.331 142.974 114.417 142.389 112.537 141.148C109.552 148.091 107.07 153.81 106.715 154.384C105.846 155.854 108.464 158.215 109.503 158.749C110.542 159.284 111.957 157.313 111.957 157.313C111.957 157.313 130.796 124.459 136.257 116.374L159.572 116.402C159.572 116.402 167.056 115.177 171.118 109.803C175.491 104.018 171.888 89.9184 169.959 89.7569C166.302 89.4006 154.958 87.5908 149.092 90.5087C145.512 92.2571 148.994 95.8488 147.403 95.8376Z" fill="#00000F"/>
<path d="M104.065 153.87L102.652 156.674C102.493 156.988 102.615 157.374 102.924 157.536L106.664 159.491C106.973 159.653 107.352 159.528 107.51 159.214L108.923 156.41C109.082 156.095 108.96 155.709 108.651 155.548L104.911 153.592C104.602 153.431 104.223 153.555 104.065 153.87Z" fill="#D84743"/>
<path fill-rule="evenodd" clip-rule="evenodd" d="M110.962 163.02C111.001 163.19 111.05 163.358 111.11 163.521C110.927 164.039 110.7 164.541 110.432 165.019C110.4 165.145 110.342 165.262 110.261 165.363C110.18 165.464 110.078 165.545 109.963 165.601C109.848 165.657 109.722 165.687 109.594 165.689C109.467 165.69 109.34 165.663 109.224 165.609L106.048 163.939L107.939 161.428L109.76 160.982L110.962 163.02Z" fill="#F2DDDC"/>
<path d="M107.193 150.35L104.175 156.339C103.975 156.736 104.129 157.223 104.518 157.426L107.966 159.229C108.356 159.433 108.833 159.276 109.033 158.879L112.051 152.89C112.251 152.493 112.098 152.007 111.708 151.803L108.26 150C107.87 149.797 107.393 149.953 107.193 150.35Z" fill="#040484"/>
<path fill-rule="evenodd" clip-rule="evenodd" d="M108.426 161.322C108.781 161.049 109.273 161.634 109.76 160.993C111.449 158.766 113.483 153.994 113.215 153.849L111.422 152.913C111.214 152.808 111.487 153.092 110.421 153.214C109.563 152.769 107.857 155.352 106.272 156.394C105.375 156.984 105.354 156.895 104.949 156.683L104.457 156.427C104.146 156.26 103.233 156.149 104.55 155.174C105.867 154.2 107.065 153.197 107.343 152.646C107.534 152.019 107.498 151.343 107.24 150.742C107.092 150.458 106.288 150.564 106.07 150.647C105.936 150.702 105.814 150.784 105.712 150.888C105.611 150.992 105.532 151.117 105.479 151.254C105.283 151.633 104.736 152.719 104.517 153.158C104.299 153.598 100.516 155.063 99.969 156.143L99.3786 157.318C99.2769 157.525 99.2351 157.756 99.2583 157.986C99.2713 158.116 99.2713 158.246 99.2583 158.376L107.283 162.569C107.775 162.275 108.172 161.842 108.426 161.322Z" fill="#1C04FC"/>
<path fill-rule="evenodd" clip-rule="evenodd" d="M110.962 163.02L112.701 159.568C112.974 159.011 112.635 158.354 113.012 157.596C113.39 156.839 114.062 155.519 114.193 155.258C114.324 154.996 113.931 154.228 113.734 154.144L111.952 153.208C111.952 153.208 112.192 154.322 112.198 154.434C111.857 155.218 111.472 155.982 111.044 156.722C110.673 157.468 111.044 158.287 110.93 158.493L110.328 159.679C110.088 160.163 109.087 161.082 107.568 160.18C106.048 159.278 106.687 158.588 104.654 157.524L101.549 155.904C101.412 155.848 101.288 155.764 101.183 155.658C101.079 155.552 100.997 155.425 100.942 155.286C100.533 155.464 100.191 155.773 99.9689 156.165L99.3785 157.34C99.2747 157.554 99.2458 157.798 99.2965 158.031C99.3128 158.166 99.3128 158.302 99.2965 158.437L108.043 162.964C108.047 162.655 108.114 162.349 108.24 162.068L108.333 161.633C108.488 161.588 108.65 161.577 108.81 161.601C108.969 161.625 109.122 161.684 109.257 161.773L110.465 162.402C110.674 162.588 110.857 162.802 111.012 163.037L110.962 163.02Z" fill="#040484"/>
<path fill-rule="evenodd" clip-rule="evenodd" d="M108.306 161.634C108.306 161.634 108.655 162.157 108.716 162.263C108.53 162.782 108.303 163.285 108.038 163.766C107.778 164.034 107.454 164.226 107.097 164.323C106.91 164.352 106.718 164.319 106.551 164.229L99.2965 160.425L98.3671 159.941C98.3145 159.915 98.2675 159.878 98.2288 159.834C98.1901 159.789 98.1605 159.737 98.1417 159.68C98.1229 159.624 98.1153 159.564 98.1192 159.505C98.1232 159.445 98.1387 159.387 98.1648 159.334C98.2687 159.122 98.6295 158.415 98.7115 158.22C98.7935 158.025 99.2254 157.986 99.2254 157.986C99.3992 158.209 99.6231 158.385 99.8782 158.501C100.133 158.616 100.412 158.667 100.69 158.649C101.56 158.521 102.33 158.487 103.041 159.206C103.752 159.924 105.949 162.731 108.306 161.634Z" fill="white"/>
<path fill-rule="evenodd" clip-rule="evenodd" d="M108.306 161.634C108.306 161.634 108.655 162.157 108.716 162.263C108.53 162.782 108.303 163.285 108.038 163.766C107.778 164.033 107.454 164.226 107.097 164.323C106.91 164.352 106.718 164.319 106.551 164.229L101.188 161.444C100.729 160.977 100.308 160.564 100.308 160.564L105.392 163.221C106.059 163.566 106.534 163.521 106.649 163.287L107.152 162.291C107.173 162.229 107.181 162.163 107.175 162.098C107.17 162.033 107.151 161.969 107.119 161.912C107.53 161.912 107.936 161.817 108.306 161.634Z" fill="#F2DDDC"/>
<path fill-rule="evenodd" clip-rule="evenodd" d="M103.123 161.444C103.567 162.107 104.091 162.711 104.681 163.243L99.2965 160.425L98.3671 159.941C98.3145 159.915 98.2675 159.878 98.2288 159.834C98.1901 159.789 98.1605 159.737 98.1417 159.68C98.1229 159.624 98.1153 159.564 98.1192 159.505C98.1232 159.445 98.1387 159.387 98.1648 159.334L98.2578 159.15C98.4259 159.379 98.6489 159.56 98.9054 159.676C99.1619 159.792 99.4434 159.839 99.7229 159.813C100.576 159.629 101.992 159.813 103.123 161.444Z" fill="#00000F"/>
<path fill-rule="evenodd" clip-rule="evenodd" d="M104.14 154.751C104.069 154.673 104.096 154.567 104.206 154.517C104.259 154.492 104.318 154.483 104.376 154.491C104.434 154.498 104.489 154.523 104.534 154.562L105.671 155.765L107.606 156.171C107.732 156.171 107.808 156.294 107.77 156.383C107.74 156.431 107.696 156.469 107.644 156.49C107.592 156.511 107.534 156.514 107.48 156.5L106.086 156.205L106.906 157.068C106.977 157.146 106.95 157.251 106.841 157.302C106.788 157.328 106.728 157.338 106.67 157.331C106.611 157.323 106.557 157.297 106.513 157.257L105.375 156.054L103.435 155.648C103.309 155.648 103.238 155.531 103.276 155.436C103.305 155.387 103.35 155.35 103.402 155.33C103.455 155.309 103.512 155.308 103.566 155.325L104.96 155.614L104.14 154.751ZM110.295 153.509L108.36 153.097L107.223 151.9C107.178 151.861 107.122 151.835 107.064 151.826C107.005 151.817 106.944 151.826 106.89 151.85C106.866 151.857 106.845 151.871 106.829 151.889C106.812 151.906 106.8 151.929 106.794 151.953C106.788 151.977 106.788 152.002 106.794 152.026C106.8 152.05 106.813 152.072 106.83 152.089L107.644 152.953L106.256 152.657C106.201 152.643 106.143 152.647 106.09 152.668C106.037 152.689 105.992 152.726 105.96 152.774C105.928 152.864 105.999 152.958 106.124 152.986L108.065 153.392L109.202 154.595C109.247 154.634 109.302 154.659 109.36 154.667C109.418 154.674 109.477 154.665 109.53 154.64C109.639 154.59 109.667 154.484 109.59 154.406L108.776 153.543L110.17 153.832C110.224 153.85 110.282 153.848 110.335 153.827C110.388 153.805 110.432 153.766 110.459 153.715C110.498 153.626 110.421 153.532 110.295 153.509ZM108.951 154.84L107.015 154.434L105.857 153.231C105.812 153.192 105.757 153.167 105.699 153.159C105.641 153.151 105.581 153.16 105.528 153.186C105.419 153.237 105.392 153.342 105.463 153.42L106.283 154.283L104.889 153.988C104.834 153.974 104.776 153.978 104.723 153.999C104.67 154.02 104.625 154.057 104.594 154.105C104.561 154.194 104.632 154.289 104.758 154.317L106.698 154.723L107.835 155.926C107.879 155.966 107.934 155.992 107.993 156C108.051 156.008 108.111 155.998 108.163 155.971C108.273 155.921 108.3 155.815 108.224 155.737L107.409 154.874L108.803 155.163C108.857 155.18 108.914 155.179 108.967 155.158C109.019 155.138 109.064 155.101 109.093 155.052C109.137 154.957 109.076 154.868 108.951 154.84Z" fill="white"/>
<path fill-rule="evenodd" clip-rule="evenodd" d="M161.125 44.7476L161.092 46.9082C161.092 46.9082 161.245 51.5076 161.261 52.0088C161.278 52.51 161.507 52.6714 162.103 53.0724C162.912 54.3364 160.933 59.877 159.403 60.1164C157.872 60.3558 150.76 59.8992 150.251 59.5206C149.891 59.2533 153.384 54.3976 153.154 53.6125C153.453 53.5519 153.732 53.4181 153.969 53.2227C155.439 51.903 155.144 48.3392 154.018 47.0975C153.176 46.1898 161.125 44.7476 161.125 44.7476Z" fill="#DC5748"/>
<path fill-rule="evenodd" clip-rule="evenodd" d="M148.497 61.6365C149.759 60.8792 150.514 61.475 151.962 62.8337C153.411 64.1924 154.723 64.0365 155.505 64.3316C156.287 64.6267 156.68 77.3895 151.678 79.4164C149.83 80.1625 148.644 79.4164 147.851 77.9185C146.523 75.2122 145.217 63.6021 148.497 61.6365Z" fill="#F6F5F4"/>
<path fill-rule="evenodd" clip-rule="evenodd" d="M172.003 96.0436C171.413 97.4246 169.368 98.5661 166.925 99.4236C163.284 97.9703 157.085 100.192 152.443 99.9805C147.146 99.7187 144.981 98.4881 144.981 98.4881L144.637 98.7331C144.492 98.6322 144.366 98.5058 144.265 98.3601C143.664 97.4134 143.959 96.0102 144.194 94.7629C144.621 92.5355 146.468 94.0835 145.665 83.4591C144.861 72.8346 142.1 54.7095 153.285 53.3619C153.285 53.3619 153.176 53.6236 153.001 54.097H153.466C153.466 54.097 152.465 57.3266 154.559 58.3846C156.653 59.4426 158.932 57.9392 159.944 56.7141C160.002 56.6346 160.078 56.57 160.165 56.5256C160.253 56.4811 160.349 56.458 160.447 56.458C161.143 55.5447 161.913 54.6167 162.759 53.6738C165.137 54.0468 168.914 55.8287 168.914 55.8287C170.817 56.6807 172.878 58.4681 173.255 60.4059C173.802 63.1567 171.068 72.4949 169.21 78.5088C166.072 88.5764 173.725 92.0177 172.003 96.0436Z" fill="#CFC9D0"/>
<path fill-rule="evenodd" clip-rule="evenodd" d="M154.264 61.809C154.264 61.809 149.147 81.6603 148.393 85.6139C148.333 86.2517 148.477 86.8921 148.803 87.4403C149.349 88.437 151.115 91.7502 151.388 92.1344C151.662 92.5187 151.869 92.2347 152.225 91.9006C152.58 91.5665 154.843 89.1554 155.22 88.6932C155.376 88.4817 155.489 88.2409 155.553 87.9848C155.616 87.7287 155.63 87.4623 155.592 87.2009C155.477 81.6826 155.046 76.6209 155.302 70.6739C155.456 67.4498 155.691 64.3649 155.991 62.2879L157.588 60.6842L156.899 59.2587C156.297 58.9347 155.621 58.7827 154.942 58.8188C154.652 58.8327 154.371 58.9212 154.124 59.076C153.878 59.2309 153.674 59.447 153.531 59.7042L154.264 61.809Z" fill="#9E9BA5"/>
<path fill-rule="evenodd" clip-rule="evenodd" d="M147.595 99.3513C146.685 99.1758 145.801 98.882 144.965 98.477L144.621 98.722C144.476 98.6211 144.35 98.4947 144.249 98.349C143.648 97.4023 143.943 95.9991 144.178 94.7518C144.604 92.5244 146.452 94.0724 145.648 83.4479C144.938 73.9482 142.647 58.4514 150.175 54.3141C151.815 55.4834 152.859 57.4324 152.843 60.4783L152.711 61.1688C152.515 61.3834 152.333 61.6103 152.165 61.8481C152.116 61.9651 150.918 76.0754 150.918 76.0754L147.595 99.3513Z" fill="#9E9BA5"/>
<path fill-rule="evenodd" clip-rule="evenodd" d="M153.81 61.8093C153.81 61.8093 148.693 81.6606 147.939 85.6142C147.88 86.252 148.023 86.8924 148.349 87.4406C148.896 88.4373 150.661 91.7505 150.935 92.1347C151.208 92.519 151.416 92.235 151.771 91.9009C152.126 91.5668 154.39 89.1556 154.767 88.6935C154.922 88.482 155.035 88.2412 155.099 87.9851C155.163 87.729 155.176 87.4626 155.138 87.2011C155.024 81.6829 154.592 76.6212 154.849 70.6742C155.002 67.4501 155.237 64.3652 155.538 62.2882L155.106 60.5508C155.106 60.5508 153.837 61.1689 153.81 61.8093Z" fill="#1C04FC"/>
<path fill-rule="evenodd" clip-rule="evenodd" d="M151.777 91.9007C152.126 91.5666 154.395 89.1555 154.772 88.6933C154.928 88.4818 155.041 88.2411 155.104 87.985C155.168 87.7289 155.182 87.4624 155.144 87.201C155.029 81.6827 154.597 76.6211 154.854 70.674C155.007 67.4499 155.242 64.3651 155.543 62.288L155.231 61.0352L154.554 61.3748L154.335 61.7312C154.509 61.8917 154.657 62.0797 154.772 62.288C154.925 62.6054 153.898 73.1074 153.679 75.5742C153.46 78.041 153.132 87.5908 153.187 88.2089C153.242 88.827 151.777 91.9007 151.777 91.9007Z" fill="#040484"/>
<path fill-rule="evenodd" clip-rule="evenodd" d="M151.263 71.8043C149.863 77.3727 148.327 83.5815 147.939 85.6139C147.88 86.2518 148.023 86.8922 148.349 87.4404C148.513 87.7355 148.781 88.2422 149.092 88.8102L150.902 76.0753L151.263 71.8043Z" fill="#040484"/>
<path fill-rule="evenodd" clip-rule="evenodd" d="M153.078 59.7042L153.81 61.809C154.113 61.7097 154.437 61.7022 154.744 61.7872C155.05 61.8722 155.326 62.0462 155.538 62.2879L157.139 60.6842L156.445 59.2587C155.844 58.9347 155.167 58.7827 154.488 58.8188C154.199 58.8327 153.917 58.9212 153.671 59.076C153.424 59.2309 153.22 59.447 153.078 59.7042Z" fill="#1C04FC"/>
<path fill-rule="evenodd" clip-rule="evenodd" d="M154.778 61.7868C155.075 61.8723 155.34 62.0469 155.538 62.2879L157.139 60.6842L156.445 59.2587C155.844 58.9347 155.167 58.7827 154.488 58.8188L154.253 58.8522L154.209 58.9524C154.589 59.2094 154.954 59.4883 155.303 59.7877C155.549 60.0383 154.756 61.7868 154.756 61.7868H154.778Z" fill="#040484"/>
<path fill-rule="evenodd" clip-rule="evenodd" d="M162.961 53.1336C163.281 53.3336 163.576 53.571 163.841 53.8408C163.907 53.9866 163.941 54.1452 163.941 54.3058C163.941 54.4663 163.907 54.6249 163.841 54.7707C163.628 55.3276 158.331 62.0931 158.331 62.0931C158.331 62.0931 158.156 62.3326 157.916 62.0653C157.675 61.798 155.631 58.7243 155.631 58.7243L162.273 52.9443C162.464 52.7216 162.775 53.0167 162.961 53.1336Z" fill="white"/>
<path fill-rule="evenodd" clip-rule="evenodd" d="M154.056 53.1616C153.765 53.094 153.462 53.0903 153.169 53.1508C152.876 53.2113 152.599 53.3346 152.356 53.5124C151.41 54.4368 152.203 60.0608 152.482 61.0186C152.547 61.0984 152.639 61.151 152.739 61.1664C152.84 61.1818 152.943 61.1589 153.028 61.1021C153.716 60.2884 154.355 59.433 154.942 58.5406C154.657 58.0785 152.793 55.6952 154.056 53.1616Z" fill="white"/>
<path fill-rule="evenodd" clip-rule="evenodd" d="M163.42 53.4621C163.42 53.4621 155.926 69.6717 155.095 77.2948C154.264 84.9179 160.441 100.816 160.846 101.684C161.25 102.553 169.046 106.317 172.659 106.34C172.659 106.34 173.233 106.34 173.37 106.156C173.506 105.972 174.053 105.359 174.239 105.114C174.368 104.928 174.452 104.714 174.484 104.488C174.515 104.262 174.493 104.032 174.419 103.817C174.255 103.205 170.626 83.8933 170.172 81.3764C169.718 78.8595 173.042 65.5622 173.55 63.101C174.059 60.6398 174.736 56.1126 163.42 53.4621Z" fill="#141A33"/>
<path fill-rule="evenodd" clip-rule="evenodd" d="M161.617 57.5549C159.342 62.8727 155.669 72.0829 155.1 77.2893C155.051 77.7684 155.027 78.2498 155.029 78.7315C155.729 76.8259 156.826 75.0972 158.244 73.6643C159.616 72.2499 161.628 70.4012 162.808 69.4045C164.623 67.862 166.892 66.3697 166.591 64.6769C166.291 62.9841 165.175 57.9002 165.175 57.9002L161.617 57.5549Z" fill="#3F4154"/>
<path fill-rule="evenodd" clip-rule="evenodd" d="M160.048 116.396H165.126L173.507 100.521L183.483 100.938L173.676 118.468C173.561 118.719 173.378 118.932 173.149 119.081C172.919 119.23 172.653 119.309 172.38 119.308H160.048V116.396Z" fill="#040484"/>
<path fill-rule="evenodd" clip-rule="evenodd" d="M159.326 116.396H163.3L172.643 99.5739C172.768 99.351 172.948 99.1657 173.166 99.0366C173.384 98.9076 173.632 98.8394 173.884 98.8389H182.204C182.568 98.8619 182.909 99.0252 183.159 99.2958C183.409 99.5664 183.548 99.9237 183.548 100.295C183.548 100.666 183.409 101.024 183.159 101.294C182.909 101.565 182.568 101.728 182.204 101.751H174.737L165.443 118.456C165.329 118.707 165.147 118.919 164.918 119.068C164.69 119.217 164.424 119.296 164.153 119.297H159.348L159.326 116.396Z" fill="#1C04FC"/>
<path fill-rule="evenodd" clip-rule="evenodd" d="M152.323 53.5068C152.323 53.5068 150.825 73.3414 150.426 75.7024C150.027 78.0634 146.665 96.8177 146.375 98.2265C146.086 99.6353 142.232 100.008 142.232 100.008C142.232 100.008 144.418 81.4545 144.451 80.9422C144.484 80.4299 144.528 66.6426 144.528 64.9443C144.528 63.2459 146.457 57.065 146.769 56.3968C147.081 55.7286 149.218 54.1249 152.323 53.5068Z" fill="#141A33"/>
<path fill-rule="evenodd" clip-rule="evenodd" d="M151.924 58.8191C151.454 64.8775 150.705 74.1377 150.437 75.7025C150.361 76.1479 150.18 77.1725 149.934 78.5535C149.934 78.5535 147.879 62.884 148.032 62.3216C148.185 61.7592 150.552 57.3379 150.552 57.3379L151.924 58.8191Z" fill="#3F4154"/>
<path fill-rule="evenodd" clip-rule="evenodd" d="M152.323 53.5068C152.323 53.5068 152.077 56.7476 151.777 60.7457C150.683 59.3035 149.344 57.4047 149.497 57.1429C149.748 56.7309 151.531 53.685 151.536 53.6794C151.777 53.6237 152.061 53.5625 152.323 53.5068Z" fill="#575A6D"/>
<path fill-rule="evenodd" clip-rule="evenodd" d="M165.782 54.0913C165.782 54.1192 166.936 59.1029 166.963 59.4982C166.963 59.7989 161.376 62.8393 158.954 64.1033C161.141 58.3957 163.421 53.4621 163.421 53.4621C164.273 53.657 165.061 53.8742 165.782 54.0913Z" fill="#575A6D"/>
<path fill-rule="evenodd" clip-rule="evenodd" d="M170.741 56.2741C172.027 56.989 173.108 58.0355 173.873 59.3089C174.622 60.5284 183.166 83.5648 183.713 85.0627C184.26 86.5606 183.997 90.2023 182.297 92.3016C181.608 93.148 179.564 95.5981 177.377 98.2041C175.453 100.515 172.003 100.353 169.325 100.526C171.243 97.7809 177.213 89.2223 177.525 88.7044C177.913 88.0919 178.126 87.4794 177.585 86.3267C177.044 85.174 169.773 73.1463 169.773 73.1463C169.773 73.1463 166.69 60.0996 170.741 56.2741Z" fill="#141A33"/>
<path fill-rule="evenodd" clip-rule="evenodd" d="M183.915 88.0863C183.771 89.6127 183.217 91.0691 182.313 92.296C181.57 93.1925 179.263 95.9767 176.923 98.7943C176.595 99.1841 174.556 101.189 172.725 101.189C172.615 101.189 169.609 100.42 169.445 100.37C169.882 99.7521 170.489 98.8778 171.178 97.8922C172.9 97.8031 176.972 97.5748 177.191 97.3354C177.41 97.0959 181.876 92.1457 182.762 90.8872C183.32 90.0383 183.712 89.0871 183.915 88.0863Z" fill="#030822"/>
<path fill-rule="evenodd" clip-rule="evenodd" d="M170.91 75.0563L170.598 69.1984C173.107 73.4025 176.825 80.4966 177.607 82.1783C179.077 85.3467 179.197 87.1174 179.197 87.6019C179.197 88.0863 178.809 87.8135 178.569 87.9583C178.328 88.1031 176.781 89.8293 176.781 89.8293C177.207 89.2167 177.492 88.7991 177.552 88.7156C177.94 88.1031 178.153 87.4905 177.612 86.3379C177.224 85.4581 173.009 78.492 170.91 75.0563Z" fill="#030822"/>
<path fill-rule="evenodd" clip-rule="evenodd" d="M161.961 102.553L162.027 102.592C162.519 102.703 166.832 106.011 170.587 106.056L172.708 101.189C172.146 100.354 171.854 99.3596 171.875 98.3468C171.895 97.3339 172.227 96.3532 172.823 95.5424C171.73 89.7568 170.429 82.8186 170.172 81.3764C169.931 80.0679 170.719 75.808 171.61 71.7041L170.609 69.1984C170.609 69.1984 168.51 78.4307 168.259 79.1324C168.007 79.834 164.53 79.1881 164.104 79.1602C163.677 79.1324 167.1 80.4688 167.734 80.775C168.368 81.0813 169.494 92.7137 169.445 93.6937C169.396 94.6737 162.338 102.197 161.961 102.553Z" fill="#030822"/>
<path fill-rule="evenodd" clip-rule="evenodd" d="M149.399 54.4645C146.924 57.2914 145.265 60.7602 144.604 64.4876C144.599 64.5194 144.583 64.5486 144.561 64.5711C144.801 63.0632 145.146 61.5745 145.594 60.1164C146.362 58.1949 147.419 56.4066 148.726 54.8153C148.934 54.6928 149.158 54.5758 149.399 54.4645Z" fill="#030822"/>
<path fill-rule="evenodd" clip-rule="evenodd" d="M170.844 70.8634C170.844 70.9024 170.829 70.9398 170.803 70.9678C170.776 70.9959 170.74 71.0123 170.702 71.0138C170.664 71.0138 170.628 70.9985 170.602 70.9714C170.575 70.9442 170.56 70.9074 170.56 70.869C170.56 70.8356 170.341 60.8737 172.681 57.7665L172.856 57.9503C170.626 60.896 170.844 70.83 170.844 70.8634Z" fill="#030822"/>
<path d="M171.15 97.1127H167.592C166.574 97.1127 165.749 97.9516 165.749 98.9864C165.749 100.021 166.574 100.86 167.592 100.86H171.15C172.168 100.86 172.993 100.021 172.993 98.9864C172.993 97.9516 172.168 97.1127 171.15 97.1127Z" fill="#F08A71"/>
<path fill-rule="evenodd" clip-rule="evenodd" d="M146.813 32.252C146.513 32.8821 146.344 33.5682 146.315 34.2678C146.315 35.2311 148.322 35.6265 149.005 35.6265C149.688 35.6265 168.138 36.3225 168.138 36.3225C168.295 36.2947 168.437 36.2132 168.541 36.0916C168.646 35.97 168.706 35.8157 168.712 35.6543C168.712 35.0975 165.547 28.059 165.547 28.059L146.813 32.252Z" fill="#2A0D09"/>
<path fill-rule="evenodd" clip-rule="evenodd" d="M147.72 37.3193C148.301 37.3193 148.869 37.4946 149.351 37.8232C149.834 38.1518 150.21 38.6188 150.433 39.1652C150.655 39.7116 150.713 40.3128 150.6 40.8929C150.486 41.4729 150.207 42.0057 149.796 42.4239C149.386 42.8421 148.863 43.1269 148.293 43.2423C147.724 43.3576 147.133 43.2984 146.597 43.0721C146.061 42.8458 145.602 42.4625 145.28 41.9708C144.957 41.479 144.785 40.9009 144.785 40.3095C144.785 39.5164 145.094 38.7559 145.645 38.1951C146.195 37.6343 146.942 37.3193 147.72 37.3193Z" fill="#E9695B"/>
<path fill-rule="evenodd" clip-rule="evenodd" d="M167.843 37.3194C168.424 37.3216 168.991 37.4993 169.473 37.8299C169.954 38.1606 170.329 38.6293 170.549 39.1769C170.769 39.7244 170.825 40.3262 170.709 40.9059C170.593 41.4857 170.311 42.0174 169.898 42.4338C169.486 42.8502 168.961 43.1326 168.391 43.2452C167.821 43.3577 167.23 43.2955 166.695 43.0663C166.159 42.8371 165.703 42.4512 165.383 41.9575C165.063 41.4638 164.893 40.8845 164.897 40.2929C164.898 39.9005 164.975 39.5122 165.124 39.1503C165.273 38.7884 165.491 38.4599 165.765 38.1837C166.038 37.9075 166.363 37.689 166.719 37.5407C167.076 37.3924 167.458 37.3172 167.843 37.3194Z" fill="#E9695B"/>
<path fill-rule="evenodd" clip-rule="evenodd" d="M157.112 22.1902C159.778 22.1975 162.332 23.2794 164.217 25.1992C166.101 27.1191 167.164 29.7209 167.171 32.436V41.7519C167.164 44.467 166.101 47.0688 164.217 48.9887C162.332 50.9086 159.778 51.9904 157.112 51.9978C154.446 51.9904 151.891 50.9088 150.006 48.989C148.12 47.0693 147.057 44.4675 147.048 41.7519V32.436C147.057 29.7204 148.12 27.1186 150.006 25.1989C151.891 23.2792 154.446 22.1975 157.112 22.1902Z" fill="#F5AC83"/>
<path fill-rule="evenodd" clip-rule="evenodd" d="M161.218 23.0865C162.981 23.8995 164.479 25.2121 165.53 26.8679C166.582 28.5236 167.144 30.4526 167.149 32.4247V41.7406C167.142 44.4557 166.08 47.0575 164.195 48.9774C162.31 50.8973 159.756 51.9791 157.09 51.9865C155.854 51.9871 154.629 51.7529 153.477 51.296C163.317 51.3739 164.41 44.5582 164.41 38.8562C164.41 30.4368 155.385 33.466 148.01 33.466C147.682 33.466 147.36 33.466 147.048 33.466V32.447C147.05 31.548 147.167 30.6531 147.398 29.7853C151.372 27.2405 156.872 23.9385 159.463 23.3983L161.13 23.0587H161.19C161.136 23.0921 161.13 23.0976 161.218 23.0865Z" fill="#EE9073"/>
<path fill-rule="evenodd" clip-rule="evenodd" d="M166.039 31.8568V35.0085C166.039 36.2446 166.258 36.6122 166.87 37.0632C166.87 37.0632 166.493 38.2604 167.171 38.5388C167.174 38.2709 167.274 38.0136 167.453 37.8171C167.632 37.6206 167.876 37.4987 168.138 37.4753V29.3398C167.643 30.1893 166.868 30.8325 165.952 31.1551C166.007 31.3849 166.036 31.6203 166.039 31.8568Z" fill="#4F3A38"/>
<path fill-rule="evenodd" clip-rule="evenodd" d="M168.723 35.6544C168.078 34.8801 167.3 34.2312 166.427 33.7389H166.383L166.105 33.583C165.106 33.0371 164.282 32.2097 163.732 31.1997C162.89 31.7844 159.457 31.6953 158.162 31.6396H157.724H157.664C151.913 31.4058 146.354 32.8257 146.326 34.3124C141.346 23.6434 153.799 13.3698 164.875 25.0244C170.724 25.2583 170.205 31.3835 168.723 35.6544Z" fill="#4F3A38"/>
<path fill-rule="evenodd" clip-rule="evenodd" d="M145.217 28.8943C145.291 27.1001 145.859 25.3634 146.857 23.8828C149.535 25.5533 155.991 28.3932 163.257 23.4373C163.606 23.738 163.951 24.0554 164.301 24.3951C161.955 26.9287 155.811 31.8289 145.217 28.8943Z" fill="#6A514F"/>
<path fill-rule="evenodd" clip-rule="evenodd" d="M168.723 35.6546C168.078 34.8803 167.3 34.2313 166.427 33.739H166.384L166.105 33.5831C165.106 33.0372 164.282 32.2098 163.732 31.1998C162.89 31.7845 159.457 31.6954 158.162 31.6398H157.724H157.664C157.118 31.6398 156.571 31.6398 156.068 31.6398C163.464 31.3446 167.001 28.6718 168.603 26.7117C170.32 28.8166 169.751 32.6866 168.723 35.6546Z" fill="#2A0D09"/>
<path fill-rule="evenodd" clip-rule="evenodd" d="M97.6456 106.251L103.298 178.801H100.789L93.2012 109.664H50.676L43.0828 178.801H40.5791L46.2262 106.251H97.6456Z" fill="#3F4154"/>
<path fill-rule="evenodd" clip-rule="evenodd" d="M199.774 106.251L205.421 178.801H202.917L195.324 109.664H152.799L145.211 178.801H142.707L148.354 106.251H199.774Z" fill="#3F4154"/>
<path fill-rule="evenodd" clip-rule="evenodd" d="M179.449 102.297H44.5424C43.9625 102.297 43.4063 102.532 42.9962 102.949C42.5861 103.367 42.3557 103.933 42.3557 104.524C42.3629 105.11 42.5965 105.67 43.0058 106.081C43.4151 106.493 43.9672 106.724 44.5424 106.724H179.449C180.024 106.724 180.576 106.493 180.985 106.081C181.395 105.67 181.628 105.11 181.635 104.524C181.635 103.933 181.405 103.367 180.995 102.949C180.585 102.532 180.029 102.297 179.449 102.297Z" fill="#F1A272"/>
<path fill-rule="evenodd" clip-rule="evenodd" d="M202.617 102.297H145.528C144.948 102.297 144.392 102.532 143.982 102.949C143.572 103.367 143.341 103.933 143.341 104.524C143.349 105.11 143.582 105.67 143.992 106.081C144.401 106.493 144.953 106.724 145.528 106.724H202.617C203.192 106.724 203.744 106.493 204.153 106.081C204.562 105.67 204.796 105.11 204.803 104.524C204.803 103.933 204.573 103.367 204.163 102.949C203.753 102.532 203.197 102.297 202.617 102.297Z" fill="#C37744"/>
<path fill-rule="evenodd" clip-rule="evenodd" d="M3.70093 179.503H11.0591C11.6763 179.504 12.2678 179.755 12.7042 180.199C13.1406 180.644 13.3864 181.246 13.3879 181.875C13.3879 182.504 13.1427 183.108 12.7061 183.554C12.2695 184 11.6772 184.251 11.0591 184.253H7.5604C7.07079 184.254 6.60165 184.453 6.25545 184.805C5.90924 185.158 5.71411 185.636 5.71267 186.135C5.71411 186.633 5.90924 187.111 6.25545 187.464C6.60165 187.816 7.07079 188.015 7.5604 188.017H231.043C231.533 188.015 232.003 187.817 232.35 187.464C232.697 187.112 232.894 186.634 232.896 186.135C232.894 185.635 232.697 185.158 232.35 184.805C232.003 184.453 231.533 184.254 231.043 184.253H227.709C227.091 184.25 226.499 183.998 226.063 183.553C225.627 183.107 225.381 182.504 225.38 181.875C225.383 181.247 225.629 180.645 226.065 180.201C226.501 179.757 227.092 179.506 227.709 179.503H242.305C243.284 179.5 244.222 179.102 244.914 178.397C245.607 177.692 245.997 176.736 246 175.739C245.999 174.74 245.609 173.783 244.916 173.076C244.224 172.37 243.285 171.972 242.305 171.969H3.70093C2.72027 171.972 1.7806 172.37 1.08716 173.076C0.393728 173.782 0.00288432 174.74 0 175.739C0.00432445 176.736 0.395804 177.692 1.08908 178.397C1.78236 179.102 2.72122 179.5 3.70093 179.503ZM2.56387 188.017C2.19865 188.016 1.84195 187.904 1.53881 187.697C1.23568 187.489 0.999698 187.195 0.860686 186.851C0.721673 186.507 0.685861 186.129 0.757773 185.764C0.829684 185.399 1.00609 185.064 1.26472 184.802C1.52335 184.539 1.85259 184.36 2.21086 184.288C2.56914 184.216 2.94038 184.254 3.27769 184.396C3.615 184.539 3.90325 184.78 4.10604 185.09C4.30883 185.399 4.41706 185.763 4.41707 186.135C4.4113 186.631 4.21334 187.105 3.86626 187.453C3.51919 187.801 3.0511 187.996 2.56387 187.994V188.017Z" fill="#00000F"/>
<path fill-rule="evenodd" clip-rule="evenodd" d="M118.195 13.4588H137.618C138.298 13.4617 138.949 13.7386 139.43 14.2289C139.91 14.7192 140.18 15.3832 140.182 16.0759V34.5017C140.184 34.56 140.168 34.6174 140.136 34.6662C140.105 34.715 140.06 34.7529 140.007 34.7746C139.955 34.7971 139.897 34.8033 139.842 34.7923C139.786 34.7814 139.735 34.7539 139.695 34.7133L135.322 30.2586H118.195C117.515 30.2571 116.864 29.9815 116.383 29.4921C115.903 29.0026 115.632 28.3392 115.631 27.647V16.0759C115.632 15.3832 115.903 14.7192 116.383 14.2289C116.863 13.7386 117.515 13.4617 118.195 13.4588Z" fill="#1C04FC"/>
<path fill-rule="evenodd" clip-rule="evenodd" d="M122.519 22.7635C122.833 22.7635 123.139 22.6688 123.4 22.4914C123.661 22.3139 123.864 22.0617 123.984 21.7666C124.104 21.4716 124.135 21.1469 124.074 20.8336C124.013 20.5204 123.862 20.2327 123.64 20.0068C123.418 19.781 123.136 19.6272 122.828 19.5649C122.521 19.5026 122.202 19.5345 121.912 19.6568C121.623 19.779 121.375 19.986 121.201 20.2515C121.027 20.5171 120.934 20.8293 120.934 21.1487C120.934 21.577 121.101 21.9877 121.398 22.2905C121.695 22.5934 122.099 22.7635 122.519 22.7635Z" fill="white"/>
<path fill-rule="evenodd" clip-rule="evenodd" d="M127.909 22.7635C128.223 22.7635 128.529 22.6688 128.79 22.4914C129.05 22.3139 129.254 22.0617 129.374 21.7666C129.494 21.4716 129.525 21.1469 129.464 20.8336C129.403 20.5204 129.252 20.2327 129.03 20.0068C128.808 19.781 128.526 19.6272 128.218 19.5649C127.911 19.5026 127.592 19.5345 127.302 19.6568C127.013 19.779 126.765 19.986 126.591 20.2515C126.417 20.5171 126.324 20.8293 126.324 21.1487C126.324 21.577 126.491 21.9877 126.788 22.2905C127.085 22.5934 127.489 22.7635 127.909 22.7635Z" fill="white"/>
<path fill-rule="evenodd" clip-rule="evenodd" d="M133.299 22.7635C133.613 22.7635 133.919 22.6688 134.18 22.4914C134.441 22.3139 134.644 22.0617 134.764 21.7666C134.884 21.4716 134.915 21.1469 134.854 20.8336C134.793 20.5204 134.642 20.2327 134.42 20.0068C134.198 19.781 133.916 19.6272 133.608 19.5649C133.301 19.5026 132.982 19.5345 132.693 19.6568C132.403 19.779 132.155 19.986 131.981 20.2515C131.807 20.5171 131.714 20.8293 131.714 21.1487C131.714 21.577 131.881 21.9877 132.178 22.2905C132.476 22.5934 132.879 22.7635 133.299 22.7635Z" fill="white"/>
<path fill-rule="evenodd" clip-rule="evenodd" d="M65.8677 77.5454C69.1751 76.0921 69.6944 79.8563 68.2293 82.8243C67.2344 84.8345 63.6537 89.9741 61.2429 94.3508H58.5096C59.4335 87.73 62.4511 79.0489 65.8677 77.5454Z" fill="#040484"/>
<path fill-rule="evenodd" clip-rule="evenodd" d="M59.472 94.3507C61.8172 86.3322 67.2237 78.7592 67.2456 78.7592C67.2693 78.7302 67.3029 78.7113 67.3397 78.7064C67.3764 78.7014 67.4137 78.7108 67.444 78.7325C67.4743 78.7543 67.4955 78.7869 67.5033 78.8238C67.5111 78.8607 67.5049 78.8993 67.4861 78.9318C67.4861 78.9318 62.1233 86.4213 59.7726 94.3507H59.472Z" fill="#060651"/>
<path fill-rule="evenodd" clip-rule="evenodd" d="M58.8816 65.6569C55.5469 62.3158 53.2728 66.5478 53.7374 70.7854C54.1748 74.8057 58.0233 88.6042 57.5641 94.4065H58.8761C61.8664 86.9671 63.1511 69.9167 58.8816 65.6569Z" fill="#1C04FC"/>
<path fill-rule="evenodd" clip-rule="evenodd" d="M58.395 94.4066C61.1666 82.6795 56.7167 66.4644 56.7003 66.4087C56.694 66.3845 56.683 66.3618 56.668 66.3419C56.653 66.3221 56.6343 66.3054 56.6129 66.293C56.5915 66.2806 56.568 66.2726 56.5436 66.2695C56.5192 66.2664 56.4944 66.2683 56.4707 66.275C56.4474 66.2801 56.4255 66.2901 56.4062 66.3043C56.387 66.3186 56.3709 66.3368 56.359 66.3578C56.3472 66.3788 56.3398 66.4022 56.3374 66.4263C56.3349 66.4504 56.3375 66.4748 56.345 66.4978C56.345 66.5535 60.8112 82.7909 57.985 94.4066H58.395Z" fill="#4F46F9"/>
<path fill-rule="evenodd" clip-rule="evenodd" d="M50.676 73.0184C47.1828 71.3144 46.5104 75.3181 47.9973 78.5533C49.2273 81.2373 54.4753 89.1333 56.5581 94.2228L58.291 94.1615C58.0997 87.0117 54.8033 75.023 50.676 73.0184Z" fill="#C8DEE1"/>
<path fill-rule="evenodd" clip-rule="evenodd" d="M57.6569 94.1836C56.0716 84.5559 49.189 74.26 49.1672 74.26C49.1438 74.2247 49.1078 74.2003 49.0668 74.1919C49.0259 74.1836 48.9834 74.192 48.9485 74.2154C48.9316 74.2267 48.917 74.2413 48.9056 74.2583C48.8942 74.2753 48.8862 74.2945 48.8822 74.3147C48.8781 74.3349 48.878 74.3557 48.8819 74.376C48.8858 74.3962 48.8935 74.4154 48.9048 74.4326C48.9321 74.466 55.7709 84.684 57.3508 94.217L57.6569 94.1836Z" fill="#7A9297"/>
<path d="M64.2005 92.9253H53.9178C53.6098 92.9253 53.3602 93.1796 53.3602 93.4933V96.0826C53.3602 96.3962 53.6098 96.6505 53.9178 96.6505H64.2005C64.5085 96.6505 64.7581 96.3962 64.7581 96.0826V93.4933C64.7581 93.1796 64.5085 92.9253 64.2005 92.9253Z" fill="#2C3049"/>
<path fill-rule="evenodd" clip-rule="evenodd" d="M62.4348 95.0245H55.6835L53.9177 96.645L55.3609 102.302H59.0564H62.7573L64.2005 96.645L62.4348 95.0245Z" fill="#2C3049"/>
<path fill-rule="evenodd" clip-rule="evenodd" d="M53.9177 96.645L54.2129 97.8087H63.8999L64.2005 96.645H53.9177Z" fill="#141A33"/>
<path fill-rule="evenodd" clip-rule="evenodd" d="M92.3595 98.0928H78.5233C77.9944 98.1206 77.4961 98.3542 77.1313 98.7453C76.7666 99.1365 76.5632 99.6554 76.5632 100.195C76.5632 100.734 76.7666 101.253 77.1313 101.644C77.4961 102.036 77.9944 102.269 78.5233 102.297H92.3376C92.8665 102.269 93.3648 102.036 93.7296 101.644C94.0944 101.253 94.2977 100.734 94.2977 100.195C94.2977 99.6554 94.0944 99.1365 93.7296 98.7453C93.3648 98.3542 92.8665 98.1206 92.3376 98.0928H92.3595Z" fill="#3B3A3A"/>
<path fill-rule="evenodd" clip-rule="evenodd" d="M61.4563 98.3379H79.1246C79.6079 98.3379 80.0714 98.5331 80.4137 98.8807C80.756 99.2282 80.949 99.6999 80.9504 100.192C80.949 100.685 80.7561 101.157 80.414 101.506C80.0719 101.854 79.6084 102.05 79.1246 102.052H61.4563V98.3379Z" fill="white"/>
<path fill-rule="evenodd" clip-rule="evenodd" d="M61.4563 98.0928C61.3925 98.0928 61.3314 98.1186 61.2862 98.1646C61.2411 98.2105 61.2158 98.2729 61.2158 98.3378C61.2158 98.4028 61.2411 98.4651 61.2862 98.5111C61.3314 98.557 61.3925 98.5829 61.4563 98.5829H79.1246C79.3402 98.5699 79.5562 98.6021 79.7592 98.6772C79.9623 98.7524 80.1481 98.869 80.3052 99.02C80.4624 99.171 80.5876 99.3531 80.6732 99.5551C80.7588 99.7571 80.803 99.9749 80.803 100.195C80.803 100.415 80.7588 100.633 80.6732 100.835C80.5876 101.037 80.4624 101.219 80.3052 101.37C80.1481 101.521 79.9623 101.637 79.7592 101.713C79.5562 101.788 79.3402 101.82 79.1246 101.807H61.4563C61.3925 101.807 61.3314 101.833 61.2862 101.879C61.2411 101.925 61.2158 101.987 61.2158 102.052C61.2158 102.117 61.2411 102.179 61.2862 102.225C61.3314 102.271 61.3925 102.297 61.4563 102.297H79.1246C79.6535 102.269 80.1518 102.036 80.5166 101.644C80.8814 101.253 81.0847 100.734 81.0847 100.195C81.0847 99.6554 80.8814 99.1365 80.5166 98.7453C80.1518 98.3542 79.6535 98.1206 79.1246 98.0928H61.4563Z" fill="#242525"/>
<path fill-rule="evenodd" clip-rule="evenodd" d="M91.7252 100.192C91.7223 99.6353 91.5035 99.1022 91.1164 98.709C90.7294 98.3158 90.2054 98.0943 89.6588 98.0928H91.4573C91.9863 98.1206 92.4846 98.3542 92.8493 98.7453C93.2141 99.1365 93.4175 99.6554 93.4175 100.195C93.4175 100.734 93.2141 101.253 92.8493 101.644C92.4846 102.036 91.9863 102.269 91.4573 102.297H89.6588C90.2064 102.295 90.7311 102.073 91.1184 101.679C91.5056 101.284 91.7237 100.75 91.7252 100.192Z" fill="#242525"/>
<path fill-rule="evenodd" clip-rule="evenodd" d="M89.1231 100.192C89.1202 99.6353 88.9014 99.1022 88.5144 98.709C88.1273 98.3158 87.6034 98.0943 87.0567 98.0928H88.8552C89.3842 98.1206 89.8825 98.3542 90.2473 98.7453C90.612 99.1365 90.8154 99.6554 90.8154 100.195C90.8154 100.734 90.612 101.253 90.2473 101.644C89.8825 102.036 89.3842 102.269 88.8552 102.297H87.0567C87.6043 102.295 88.1291 102.073 88.5163 101.679C88.9035 101.284 89.1217 100.75 89.1231 100.192Z" fill="#242525"/>
<path fill-rule="evenodd" clip-rule="evenodd" d="M65.0916 94.4066H77.1893C77.4281 94.4086 77.6641 94.4588 77.8837 94.5544C78.1033 94.65 78.3021 94.789 78.4685 94.9635C78.7214 95.2212 78.8937 95.5496 78.9635 95.907C79.0332 96.2645 78.9974 96.635 78.8605 96.9717C78.7236 97.3084 78.4918 97.5962 78.1943 97.7988C77.8968 98.0013 77.5471 98.1095 77.1893 98.1096H65.0916C64.6099 98.1026 64.1503 97.9025 63.8124 97.5528C63.5594 97.295 63.3872 96.9666 63.3174 96.6092C63.2477 96.2517 63.2835 95.8812 63.4204 95.5445C63.5573 95.2078 63.7891 94.92 64.0866 94.7174C64.3841 94.5149 64.7338 94.4067 65.0916 94.4066Z" fill="#C8DEE1"/>
<path fill-rule="evenodd" clip-rule="evenodd" d="M92.1517 94.6237H76.681C76.2577 94.6237 75.8517 94.795 75.5523 95.0999C75.253 95.4049 75.0848 95.8184 75.0848 96.2497C75.0848 96.6809 75.253 97.0944 75.5523 97.3994C75.8517 97.7043 76.2577 97.8756 76.681 97.8756H92.1517V94.6237Z" fill="white"/>
<path fill-rule="evenodd" clip-rule="evenodd" d="M92.1515 94.4065C92.182 94.4015 92.2132 94.4033 92.2429 94.4118C92.2727 94.4202 92.3003 94.4352 92.3238 94.4556C92.3473 94.4759 92.3662 94.5013 92.3791 94.5298C92.3921 94.5584 92.3988 94.5895 92.3988 94.6209C92.3988 94.6524 92.3921 94.6834 92.3791 94.712C92.3662 94.7405 92.3473 94.7659 92.3238 94.7863C92.3003 94.8067 92.2727 94.8216 92.2429 94.8301C92.2132 94.8385 92.182 94.8403 92.1515 94.8353H76.6809C76.3126 94.8353 75.9595 94.9843 75.6991 95.2496C75.4387 95.5148 75.2924 95.8746 75.2924 96.2497C75.2924 96.6248 75.4387 96.9845 75.6991 97.2498C75.9595 97.515 76.3126 97.664 76.6809 97.664H92.1515C92.182 97.659 92.2132 97.6608 92.2429 97.6692C92.2727 97.6777 92.3003 97.6927 92.3238 97.713C92.3473 97.7334 92.3662 97.7588 92.3791 97.7873C92.3921 97.8159 92.3988 97.847 92.3988 97.8784C92.3988 97.9099 92.3921 97.9409 92.3791 97.9695C92.3662 97.998 92.3473 98.0234 92.3238 98.0438C92.3003 98.0641 92.2727 98.0791 92.2429 98.0876C92.2132 98.096 92.182 98.0978 92.1515 98.0928H76.6809C76.1992 98.0858 75.7396 97.8857 75.4017 97.5359C75.1488 97.2782 74.9765 96.9498 74.9067 96.5924C74.837 96.2349 74.8728 95.8644 75.0097 95.5277C75.1466 95.191 75.3785 94.9032 75.6759 94.7006C75.9734 94.4981 76.3231 94.3899 76.6809 94.3898L92.1515 94.4065Z" fill="#7A9297"/>
<path fill-rule="evenodd" clip-rule="evenodd" d="M65.6492 96.2498C65.6492 95.7609 65.8398 95.2921 66.1792 94.9465C66.5185 94.6008 66.9788 94.4066 67.4587 94.4066H65.8843C65.5265 94.4067 65.1767 94.5149 64.8793 94.7174C64.5818 94.92 64.35 95.2078 64.2131 95.5445C64.0762 95.8812 64.0403 96.2517 64.1101 96.6092C64.1799 96.9666 64.3521 97.295 64.6051 97.5528C64.943 97.9025 65.4026 98.1026 65.8843 98.1096H67.4587C66.977 98.1026 66.5174 97.9025 66.1795 97.5528C66.0112 97.3818 65.8777 97.1788 65.7867 96.9551C65.6957 96.7315 65.649 96.4918 65.6492 96.2498Z" fill="#7A9297"/>
<path fill-rule="evenodd" clip-rule="evenodd" d="M67.9288 96.2498C67.9288 95.7619 68.1187 95.2939 68.4569 94.9484C68.795 94.6029 69.2539 94.4081 69.7328 94.4066H68.1639C67.8061 94.4067 67.4564 94.5149 67.1589 94.7174C66.8614 94.92 66.6296 95.2078 66.4927 95.5445C66.3558 95.8812 66.3199 96.2517 66.3897 96.6092C66.4595 96.9666 66.6317 97.295 66.8847 97.5528C67.2226 97.9025 67.6822 98.1026 68.1639 98.1096H69.7328C69.2539 98.1081 68.795 97.9133 68.4569 97.5678C68.1187 97.2223 67.9288 96.7543 67.9288 96.2665V96.2498Z" fill="#7A9297"/>
<path fill-rule="evenodd" clip-rule="evenodd" d="M94.6336 102.297H137.99C138.355 102.297 138.706 102.149 138.964 101.886C139.222 101.623 139.367 101.266 139.367 100.894C139.366 100.522 139.22 100.166 138.962 99.9032C138.704 99.6403 138.355 99.492 137.99 99.4905H94.6336C94.2687 99.492 93.9191 99.6403 93.6611 99.9032C93.403 100.166 93.2574 100.522 93.256 100.894C93.256 101.266 93.4011 101.623 93.6595 101.886C93.9178 102.149 94.2682 102.297 94.6336 102.297Z" fill="#141A33"/>
<path fill-rule="evenodd" clip-rule="evenodd" d="M94.6335 102.297H137.99C138.224 102.297 138.454 102.236 138.659 102.12C138.864 102.004 139.036 101.837 139.16 101.634C139.035 101.433 138.862 101.267 138.658 101.152C138.453 101.037 138.223 100.977 137.99 100.977H94.6335C94.3999 100.977 94.1701 101.037 93.9656 101.152C93.761 101.267 93.5883 101.433 93.4637 101.634C93.5873 101.837 93.7596 102.004 93.9643 102.12C94.169 102.236 94.3993 102.297 94.6335 102.297Z" fill="#030822"/>
<path fill-rule="evenodd" clip-rule="evenodd" d="M93.5619 99.4906H128.27C128.498 99.4957 128.724 99.4499 128.933 99.3564C129.142 99.2629 129.328 99.124 129.479 98.9494C129.629 98.7749 129.74 98.5689 129.805 98.3459C129.869 98.1229 129.884 97.8883 129.85 97.6586L127.084 74.7781C127.013 74.2782 126.771 73.8197 126.401 73.4835C126.031 73.1473 125.556 72.955 125.061 72.9405H90.353C90.1247 72.9363 89.8982 72.9828 89.6894 73.077C89.4806 73.1711 89.2945 73.3105 89.144 73.4855C88.9936 73.6605 88.8825 73.8668 88.8184 74.09C88.7543 74.3133 88.7389 74.5481 88.7732 74.7781L91.5393 97.6475C91.6077 98.1488 91.8485 98.6092 92.2189 98.9467C92.5893 99.2842 93.0652 99.477 93.5619 99.4906Z" fill="#030822"/>
<path fill-rule="evenodd" clip-rule="evenodd" d="M93.5619 99.4903H127.22C127.451 99.4982 127.68 99.454 127.892 99.361C128.104 99.268 128.293 99.1284 128.445 98.9522C128.598 98.776 128.71 98.5677 128.774 98.3421C128.838 98.1164 128.853 97.8791 128.816 97.6472L126.05 74.7667C125.98 74.2668 125.738 73.8083 125.368 73.4721C124.998 73.1359 124.523 72.9436 124.028 72.9291H90.353C90.1247 72.9248 89.8982 72.9714 89.6894 73.0655C89.4806 73.1597 89.2945 73.2991 89.144 73.4741C88.9936 73.6491 88.8825 73.8554 88.8184 74.0786C88.7543 74.3019 88.7389 74.5367 88.7732 74.7667L91.5393 97.6472C91.6077 98.1486 91.8485 98.609 92.2189 98.9465C92.5893 99.284 93.0652 99.4767 93.5619 99.4903Z" fill="#2C3049"/>
<path fill-rule="evenodd" clip-rule="evenodd" d="M95.3987 99.4906H98.8591L126.192 76.1033L126.028 74.7613C125.97 74.367 125.799 73.9989 125.536 73.7034L95.3768 99.4906H95.3987ZM121.639 72.9405L91.8071 98.4382C91.6634 98.2012 91.572 97.9351 91.5392 97.6586L91.1074 94.1004L115.855 72.9405H121.639Z" fill="#3A3F57"/>
<path fill-rule="evenodd" clip-rule="evenodd" d="M130.112 102.297H137.99C138.355 102.297 138.705 102.149 138.964 101.886C139.222 101.623 139.367 101.266 139.367 100.894C139.366 100.522 139.22 100.166 138.962 99.9032C138.704 99.6403 138.355 99.492 137.99 99.4905H130.112C129.747 99.492 129.398 99.6403 129.14 99.9032C128.882 100.166 128.736 100.522 128.735 100.894C128.735 101.266 128.88 101.623 129.138 101.886C129.396 102.149 129.747 102.297 130.112 102.297Z" fill="#2C3049"/>
<path d="M130.025 98.7944H93.9448C93.5644 98.7944 93.256 99.1086 93.256 99.4961C93.256 99.8836 93.5644 100.198 93.9448 100.198H130.025C130.405 100.198 130.714 99.8836 130.714 99.4961C130.714 99.1086 130.405 98.7944 130.025 98.7944Z" fill="#00000F"/>
<path fill-rule="evenodd" clip-rule="evenodd" d="M108.076 82.6906C109.024 82.7081 109.934 83.0747 110.638 83.7226C111.341 84.3706 111.791 85.2561 111.903 86.2154C111.96 86.6617 111.922 87.1155 111.792 87.5455C111.661 87.9756 111.441 88.3718 111.146 88.7071C110.851 89.0424 110.489 89.3088 110.083 89.488C109.678 89.6673 109.239 89.7552 108.798 89.7458C107.849 89.727 106.939 89.3592 106.235 88.7103C105.532 88.0614 105.083 87.1753 104.971 86.2154C104.914 85.7695 104.953 85.3164 105.084 84.8871C105.215 84.4577 105.435 84.0621 105.73 83.7275C106.025 83.3929 106.387 83.127 106.792 82.948C107.197 82.7691 107.635 82.6813 108.076 82.6906Z" fill="#242942"/>
<path fill-rule="evenodd" clip-rule="evenodd" d="M194.384 98.0928H180.569C180.04 98.1206 179.542 98.3542 179.177 98.7453C178.813 99.1365 178.609 99.6554 178.609 100.195C178.609 100.734 178.813 101.253 179.177 101.644C179.542 102.036 180.04 102.269 180.569 102.297H194.384C194.913 102.269 195.411 102.036 195.776 101.644C196.14 101.253 196.344 100.734 196.344 100.195C196.344 99.6554 196.14 99.1365 195.776 98.7453C195.411 98.3542 194.913 98.1206 194.384 98.0928Z" fill="#3B3A3A"/>
<path fill-rule="evenodd" clip-rule="evenodd" d="M163.481 98.3379H181.149C181.631 98.3394 182.093 98.5352 182.434 98.8826C182.776 99.23 182.968 99.7008 182.969 100.192C182.969 100.684 182.778 101.157 182.436 101.505C182.095 101.854 181.632 102.05 181.149 102.052H163.481V98.3379Z" fill="white"/>
<path fill-rule="evenodd" clip-rule="evenodd" d="M163.481 98.0928C163.417 98.0928 163.356 98.1186 163.311 98.1646C163.266 98.2105 163.24 98.2729 163.24 98.3378C163.24 98.4028 163.266 98.4651 163.311 98.5111C163.356 98.557 163.417 98.5829 163.481 98.5829H181.149C181.553 98.607 181.932 98.7874 182.209 99.0871C182.487 99.3867 182.641 99.783 182.641 100.195C182.641 100.607 182.487 101.003 182.209 101.303C181.932 101.602 181.553 101.783 181.149 101.807H163.481C163.417 101.807 163.356 101.833 163.311 101.879C163.266 101.925 163.24 101.987 163.24 102.052C163.24 102.117 163.266 102.179 163.311 102.225C163.356 102.271 163.417 102.297 163.481 102.297H181.149C181.678 102.269 182.176 102.036 182.541 101.644C182.906 101.253 183.109 100.734 183.109 100.195C183.109 99.6554 182.906 99.1365 182.541 98.7453C182.176 98.3542 181.678 98.1206 181.149 98.0928H163.481Z" fill="#242525"/>
<path fill-rule="evenodd" clip-rule="evenodd" d="M193.75 100.192C193.747 99.6353 193.528 99.1022 193.141 98.709C192.754 98.3158 192.23 98.0943 191.683 98.0928H193.476C194.005 98.1206 194.503 98.3542 194.868 98.7453C195.233 99.1365 195.436 99.6554 195.436 100.195C195.436 100.734 195.233 101.253 194.868 101.644C194.503 102.036 194.005 102.269 193.476 102.297H191.683C192.231 102.295 192.756 102.073 193.143 101.679C193.53 101.284 193.748 100.75 193.75 100.192Z" fill="#242525"/>
<path fill-rule="evenodd" clip-rule="evenodd" d="M191.137 100.192C191.137 99.6354 190.919 99.1014 190.533 98.7077C190.146 98.314 189.622 98.0928 189.076 98.0928H190.869C191.398 98.1206 191.896 98.3542 192.261 98.7453C192.625 99.1365 192.829 99.6554 192.829 100.195C192.829 100.734 192.625 101.253 192.261 101.644C191.896 102.036 191.398 102.269 190.869 102.297H189.076C189.347 102.297 189.615 102.242 189.866 102.137C190.116 102.031 190.343 101.876 190.535 101.68C190.726 101.485 190.878 101.253 190.981 100.997C191.085 100.742 191.137 100.468 191.137 100.192Z" fill="#242525"/>
<path fill-rule="evenodd" clip-rule="evenodd" d="M167.111 94.4066H179.208C179.566 94.4067 179.916 94.5149 180.213 94.7174C180.511 94.92 180.743 95.2078 180.88 95.5445C181.016 95.8812 181.052 96.2517 180.983 96.6092C180.913 96.9666 180.741 97.295 180.488 97.5528C180.15 97.9025 179.69 98.1026 179.208 98.1096H167.111C166.753 98.1084 166.404 97.9994 166.108 97.7965C165.811 97.5935 165.58 97.3056 165.444 96.9692C165.308 96.6327 165.272 96.2626 165.342 95.9057C165.412 95.5487 165.584 95.2209 165.837 94.9635C166.002 94.7892 166.2 94.6502 166.419 94.5546C166.637 94.459 166.873 94.4087 167.111 94.4066Z" fill="#C8DEE1"/>
<path fill-rule="evenodd" clip-rule="evenodd" d="M194.171 94.6237H178.7C178.277 94.6252 177.872 94.797 177.573 95.1016C177.274 95.4062 177.105 95.8189 177.104 96.2497C177.105 96.6804 177.274 97.0931 177.573 97.3977C177.872 97.7023 178.277 97.8741 178.7 97.8756H194.171V94.6237Z" fill="white"/>
<path fill-rule="evenodd" clip-rule="evenodd" d="M194.171 94.4065C194.201 94.4015 194.232 94.4033 194.262 94.4118C194.292 94.4202 194.319 94.4352 194.343 94.4556C194.366 94.4759 194.385 94.5013 194.398 94.5298C194.411 94.5584 194.418 94.5895 194.418 94.6209C194.418 94.6524 194.411 94.6834 194.398 94.712C194.385 94.7405 194.366 94.7659 194.343 94.7863C194.319 94.8067 194.292 94.8216 194.262 94.8301C194.232 94.8385 194.201 94.8403 194.171 94.8353H178.7C178.332 94.8371 177.98 94.9873 177.721 95.2529C177.593 95.3838 177.491 95.5391 177.421 95.7102C177.351 95.8812 177.316 96.0645 177.316 96.2497C177.316 96.4348 177.351 96.6181 177.421 96.7892C177.491 96.9602 177.593 97.1156 177.721 97.2464C177.98 97.512 178.332 97.6622 178.7 97.664H194.171C194.201 97.659 194.232 97.6608 194.262 97.6692C194.292 97.6777 194.319 97.6927 194.343 97.713C194.366 97.7334 194.385 97.7588 194.398 97.7873C194.411 97.8159 194.418 97.847 194.418 97.8784C194.418 97.9099 194.411 97.9409 194.398 97.9695C194.385 97.998 194.366 98.0234 194.343 98.0438C194.319 98.0641 194.292 98.0791 194.262 98.0876C194.232 98.096 194.201 98.0978 194.171 98.0928H178.7C178.342 98.0916 177.994 97.9826 177.697 97.7797C177.4 97.5767 177.169 97.2888 177.033 96.9523C176.897 96.6159 176.861 96.2458 176.931 95.8889C177.001 95.5319 177.173 95.2041 177.426 94.9467C177.592 94.7724 177.789 94.6334 178.008 94.5378C178.227 94.4422 178.462 94.3919 178.7 94.3898L194.171 94.4065Z" fill="#7A9297"/>
<path fill-rule="evenodd" clip-rule="evenodd" d="M167.668 96.2496C167.668 95.7607 167.859 95.2919 168.198 94.9462C168.537 94.6006 168.998 94.4064 169.478 94.4064H167.903C167.545 94.4049 167.194 94.5123 166.896 94.7148C166.597 94.9173 166.365 95.2058 166.228 95.5434C166.092 95.881 166.057 96.2524 166.128 96.6103C166.2 96.9681 166.374 97.2962 166.629 97.5526C166.965 97.9025 167.423 98.1028 167.903 98.1094H169.478C168.996 98.1024 168.536 97.9023 168.198 97.5526C168.03 97.3817 167.897 97.1786 167.806 96.9549C167.715 96.7313 167.668 96.4916 167.668 96.2496Z" fill="#7A9297"/>
<path fill-rule="evenodd" clip-rule="evenodd" d="M169.948 96.2498C169.948 95.7609 170.138 95.2921 170.478 94.9465C170.817 94.6008 171.277 94.4066 171.757 94.4066H170.183C169.944 94.4086 169.708 94.4588 169.488 94.5544C169.269 94.65 169.07 94.789 168.904 94.9635C168.651 95.2212 168.478 95.5496 168.409 95.907C168.339 96.2645 168.375 96.635 168.512 96.9717C168.648 97.3084 168.88 97.5962 169.178 97.7988C169.475 98.0013 169.825 98.1095 170.183 98.1096H171.757C171.275 98.1026 170.816 97.9025 170.478 97.5528C170.31 97.3818 170.176 97.1788 170.085 96.9551C169.994 96.7315 169.947 96.4918 169.948 96.2498Z" fill="#7A9297"/>
<path fill-rule="evenodd" clip-rule="evenodd" d="M189.497 90.7259H180.477C179.998 90.7288 179.541 90.9232 179.202 91.267C178.864 91.6108 178.671 92.0765 178.667 92.5634C178.669 92.8066 178.719 93.047 178.813 93.2706C178.906 93.4942 179.043 93.6967 179.214 93.8665C179.379 94.0412 179.576 94.1805 179.795 94.2762C180.014 94.3718 180.249 94.4218 180.487 94.4233H189.497C189.742 94.4371 189.988 94.3997 190.219 94.3134C190.45 94.2271 190.661 94.0938 190.84 93.9216C191.018 93.7493 191.161 93.5418 191.258 93.3116C191.355 93.0815 191.405 92.8335 191.405 92.5829C191.405 92.3324 191.355 92.0844 191.258 91.8543C191.161 91.6241 191.018 91.4166 190.84 91.2443C190.661 91.0721 190.45 90.9387 190.219 90.8525C189.988 90.7662 189.742 90.7288 189.497 90.7426V90.7259Z" fill="#040484"/>
<path fill-rule="evenodd" clip-rule="evenodd" d="M170.183 90.9652H180.985C181.408 90.9667 181.813 91.1385 182.112 91.4431C182.411 91.7477 182.58 92.1604 182.581 92.5912C182.581 93.0229 182.413 93.4371 182.114 93.7429C181.815 94.0487 181.409 94.2213 180.985 94.2228H170.183V90.9652Z" fill="white"/>
<path fill-rule="evenodd" clip-rule="evenodd" d="M170.183 90.7258C170.128 90.7258 170.075 90.7481 170.036 90.7878C169.997 90.8275 169.975 90.8813 169.975 90.9374C169.975 90.994 169.997 91.0485 170.036 91.089C170.074 91.1296 170.127 91.1531 170.183 91.1546H180.985C181.167 91.1541 181.347 91.1903 181.515 91.261C181.682 91.3317 181.835 91.4356 181.963 91.5666C182.093 91.6972 182.197 91.8528 182.267 92.0244C182.338 92.196 182.374 92.3801 182.374 92.5661C182.374 92.7522 182.338 92.9363 182.267 93.1079C182.197 93.2795 182.093 93.4351 181.963 93.5657C181.835 93.6967 181.682 93.8006 181.515 93.8713C181.347 93.942 181.167 93.9782 180.985 93.9777H170.183C170.133 93.986 170.087 94.0121 170.054 94.0513C170.022 94.0906 170.004 94.1405 170.004 94.1921C170.004 94.2437 170.022 94.2936 170.054 94.3329C170.087 94.3722 170.133 94.3983 170.183 94.4065H180.985C181.23 94.4203 181.476 94.3829 181.707 94.2966C181.938 94.2103 182.149 94.077 182.328 93.9048C182.507 93.7325 182.649 93.525 182.746 93.2948C182.844 93.0647 182.894 92.8167 182.894 92.5661C182.894 92.3156 182.844 92.0676 182.746 91.8375C182.649 91.6073 182.507 91.3998 182.328 91.2275C182.149 91.0553 181.938 90.922 181.707 90.8357C181.476 90.7494 181.23 90.712 180.985 90.7258H170.183Z" fill="#1C04FC"/>
<path fill-rule="evenodd" clip-rule="evenodd" d="M188.917 92.5634C188.916 92.0755 188.724 91.6081 188.385 91.2637C188.046 90.9192 187.587 90.7258 187.108 90.7258H188.682C188.928 90.712 189.173 90.7494 189.404 90.8357C189.635 90.922 189.847 91.0553 190.025 91.2275C190.204 91.3998 190.346 91.6073 190.443 91.8375C190.541 92.0676 190.591 92.3156 190.591 92.5661C190.591 92.8167 190.541 93.0647 190.443 93.2948C190.346 93.525 190.204 93.7325 190.025 93.9048C189.847 94.077 189.635 94.2103 189.404 94.2966C189.173 94.3829 188.928 94.4203 188.682 94.4065H187.108C187.587 94.4065 188.048 94.2123 188.387 93.8667C188.726 93.521 188.917 93.0522 188.917 92.5634Z" fill="#1C04FC"/>
<path fill-rule="evenodd" clip-rule="evenodd" d="M186.637 92.5634C186.636 92.0755 186.445 91.6081 186.105 91.2637C185.766 90.9192 185.307 90.7258 184.828 90.7258H186.402C186.648 90.712 186.894 90.7494 187.125 90.8357C187.356 90.922 187.567 91.0553 187.746 91.2275C187.924 91.3998 188.067 91.6073 188.164 91.8375C188.261 92.0676 188.311 92.3156 188.311 92.5661C188.311 92.8167 188.261 93.0647 188.164 93.2948C188.067 93.525 187.924 93.7325 187.746 93.9048C187.567 94.077 187.356 94.2103 187.125 94.2966C186.894 94.3829 186.648 94.4203 186.402 94.4065H184.828C185.308 94.4065 185.768 94.2123 186.107 93.8667C186.447 93.521 186.637 93.0522 186.637 92.5634Z" fill="#1C04FC"/>
<path d="M131.102 162.642H126.86C126.382 162.642 125.996 163.036 125.996 163.521V170.109C125.996 170.595 126.382 170.989 126.86 170.989H131.102C131.579 170.989 131.965 170.595 131.965 170.109V163.521C131.965 163.036 131.579 162.642 131.102 162.642Z" fill="#040484"/>
<path fill-rule="evenodd" clip-rule="evenodd" d="M133.42 172.96V169.062C133.42 168.449 132.933 168.009 132.933 167.169V164.535C132.933 164.234 132.49 163.839 132.282 163.738C131.437 163.729 130.609 163.983 129.91 164.468C129.91 164.468 129.391 164.691 129.391 165.932V169.229C129.391 169.925 128.8 170.098 128.341 170.098H127.794C127.444 170.098 126.92 170.003 126.92 169.045V165.415C126.811 164.762 126.478 164.169 125.979 163.744C125.717 163.566 125.05 164.034 124.886 164.206C124.791 164.316 124.719 164.446 124.674 164.585C124.63 164.725 124.615 164.873 124.629 165.019V169.474C124.629 169.97 123.536 170.727 123.536 171.946V173.266C123.536 173.496 123.602 173.72 123.727 173.912C123.791 174.026 123.844 174.145 123.886 174.268H132.906C133.08 174.102 133.216 173.898 133.305 173.672C133.393 173.446 133.433 173.203 133.42 172.96Z" fill="#1C04FC"/>
<path fill-rule="evenodd" clip-rule="evenodd" d="M133.42 172.96V169.062C133.42 168.449 132.933 168.009 132.933 167.169V164.535C132.933 164.234 132.49 163.839 132.282 163.738C131.815 163.708 131.347 163.79 130.916 163.978C131.191 164.194 131.444 164.438 131.67 164.707C131.747 164.88 131.67 166.439 131.67 167.28C131.67 168.121 132.217 168.678 132.217 168.912V170.242C132.227 170.481 132.186 170.718 132.098 170.939C132.01 171.16 131.877 171.359 131.707 171.523C131.537 171.687 131.334 171.812 131.113 171.89C130.892 171.968 130.657 171.997 130.424 171.974C129.008 171.874 129.216 170.972 127.384 170.972H124.574C124.452 170.984 124.328 170.966 124.213 170.918C124.099 170.871 123.998 170.795 123.918 170.699C123.682 171.069 123.551 171.499 123.541 171.941V173.26C123.541 173.49 123.608 173.715 123.733 173.906C123.796 174.02 123.849 174.139 123.891 174.263H132.911C133.084 174.096 133.218 173.893 133.306 173.668C133.394 173.443 133.433 173.201 133.42 172.96Z" fill="#040484"/>
<path fill-rule="evenodd" clip-rule="evenodd" d="M133.419 172.96C133.419 172.96 133.966 173.266 134.07 173.333C134.138 173.887 134.16 174.446 134.136 175.003C134.026 175.361 133.822 175.681 133.545 175.928C133.395 176.036 133.215 176.094 133.031 176.095H123.836C123.718 176.096 123.605 176.05 123.52 175.967C123.435 175.883 123.386 175.769 123.383 175.649V174.396C123.383 174.174 123.738 173.945 123.738 173.945C123.991 174.063 124.269 174.116 124.547 174.1C124.825 174.085 125.095 174.001 125.334 173.856C126.056 173.338 126.728 172.949 127.69 173.299C128.653 173.65 131.818 175.048 133.419 172.96Z" fill="white"/>
<path fill-rule="evenodd" clip-rule="evenodd" d="M133.42 172.96C133.42 172.96 133.966 173.266 134.07 173.333C134.138 173.887 134.16 174.446 134.136 175.003C134.026 175.361 133.822 175.681 133.545 175.928C133.395 176.036 133.215 176.094 133.031 176.095H127.018L125.837 175.722H131.55C132.299 175.722 132.698 175.454 132.698 175.193V174.079C132.689 174.014 132.668 173.952 132.634 173.896C132.6 173.84 132.555 173.793 132.501 173.756C132.864 173.568 133.179 173.295 133.42 172.96Z" fill="#F2DDDC"/>
<path fill-rule="evenodd" clip-rule="evenodd" d="M128.74 175.198C129.43 175.581 130.165 175.875 130.927 176.072H123.82C123.702 176.074 123.588 176.028 123.503 175.945C123.418 175.861 123.369 175.747 123.366 175.627V175.421C123.619 175.546 123.899 175.603 124.179 175.587C124.46 175.57 124.731 175.48 124.968 175.326C125.646 174.775 126.991 174.279 128.74 175.198Z" fill="#00000F"/>
<path fill-rule="evenodd" clip-rule="evenodd" d="M126.313 165.159C126.288 165.153 126.265 165.142 126.244 165.127C126.224 165.111 126.208 165.091 126.196 165.068C126.184 165.046 126.177 165.02 126.175 164.995C126.174 164.969 126.178 164.943 126.187 164.919C126.211 164.869 126.252 164.83 126.303 164.81C126.353 164.789 126.409 164.788 126.46 164.808L130.068 165.921C130.093 165.927 130.117 165.938 130.137 165.953C130.157 165.969 130.174 165.989 130.186 166.012C130.198 166.034 130.205 166.059 130.206 166.085C130.207 166.111 130.203 166.137 130.194 166.161C130.169 166.209 130.127 166.247 130.077 166.267C130.027 166.287 129.972 166.289 129.921 166.272L126.313 165.159Z" fill="white"/>
<path fill-rule="evenodd" clip-rule="evenodd" d="M126.313 166.968C126.288 166.963 126.265 166.952 126.244 166.936C126.224 166.921 126.208 166.901 126.196 166.878C126.184 166.855 126.177 166.83 126.175 166.805C126.174 166.779 126.178 166.753 126.187 166.729C126.211 166.679 126.252 166.64 126.303 166.619C126.353 166.599 126.409 166.598 126.46 166.618L130.068 167.731C130.093 167.737 130.117 167.748 130.137 167.763C130.157 167.779 130.174 167.799 130.186 167.821C130.198 167.844 130.205 167.869 130.206 167.895C130.207 167.921 130.203 167.947 130.194 167.971C130.169 168.019 130.127 168.057 130.077 168.077C130.027 168.097 129.972 168.099 129.921 168.082L126.313 166.968Z" fill="white"/>
<path fill-rule="evenodd" clip-rule="evenodd" d="M126.313 168.778C126.288 168.773 126.265 168.762 126.244 168.746C126.224 168.731 126.208 168.711 126.196 168.688C126.184 168.665 126.177 168.64 126.175 168.614C126.174 168.588 126.178 168.563 126.187 168.539C126.213 168.49 126.254 168.453 126.304 168.432C126.354 168.412 126.409 168.41 126.46 168.427L130.068 169.541C130.093 169.546 130.117 169.557 130.137 169.573C130.157 169.588 130.174 169.608 130.186 169.631C130.198 169.654 130.205 169.679 130.206 169.705C130.207 169.731 130.203 169.756 130.194 169.78C130.169 169.829 130.127 169.866 130.077 169.887C130.027 169.907 129.972 169.909 129.921 169.892L126.313 168.778Z" fill="white"/>
<path fill-rule="evenodd" clip-rule="evenodd" d="M129.91 164.808C129.961 164.788 130.017 164.789 130.068 164.81C130.118 164.83 130.159 164.869 130.183 164.919C130.193 164.943 130.197 164.969 130.195 164.995C130.194 165.02 130.187 165.046 130.175 165.068C130.163 165.091 130.146 165.111 130.126 165.127C130.106 165.142 130.082 165.153 130.058 165.159L126.45 166.272C126.398 166.289 126.343 166.287 126.293 166.267C126.243 166.247 126.202 166.209 126.176 166.161C126.167 166.137 126.163 166.111 126.164 166.085C126.166 166.059 126.173 166.034 126.185 166.012C126.197 165.989 126.213 165.969 126.234 165.953C126.254 165.938 126.277 165.927 126.302 165.921L129.91 164.808Z" fill="white"/>
<path fill-rule="evenodd" clip-rule="evenodd" d="M129.91 166.618C129.961 166.598 130.017 166.599 130.068 166.619C130.118 166.64 130.159 166.679 130.183 166.729C130.193 166.753 130.197 166.779 130.195 166.805C130.194 166.83 130.187 166.855 130.175 166.878C130.163 166.901 130.146 166.921 130.126 166.936C130.106 166.952 130.082 166.963 130.058 166.968L126.45 168.082C126.398 168.099 126.343 168.097 126.293 168.077C126.243 168.057 126.202 168.019 126.176 167.971C126.167 167.947 126.163 167.921 126.164 167.895C126.166 167.869 126.173 167.844 126.185 167.821C126.197 167.799 126.213 167.779 126.234 167.763C126.254 167.748 126.277 167.737 126.302 167.731L129.91 166.618Z" fill="white"/>
<path fill-rule="evenodd" clip-rule="evenodd" d="M129.91 168.427C129.961 168.41 130.016 168.412 130.066 168.432C130.116 168.453 130.158 168.49 130.183 168.539C130.193 168.563 130.197 168.588 130.195 168.614C130.194 168.64 130.187 168.665 130.175 168.688C130.163 168.711 130.146 168.731 130.126 168.746C130.106 168.762 130.082 168.773 130.058 168.778L126.45 169.892C126.398 169.909 126.343 169.907 126.293 169.887C126.243 169.866 126.202 169.829 126.176 169.78C126.167 169.756 126.163 169.731 126.164 169.705C126.166 169.679 126.173 169.654 126.185 169.631C126.197 169.608 126.213 169.588 126.234 169.573C126.254 169.557 126.277 169.546 126.302 169.541L129.91 168.427Z" fill="white"/>
</g>
<defs>
<clipPath id="clip0">
<rect width="246" height="188" fill="white"/>
</clipPath>
</defs>
</svg>
