<svg width="40" height="30" viewBox="0 0 40 30" fill="none" xmlns="http://www.w3.org/2000/svg">
<g clip-path="url(#clip0)">
<path d="M13.5285 29.7045C13.7889 29.8985 14.2107 29.8985 14.4712 29.7045L17.8045 27.217L16.8618 26.5135L13.9998 28.6492L1.60935 19.4028L9.1379 13.7845L8.1952 13.0811L0.19531 19.051C-0.0647778 19.2454 -0.0647778 19.5602 0.19531 19.7545L13.5285 29.7045Z" fill="#1C04FC"/>
<path d="M39.9956 10.3935L38.6623 1.43854C38.6277 1.20703 38.383 1.02412 38.0727 0.998611L26.0729 0.00361679C25.872 -0.0121729 25.6719 0.0402975 25.5283 0.146453L20.8617 3.62893L21.8044 4.33242L26.2444 1.01902L37.3996 1.94332L38.6382 10.2655L36.0223 12.2178L34.7554 5.85917C35.6649 5.58953 36.1818 4.87049 35.9797 4.15606C35.7778 3.44164 34.9156 2.93977 33.9377 2.96722C32.9602 2.99491 32.1513 3.54391 32.022 4.26781C31.8928 4.99146 32.481 5.67941 33.4149 5.89706L34.4462 11.071L25.1377 4.12643C24.8773 3.93209 24.4554 3.93209 24.195 4.12643L20.8617 6.61391L21.8044 7.31741L24.6663 5.18167L33.0569 11.4431L31.5282 12.5839L32.4709 13.2874L34.4709 11.7949C34.5087 11.7628 34.5406 11.7271 34.5656 11.689L34.8456 13.0933L33.5282 14.0764L34.4709 14.7799L35.0894 14.3181L35.5129 16.4385C35.6135 17.0507 36.1554 17.5725 36.9246 17.7979C37.6942 18.0233 38.5669 17.9162 39.199 17.5188C39.8309 17.1214 40.1206 16.4978 39.9536 15.8936L38.7267 11.6037L39.8042 10.7999C39.9474 10.693 40.0177 10.5436 39.9956 10.3935ZM33.9996 3.98068C34.3677 3.98068 34.6662 4.20343 34.6662 4.47817C34.6662 4.75292 34.3677 4.97567 33.9996 4.97567C33.6314 4.97567 33.3329 4.75292 33.3329 4.47817C33.3329 4.20343 33.6314 3.98068 33.9996 3.98068ZM38.6483 16.0958C38.7121 16.3423 38.5903 16.5954 38.3302 16.7553C38.0705 16.9151 37.714 16.9559 37.4019 16.8617C37.0897 16.7674 36.8716 16.5534 36.8335 16.3037L36.2661 13.4426L37.6069 12.442L38.6483 16.0958Z" fill="#1C04FC"/>
<path d="M4.86261 19.3497L9.19562 16.1162L10.1383 16.8197L5.80532 20.0532L4.86261 19.3497Z" fill="#1C04FC"/>
<path d="M6.92798 20.8917L11.261 17.6582L12.204 18.3617L7.87069 21.5952L6.92798 20.8917Z" fill="#1C04FC"/>
<path d="M8.995 22.4339L11.5282 20.5435L12.4712 21.247L9.9377 23.1374L8.995 22.4339Z" fill="#1C04FC"/>
<path d="M11.0617 23.9763L12.8622 22.6329L13.8049 23.3364L12.0047 24.6801L11.0617 23.9763Z" fill="#1C04FC"/>
<path d="M13.1284 25.5186L14.4617 24.5238L15.4044 25.2273L14.0714 26.2221L13.1284 25.5186Z" fill="#1C04FC"/>
<path d="M23.9997 27.3628C26.2708 27.3621 28.4817 26.817 30.3062 25.8077L35.1141 29.3956C35.9269 30.0019 37.2443 30.0019 38.0568 29.3956C38.8693 28.7892 38.8693 27.8059 38.0568 27.1996L33.1376 23.5286L33.0523 23.5922C35.6046 20.5113 35.0441 16.5325 31.6897 13.9148C28.3349 11.2969 23.0335 10.7018 18.7953 12.467C14.5567 14.2323 12.4526 17.9121 13.6775 21.4171C14.9021 24.922 19.1459 27.3665 23.9997 27.3628ZM37.1141 27.9031C37.4061 28.121 37.4061 28.4742 37.1141 28.6921C36.8221 28.91 36.3488 28.91 36.0568 28.6921L31.3329 25.1673C31.6958 24.911 32.0341 24.6363 32.3456 24.345L37.1141 27.9031ZM23.9997 12.4379C29.1542 12.4379 33.3329 15.5562 33.3329 19.4029C33.3329 23.2495 29.1542 26.3678 23.9997 26.3678C18.8451 26.3678 14.6664 23.2495 14.6664 19.4029C14.672 15.5579 18.8474 12.442 23.9997 12.4379Z" fill="#1C04FC"/>
<path d="M23.9997 25.3728C28.4179 25.3728 31.9996 22.7 31.9996 19.4028C31.9996 16.1057 28.4179 13.4329 23.9997 13.4329C19.5814 13.4329 15.9998 16.1057 15.9998 19.4028C16.0046 22.6985 19.5834 25.3691 23.9997 25.3728ZM23.9997 14.4279C27.6816 14.4279 30.6662 16.6552 30.6662 19.4028C30.6662 22.1505 27.6816 24.3778 23.9997 24.3778C20.3177 24.3778 17.3331 22.1505 17.3331 19.4028C17.337 16.6564 20.3194 14.4308 23.9997 14.4279Z" fill="#1C04FC"/>
<path d="M24.6664 21.3928H23.333C22.9649 21.3928 22.6664 21.1701 22.6664 20.8953H21.3331C21.3331 21.7196 22.2286 22.3878 23.333 22.3878V23.3828H24.6664V22.3878C25.7708 22.3878 26.6663 21.7196 26.6663 20.8953V20.3978C26.6663 19.5736 25.7708 18.9053 24.6664 18.9053H23.333C22.9649 18.9053 22.6664 18.6826 22.6664 18.4078V17.9103C22.6664 17.6356 22.9649 17.4128 23.333 17.4128H24.6664C25.0345 17.4128 25.333 17.6356 25.333 17.9103H26.6663C26.6663 17.0861 25.7708 16.4178 24.6664 16.4178V15.4229H23.333V16.4178C22.2286 16.4178 21.3331 17.0861 21.3331 17.9103V18.4078C21.3331 19.2321 22.2286 19.9003 23.333 19.9003H24.6664C25.0345 19.9003 25.333 20.1231 25.333 20.3978V20.8953C25.333 21.1701 25.0345 21.3928 24.6664 21.3928Z" fill="#1C04FC"/>
<path d="M3.33329 11.9405H7.78668L12.2791 14.335C12.3921 14.3955 12.5275 14.428 12.6665 14.428C12.7948 14.4278 12.9204 14.4001 13.0285 14.3483C13.2593 14.2371 13.3748 14.0318 13.3198 13.8309L12.8133 11.9405H16.6664C18.5066 11.9388 19.9975 10.826 19.9997 9.45306V2.4881C19.9975 1.11488 18.5066 0.00231078 16.6664 0.000610352H3.33329C1.49314 0.00231078 0.00227862 1.11488 0 2.4881V9.45306C0.00227862 10.826 1.49314 11.9388 3.33329 11.9405ZM1.33332 2.4881C1.33332 1.66387 2.22881 0.995605 3.33329 0.995605H16.6664C17.7709 0.995605 18.6664 1.66387 18.6664 2.4881V9.45306C18.6664 10.2773 17.7709 10.9455 16.6664 10.9455H11.9998C11.7996 10.9455 11.6099 11.0126 11.4832 11.1282C11.3566 11.2441 11.3065 11.3962 11.3465 11.5424L11.6799 12.7966L8.38531 11.0405C8.27333 10.9796 8.13856 10.9463 7.99989 10.9455H3.33329C2.22881 10.9455 1.33332 10.2773 1.33332 9.45306V2.4881Z" fill="#1C04FC"/>
<path d="M3.33334 9.95037H17.3332V8.95537H4V7.62855L5.33332 6.30222L6.8001 7.76143C6.93388 7.88653 7.13668 7.95965 7.3512 7.96038C7.56766 7.95601 7.76786 7.87341 7.88797 7.73884L10.0592 5.3082L12.8205 7.78183C12.9478 7.89479 13.1353 7.96014 13.3332 7.96038C13.354 7.96135 13.3749 7.96135 13.396 7.96038C13.6148 7.94483 13.8091 7.85009 13.9159 7.70653L17.2492 3.22906L16.0838 2.74662L13.2225 6.58935L10.5126 4.16138C10.3795 4.03846 10.1754 3.97093 9.96379 3.98041C9.75416 3.98891 9.56178 4.07077 9.44524 4.20122L7.30139 6.60222L5.86651 5.17435C5.73533 5.05532 5.5397 4.98633 5.33332 4.98633C5.12694 4.98633 4.93131 5.05532 4.80012 5.17435L4 5.97039V2.48792H2.66669V9.45287C2.66669 9.72761 2.96519 9.95037 3.33334 9.95037Z" fill="#1C04FC"/>
</g>
<defs>
<clipPath id="clip0">
<rect width="40" height="29.8502" fill="white"/>
</clipPath>
</defs>
</svg>
