<svg width="40" height="30" viewBox="0 0 40 30" fill="none" xmlns="http://www.w3.org/2000/svg">
<g clip-path="url(#clip0)">
<path d="M23.8196 18.4206L17.0002 17.2236V13.7167C17.0582 13.6828 17.1182 13.6525 17.1756 13.6172C19.44 12.2077 20.8145 10.1575 20.9682 7.96006H21.0002C21.3684 7.96006 21.6669 7.7373 21.6669 7.46255V6.96505C21.6669 3.11835 17.4882 0 12.3336 0C7.17889 0 3.00022 3.11835 3.00022 6.96505V7.96006C3.00022 8.23481 3.29872 8.45756 3.66689 8.45756C3.69422 8.45563 3.72139 8.45253 3.74822 8.44811C4.06114 10.4657 5.40139 12.3163 7.49156 13.6172C7.54822 13.6525 7.60889 13.6828 7.66689 13.7167V17.2236L0.847557 18.4206C0.546224 18.4735 0.333307 18.6742 0.333557 18.9051V29.3527C0.333557 29.6275 0.632057 29.8502 1.00022 29.8502H23.6669C24.0351 29.8502 24.3336 29.6275 24.3336 29.3527V18.9051C24.3337 18.6742 24.1208 18.4735 23.8196 18.4206ZM7.66689 28.8552H1.66689V19.2992L7.66689 18.2459V28.8552ZM4.33356 6.96505C4.33356 3.66791 7.91531 0.995007 12.3336 0.995007C16.7518 0.995007 20.3336 3.66791 20.3336 6.96505H18.3336C16.4936 6.96343 15.0024 5.85064 15.0002 4.47753C15.0006 4.20279 14.7023 3.97984 14.3341 3.97959C14.2853 3.97959 14.2366 3.98351 14.1889 3.99147L13.7889 4.05814C10.4244 4.61298 7.22147 5.6157 4.33356 7.01828V6.96505ZM15.6669 28.8552H9.00022V19.7613L11.3629 19.1738L9.69022 23.7508C9.64706 23.8689 9.66364 23.9946 9.73689 24.1041L11.7369 27.0891C11.9015 27.3348 12.3019 27.4345 12.6313 27.3116C12.7604 27.2635 12.8651 27.1854 12.9296 27.0891L14.9296 24.1041C15.0028 23.9946 15.0194 23.8689 14.9762 23.7508L13.3036 19.1738L15.6669 19.7613V28.8552ZM9.00022 18.7121V17.7201L10.5956 18.3171L9.00022 18.7121ZM12.3336 20.2981L13.6236 23.8279L12.3336 25.7528L11.0436 23.8279L12.3336 20.2981ZM15.6669 18.7121L14.0716 18.3141L15.6669 17.7201V18.7121ZM15.6669 16.6072L12.3336 17.8509L9.00022 16.6072V14.343C10.037 14.7249 11.1774 14.924 12.3336 14.9251C13.4898 14.9238 14.6301 14.7245 15.6669 14.3425V16.6072ZM8.34622 12.8525C6.35572 11.6111 5.15331 9.80418 5.03089 7.87051C7.69447 6.57184 10.6414 5.63006 13.7389 5.08747C14.1381 6.7482 16.0726 7.9577 18.3336 7.96006H19.6349C19.4818 9.86208 18.2829 11.6324 16.3216 12.8525C14.0118 14.2895 10.6559 14.2895 8.34622 12.8525ZM23.0002 28.8552H17.0002V18.2459L23.0002 19.2992V28.8552Z" fill="#1C04FC"/>
<path d="M17.6669 7.96008H13.6669C13.2987 7.96008 13.0002 8.18284 13.0002 8.45759V8.95509H11.6669V8.45759C11.6669 8.18284 11.3684 7.96008 11.0002 7.96008H7.00022C6.63206 7.96008 6.33356 8.18284 6.33356 8.45759V10.4476C6.33356 10.7223 6.63206 10.9451 7.00022 10.9451H11.0002C11.3684 10.9451 11.6669 10.7223 11.6669 10.4476V9.9501H13.0002V10.4476C13.0002 10.7223 13.2987 10.9451 13.6669 10.9451H17.6669C18.0351 10.9451 18.3336 10.7223 18.3336 10.4476V8.45759C18.3336 8.18284 18.0351 7.96008 17.6669 7.96008ZM10.3336 9.9501H7.66689V8.95509H10.3336V9.9501ZM17.0002 9.9501H14.3336V8.95509H17.0002V9.9501Z" fill="#1C04FC"/>
<path d="M39.4397 12.4039C39.3587 12.3184 39.2588 12.2438 39.1442 12.1833V12.1819L37.7549 11.4505L38.4669 10.2983C38.7531 9.83674 38.4837 9.28943 37.8652 9.07581C37.7364 9.03135 37.5983 9.00374 37.4569 8.99434L35.7649 8.88091L35.6122 7.61725C35.5491 7.11061 34.9475 6.73804 34.2685 6.78518C34.1295 6.79482 33.9936 6.82199 33.8668 6.86553L32.3241 7.39736L31.3435 6.36006C30.9496 5.94434 30.1787 5.84564 29.6216 6.13954C29.5071 6.19999 29.4071 6.27455 29.3261 6.36006L28.3461 7.39686L26.8001 6.86553C26.1816 6.65191 25.4482 6.85296 25.162 7.31452C25.1024 7.41067 25.0654 7.51371 25.0528 7.61924L24.9008 8.88191L23.2075 8.99584C22.5285 9.04298 22.0293 9.49191 22.0925 9.99862C22.1054 10.1023 22.1418 10.2037 22.2001 10.2983L22.9128 11.4495L21.5235 12.1809C20.9664 12.4748 20.8341 13.0501 21.228 13.4658C21.309 13.5513 21.4089 13.6259 21.5235 13.6863L22.9128 14.4176L22.2001 15.5718C21.9139 16.0334 22.1833 16.5807 22.8018 16.7943C22.9306 16.8388 23.0687 16.8664 23.2101 16.8758L24.9021 16.9892L25.0548 18.2529C25.0915 18.5508 25.3197 18.817 25.6668 18.9668V24.8752C25.6669 25.1499 25.9654 25.3726 26.3336 25.3725C26.5104 25.3725 26.6798 25.3201 26.8048 25.2269L30.3335 22.5936L33.8621 25.2269C34.1226 25.4212 34.5446 25.4211 34.805 25.2268C34.9299 25.1335 35.0001 25.007 35.0001 24.8752V18.9668C35.3476 18.8167 35.5757 18.5502 35.6121 18.2519L35.7641 16.9892L37.4575 16.8753C38.1366 16.8292 38.637 16.381 38.5752 15.8743C38.5625 15.7696 38.5258 15.6673 38.4668 15.5718L37.7541 14.4206L39.1441 13.6888C39.7013 13.3948 39.8336 12.8196 39.4397 12.4039ZM33.667 23.6742L30.805 21.5384C30.5446 21.3442 30.1226 21.3442 29.8623 21.5384L27.0003 23.6742V18.937L28.345 18.4733L29.3256 19.5106C29.7196 19.9263 30.4904 20.025 31.0475 19.7311C31.1621 19.6707 31.262 19.5961 31.343 19.5106L32.323 18.4738L33.667 18.937V23.6742ZM36.919 13.6415C36.431 13.8975 36.2588 14.3776 36.5103 14.7813L37.2003 15.8932L35.5663 16.0032C34.9712 16.0424 34.4991 16.394 34.4456 16.838L34.297 18.0594L32.8083 17.5454C32.2675 17.3585 31.6249 17.4866 31.281 17.8499L30.3336 18.8514L29.387 17.8494C29.0438 17.4854 28.4006 17.3569 27.8596 17.5444L26.3696 18.0594L26.2223 16.84C26.1698 16.3959 25.6986 16.0436 25.1036 16.0037L23.467 15.8927L24.1556 14.7818C24.4073 14.3783 24.2354 13.8982 23.7476 13.642L22.4056 12.9351L23.7483 12.2286C24.2363 11.9727 24.4085 11.4925 24.157 11.0888L23.467 9.97691L25.101 9.86697C25.696 9.82779 26.1681 9.47618 26.2216 9.03216L26.369 7.81178L27.8576 8.3257C28.3984 8.51369 29.0419 8.3854 29.385 8.02123L30.3336 7.01876L31.2803 8.02073C31.6235 8.38472 32.2667 8.5132 32.8076 8.3257L34.2976 7.81078L34.445 9.03016C34.4975 9.47425 34.9686 9.82654 35.5636 9.86647L37.199 9.97642L36.5103 11.0873C36.2586 11.4909 36.4306 11.971 36.9183 12.2271L38.2616 12.9351L36.919 13.6415Z" fill="#1C04FC"/>
<path d="M30.3336 8.45752C27.0199 8.45752 24.3336 10.4621 24.3336 12.9351C24.3336 15.4079 27.0199 17.4126 30.3336 17.4126C33.6473 17.4126 36.3336 15.4079 36.3336 12.9351C36.3298 10.4633 33.6457 8.46026 30.3336 8.45752ZM30.3336 16.4176C27.7562 16.4176 25.6669 14.8584 25.6669 12.9351C25.6669 11.0117 27.7562 9.45253 30.3336 9.45253C32.9109 9.45253 35.0002 11.0117 35.0002 12.9351C34.9972 14.8575 32.9096 16.4154 30.3336 16.4176Z" fill="#1C04FC"/>
<path d="M35.6669 3.48254H34.3336V4.47828H35.6669V3.48254Z" fill="#1C04FC"/>
<path d="M38.3336 3.48254H37.0002V4.47828H38.3336V3.48254Z" fill="#1C04FC"/>
<path d="M37.0003 2.48755H35.6669V3.48328H37.0003V2.48755Z" fill="#1C04FC"/>
<path d="M37.0003 4.47754H35.6669V5.47328H37.0003V4.47754Z" fill="#1C04FC"/>
<path d="M28.3336 0.995728H27.0002V1.99146H28.3336V0.995728Z" fill="#1C04FC"/>
<path d="M31.0003 0.995728H29.6669V1.99146H31.0003V0.995728Z" fill="#1C04FC"/>
<path d="M29.6669 0H28.3336V0.995737H29.6669V0Z" fill="#1C04FC"/>
<path d="M29.6669 1.99011H28.3336V2.98585H29.6669V1.99011Z" fill="#1C04FC"/>
</g>
<defs>
<clipPath id="clip0">
<rect width="40" height="29.8502" fill="white"/>
</clipPath>
</defs>
</svg>
