<svg width="40" height="30" viewBox="0 0 40 30" fill="none" xmlns="http://www.w3.org/2000/svg">
<g clip-path="url(#clip0)">
<path d="M39.343 14.2354C39.0353 13.9976 38.6548 13.8334 38.2376 13.7546C38.4851 13.4611 38.6093 13.119 38.5922 12.763C38.548 11.8336 37.4783 11.0773 36.2079 11.0773H31.5671L31.5625 5.88847C31.5625 4.76344 30.336 3.84792 28.8281 3.84792C27.3203 3.84792 26.0938 4.76344 26.0938 5.88847V7.26174C26.0938 7.61406 25.994 7.95407 25.8102 8.26448C22.3694 8.16815 19.6094 6.05017 19.6094 3.45917V2.82765C19.6094 2.42568 19.1714 2.09888 18.6328 2.09888H8.55469C8.01605 2.09888 7.57812 2.42568 7.57812 2.82765V3.32321C7.57812 5.97547 4.68689 8.13308 1.13281 8.13308H0.976562C0.437927 8.13308 0 8.45988 0 8.86184V17.6071C0 23.2008 6.09802 27.7515 13.5938 27.7515C18.9108 27.7515 23.7146 25.4495 25.9363 21.8631H34.1046C34.6378 21.8631 35.159 21.6991 35.5347 21.4135C35.9045 21.1322 36.1032 20.7644 36.0934 20.3777C36.0886 20.181 36.0303 19.9933 35.929 19.8225H36.2079C37.4783 19.8225 38.548 19.0662 38.5922 18.1368C38.6093 17.7779 38.4833 17.4333 38.2315 17.1381C39.2142 16.9409 39.9619 16.2871 39.9985 15.5132C40.0214 15.0338 39.7885 14.5799 39.343 14.2354ZM13.5938 26.877C6.74438 26.877 1.17188 22.7185 1.17188 17.6071V9.0076C5.354 8.99166 8.75 6.4478 8.75 3.32321V2.9734H18.4375V3.45917C18.4375 6.33006 21.304 8.71017 25.0131 9.09027C24.8724 9.18592 24.7205 9.27405 24.556 9.35217L21.355 10.8721C21.0724 11.0065 20.7462 11.0773 20.4114 11.0773H19.6906C19.472 10.5382 18.8007 10.1445 18.0078 10.1445H14.7266C13.9627 10.1445 13.3115 10.51 13.0695 11.019H10.1953C9.35516 11.019 8.67188 11.5291 8.67188 12.1559V19.6768C8.67188 20.3037 9.35516 20.8136 10.1953 20.8136H12.9688V25.1154C7.70477 24.8881 3.51562 21.6205 3.51562 17.6362V10.3911C7.54028 10.1725 10.7477 7.72109 10.9174 4.69329H12.9688V8.54119C12.9688 8.78282 13.2312 8.97845 13.5547 8.97845C13.8782 8.97845 14.1406 8.78282 14.1406 8.54119V4.25603C14.1406 4.0144 13.8782 3.81877 13.5547 3.81877H10.3384C10.015 3.81877 9.7525 4.0144 9.7525 4.25603V4.44073C9.7525 7.24831 6.69189 9.53231 2.92969 9.53231C2.6062 9.53231 2.34375 9.72794 2.34375 9.96957V17.6362C2.34375 22.2493 7.37305 26.0025 13.5547 26.0025C13.8782 26.0025 14.1406 25.8068 14.1406 25.5652V21.6433C14.2776 21.6718 14.4214 21.6882 14.5703 21.6882H18.0078C18.5822 21.6882 19.093 21.4816 19.4138 21.1628L20.0388 21.4269C20.7132 21.7123 21.4792 21.8631 22.254 21.8631H24.632C22.5092 24.9296 18.2687 26.877 13.5938 26.877ZM12.9688 19.9391H10.1953C10.0015 19.9391 9.84375 19.8214 9.84375 19.6768V12.1559C9.84375 12.0113 10.0015 11.8935 10.1953 11.8935H12.9688V19.9391ZM37.6141 16.3244H33.0469C32.7234 16.3244 32.4609 16.5201 32.4609 16.7617C32.4609 17.0033 32.7234 17.199 33.0469 17.199H36.25C36.5707 17.199 36.8704 17.2939 37.0935 17.4663C37.3163 17.6385 37.4326 17.8658 37.421 18.1058C37.399 18.5702 36.8546 18.948 36.2079 18.948H34.1406C34.1275 18.948 34.1144 18.9489 34.1016 18.9494C34.0887 18.9489 34.0756 18.948 34.0625 18.948H33.0469C32.7234 18.948 32.4609 19.1436 32.4609 19.3853C32.4609 19.6269 32.7234 19.8225 33.0469 19.8225H34.0625C34.0756 19.8225 34.0887 19.8216 34.1016 19.8211C34.1144 19.8216 34.1275 19.8225 34.1406 19.8225C34.5633 19.8225 34.9139 20.079 34.9219 20.3944C34.9255 20.5442 34.8462 20.6886 34.6985 20.8011C34.5416 20.9202 34.3253 20.9885 34.1049 20.9885H22.254C21.6812 20.9885 21.1151 20.8772 20.6168 20.6663L19.7656 20.3062V19.3172C19.7656 19.0758 19.5032 18.8799 19.1797 18.8799C18.8562 18.8799 18.5938 19.0758 18.5938 19.3172V20.3764C18.5938 20.6176 18.331 20.8136 18.0078 20.8136H14.5703C14.3335 20.8136 14.1406 20.6697 14.1406 20.493V11.4563C14.1406 11.2151 14.4034 11.019 14.7266 11.019H18.0078C18.331 11.019 18.5938 11.2151 18.5938 11.4563V17.2766C18.5938 17.5182 18.8562 17.7139 19.1797 17.7139C19.5032 17.7139 19.7656 17.5182 19.7656 17.2766V11.9518H20.4114C20.9692 11.9518 21.5134 11.8336 21.9839 11.61L25.1852 10.0898C26.488 9.47128 27.2656 8.41388 27.2656 7.26174V5.88847C27.2656 5.24556 27.9666 4.72244 28.8281 4.72244C29.6896 4.72244 30.3906 5.24556 30.3906 5.8887L30.3952 11.2235C30.3955 11.625 30.8337 11.9518 31.3718 11.9518H36.2079C36.8546 11.9518 37.399 12.3296 37.421 12.794C37.4326 13.034 37.316 13.2613 37.0935 13.4335C36.8704 13.6059 36.5707 13.7009 36.25 13.7009H33.0469C32.7234 13.7009 32.4609 13.8965 32.4609 14.1381C32.4609 14.3798 32.7234 14.5754 33.0469 14.5754H37.6562C37.977 14.5754 38.2767 14.6704 38.4998 14.8428C38.7225 15.0149 38.8388 15.2422 38.8272 15.4822C38.8052 15.9466 38.2608 16.3244 37.6141 16.3244Z" fill="#1C04FC"/>
</g>
<defs>
<clipPath id="clip0">
<rect width="40" height="29.8503" fill="white"/>
</clipPath>
</defs>
</svg>
