<svg width="246" height="188" viewBox="0 0 246 188" fill="none" xmlns="http://www.w3.org/2000/svg">
<g clip-path="url(#clip0)">
<path d="M222.119 91.3767C212.222 82.2893 200.364 77.8926 189.444 71.3113C178.944 64.9805 171.472 54.81 162.077 46.4295C146.73 32.7339 128.983 22.4661 110.926 16.1994C92.6647 9.86166 70.361 6.35254 53.7134 20.3993C45.5273 27.3078 38.8652 38.0227 36.1503 50.1228C32.9193 64.5207 36.0812 79.2309 37.6302 93.6196C38.8867 105.311 32.9992 111.761 26.0597 118.405C9.81505 133.961 10.2638 162.109 20.3023 182.284H229.432C241.85 153.613 247.311 114.51 222.119 91.3767Z" fill="#F6F5F5"/>
<path d="M21.3497 102.719C25.6308 102.719 29.1013 98.2956 29.1013 92.8397C29.1013 87.3837 25.6308 82.9608 21.3497 82.9608C17.0685 82.9608 13.598 87.3837 13.598 92.8397C13.598 98.2956 17.0685 102.719 21.3497 102.719Z" fill="#F6F5F5"/>
<path d="M204.893 58.4152C211.221 58.4152 216.35 51.8779 216.35 43.8137C216.35 35.7495 211.221 29.2122 204.893 29.2122C198.565 29.2122 193.435 35.7495 193.435 43.8137C193.435 51.8779 198.565 58.4152 204.893 58.4152Z" fill="#F6F5F5"/>
<path d="M26.136 67.4866C26.4324 65.0995 25.1541 62.8581 23.281 62.4805C21.4078 62.1028 19.6491 63.7318 19.3528 66.119C19.0564 68.5062 20.3347 70.7475 22.2078 71.1252C24.081 71.5028 25.8397 69.8738 26.136 67.4866Z" fill="#F6F5F5"/>
<path d="M215.085 73.2702C216.837 72.3453 217.669 69.7854 216.943 67.5525C216.217 65.3196 214.209 64.2593 212.457 65.1842C210.705 66.1091 209.873 68.6689 210.598 70.9018C211.324 73.1347 213.333 74.195 215.085 73.2702Z" fill="#F6F5F5"/>
<path d="M13.3386 181.605C3.39341 170.792 3.30186 151.867 7.62331 137.919C12.4348 122.382 23.7118 109.593 38.5645 102.831C38.9235 102.668 39.2846 102.506 39.6478 102.346L39.7815 102.837C39.4225 102.996 39.0635 103.158 38.7045 103.32C23.9631 110.032 12.7731 122.713 8.01013 138.109C3.74164 151.891 3.81882 170.563 13.6105 181.209L13.3386 181.605Z" fill="#DADADA"/>
<path d="M222.655 182.21L222.296 181.972C229.641 163.778 233.991 145.43 234.877 128.91C235.75 112.625 233.215 99.1922 227.547 90.066C222.402 81.7838 212.165 73.2101 192.61 79.4013L192.512 78.8969C212.277 72.6393 222.647 81.3412 227.866 89.7434C233.599 98.9726 236.164 112.529 235.284 128.945C234.391 145.535 230.025 163.953 222.655 182.21Z" fill="#DADADA"/>
<path d="M59.1477 36.7543L58.7528 36.625C58.7797 36.4889 59.451 33.2303 61.6921 28.9217C63.7563 24.9527 67.603 19.3333 74.1924 15.1013C81.7394 10.254 91.2385 8.19748 102.426 8.98783C116.427 9.97835 133.12 15.4559 152.042 25.2707L151.889 25.7522C133.006 15.9592 116.357 10.4942 102.403 9.51054C91.2861 8.72362 81.8579 10.763 74.3764 15.5726C67.8659 19.7531 64.0704 25.2947 62.0322 29.2156C59.828 33.4442 59.154 36.7211 59.1477 36.7543Z" fill="#DADADA"/>
<path d="M200.589 37.1363H54.7114C53.2784 37.1363 52.1167 38.6167 52.1167 40.443V171.253C52.1167 173.079 53.2784 174.559 54.7114 174.559H200.589C202.022 174.559 203.184 173.079 203.184 171.253V40.443C203.184 38.6167 202.022 37.1363 200.589 37.1363Z" fill="#D3DFFF"/>
<path d="M198.596 48.0697H56.7056V157.691H198.596V48.0697Z" fill="white"/>
<path d="M198.8 157.952H56.5009V47.8055H198.8V157.952ZM56.9057 157.431H198.39V48.3293H56.9093L56.9057 157.431Z" fill="#86A7FF"/>
<path d="M198.596 41.2528H56.7056V48.0697H198.596V41.2528Z" fill="white"/>
<path d="M198.8 48.3294H56.5009V40.9932H198.8V48.3294ZM56.9057 47.8101H198.39V41.5136H56.9093L56.9057 47.8101Z" fill="#86A7FF"/>
<path d="M63.3749 46.242C63.1305 46.242 62.8915 46.1496 62.6883 45.9765C62.4851 45.8035 62.3266 45.5575 62.2331 45.2697C62.1396 44.9819 62.1151 44.6652 62.1628 44.3597C62.2105 44.0542 62.3282 43.7736 62.501 43.5533C62.6738 43.333 62.8941 43.183 63.1338 43.1222C63.3735 43.0615 63.622 43.0927 63.8478 43.2119C64.0737 43.3311 64.2667 43.5329 64.4025 43.7919C64.5383 44.051 64.6107 44.3555 64.6107 44.667C64.6103 45.0845 64.4799 45.4848 64.2482 45.78C64.0166 46.0752 63.7025 46.2414 63.3749 46.242ZM63.3749 43.6113C63.211 43.6113 63.0508 43.6732 62.9146 43.7893C62.7783 43.9053 62.6721 44.0703 62.6095 44.2632C62.5468 44.4562 62.5304 44.6685 62.5625 44.8734C62.5945 45.0782 62.6735 45.2663 62.7894 45.4139C62.9054 45.5615 63.0531 45.6619 63.2138 45.7025C63.3746 45.7431 63.5412 45.7221 63.6925 45.642C63.8439 45.5619 63.9732 45.4264 64.0641 45.2527C64.155 45.0789 64.2035 44.8747 64.2033 44.6658C64.2028 44.3861 64.1153 44.1181 63.9601 43.9204C63.8048 43.7227 63.5944 43.6116 63.3749 43.6113Z" fill="#86A7FF"/>
<path d="M67.5016 46.242C67.2571 46.242 67.0182 46.1496 66.815 45.9765C66.6117 45.8035 66.4533 45.5575 66.3598 45.2697C66.2663 44.9819 66.2418 44.6652 66.2895 44.3597C66.3371 44.0542 66.4549 43.7736 66.6277 43.5533C66.8005 43.333 67.0207 43.183 67.2605 43.1222C67.5002 43.0615 67.7487 43.0927 67.9745 43.2119C68.2003 43.3311 68.3933 43.5329 68.5291 43.7919C68.6649 44.051 68.7374 44.3555 68.7374 44.667C68.7372 45.0846 68.6069 45.485 68.3752 45.7803C68.1435 46.0756 67.8293 46.2417 67.5016 46.242ZM67.5016 43.6113C67.3377 43.611 67.1774 43.6728 67.041 43.7887C66.9046 43.9046 66.7983 44.0695 66.7355 44.2624C66.6727 44.4554 66.6562 44.6678 66.6882 44.8726C66.7201 45.0775 66.799 45.2658 66.9149 45.4135C67.0308 45.5612 67.1785 45.6618 67.3393 45.7025C67.5001 45.7432 67.6667 45.7221 67.8181 45.6421C67.9695 45.5621 68.0989 45.4266 68.1898 45.2528C68.2808 45.079 68.3292 44.8747 68.3291 44.6658C68.3286 44.3863 68.2413 44.1184 68.0862 43.9208C67.9311 43.7232 67.7209 43.6119 67.5016 43.6113Z" fill="#86A7FF"/>
<path d="M71.6282 46.242C71.3838 46.242 71.1449 46.1496 70.9416 45.9765C70.7384 45.8035 70.58 45.5575 70.4865 45.2697C70.3929 44.9819 70.3685 44.6652 70.4161 44.3597C70.4638 44.0542 70.5815 43.7736 70.7544 43.5533C70.9272 43.333 71.1474 43.183 71.3871 43.1222C71.6269 43.0615 71.8754 43.0927 72.1012 43.2119C72.327 43.3311 72.52 43.5329 72.6558 43.7919C72.7916 44.051 72.8641 44.3555 72.8641 44.667C72.8639 45.0846 72.7336 45.485 72.5019 45.7803C72.2701 46.0756 71.9559 46.2417 71.6282 46.242ZM71.6282 43.6113C71.4644 43.6113 71.3042 43.6732 71.1679 43.7893C71.0317 43.9053 70.9255 44.0703 70.8628 44.2632C70.8002 44.4562 70.7838 44.6685 70.8158 44.8734C70.8479 45.0782 70.9269 45.2663 71.0428 45.4139C71.1587 45.5615 71.3064 45.6619 71.4672 45.7025C71.6279 45.7431 71.7945 45.7221 71.9459 45.642C72.0972 45.5619 72.2265 45.4264 72.3175 45.2527C72.4084 45.0789 72.4568 44.8747 72.4566 44.6658C72.4562 44.3861 72.3687 44.1181 72.2134 43.9204C72.0581 43.7227 71.8477 43.6116 71.6282 43.6113Z" fill="#86A7FF"/>
<path d="M210.632 172.496H44.6684V182.305H210.632V172.496Z" fill="#D3DFFF"/>
<path d="M210.865 182.597H44.4395V172.204H210.865V182.597ZM44.8972 182.009H210.404V172.783H44.8972V182.009Z" fill="#86A7FF"/>
<path d="M134.957 162.35H120.343C119.428 162.35 118.686 163.295 118.686 164.462V165.725C118.686 166.892 119.428 167.837 120.343 167.837H134.957C135.873 167.837 136.615 166.892 136.615 165.725V164.462C136.615 163.295 135.873 162.35 134.957 162.35Z" fill="white"/>
<path d="M134.731 168.097H120.57C120.016 168.096 119.485 167.816 119.094 167.317C118.702 166.818 118.482 166.142 118.481 165.437V164.75C118.482 164.045 118.702 163.369 119.094 162.87C119.485 162.371 120.016 162.091 120.57 162.09H134.731C135.285 162.091 135.816 162.371 136.207 162.87C136.599 163.369 136.819 164.045 136.82 164.75V165.437C136.819 166.142 136.599 166.818 136.207 167.317C135.816 167.816 135.285 168.096 134.731 168.097ZM120.57 162.607C120.124 162.608 119.697 162.833 119.382 163.235C119.067 163.636 118.89 164.18 118.889 164.748V165.434C118.89 166.002 119.067 166.546 119.382 166.948C119.697 167.349 120.124 167.575 120.57 167.576H134.731C135.177 167.575 135.604 167.349 135.919 166.948C136.234 166.546 136.411 166.002 136.411 165.434V164.748C136.411 164.18 136.234 163.636 135.919 163.235C135.604 162.833 135.177 162.608 134.731 162.607H120.57Z" fill="#86A7FF"/>
<path d="M178.481 96.4014H76.8194C75.0529 96.3987 73.3594 95.5032 72.1103 93.9113C70.8612 92.3194 70.1585 90.1612 70.1564 87.91V87.3381C70.1585 85.0868 70.8612 82.9286 72.1103 81.3367C73.3594 79.7448 75.0529 78.8493 76.8194 78.8466H178.481C180.248 78.8493 181.941 79.7449 183.19 81.3368C184.439 82.9287 185.142 85.0869 185.144 87.3381V87.91C185.142 90.1611 184.439 92.3193 183.19 93.9112C181.941 95.5031 180.248 96.3987 178.481 96.4014ZM76.8194 79.3716C75.1611 79.374 73.5713 80.2146 72.3988 81.709C71.2262 83.2033 70.5666 85.2293 70.5647 87.3426V87.9145C70.5673 90.0272 71.2272 92.0524 72.3997 93.546C73.5722 95.0396 75.1616 95.8797 76.8194 95.8821H178.481C180.14 95.8797 181.729 95.0391 182.902 93.5448C184.075 92.0505 184.734 90.0244 184.736 87.9111V87.3392C184.734 85.2259 184.075 83.1999 182.902 81.7055C181.729 80.2112 180.14 79.3706 178.481 79.3682L76.8194 79.3716Z" fill="#86A7FF"/>
<path d="M88.888 84.4534H76.595C75.4624 84.4534 74.5442 85.6235 74.5442 87.067V88.1844C74.5442 89.6279 75.4624 90.798 76.595 90.798H88.888C90.0206 90.798 90.9388 89.6279 90.9388 88.1844V87.067C90.9388 85.6235 90.0206 84.4534 88.888 84.4534Z" fill="#D3DFFF"/>
<path d="M108.806 84.4534H98.0595C96.912 84.4534 95.9818 85.6389 95.9818 87.1013V88.1501C95.9818 89.6125 96.912 90.798 98.0595 90.798H108.806C109.954 90.798 110.884 89.6125 110.884 88.1501V87.1013C110.884 85.6389 109.954 84.4534 108.806 84.4534Z" fill="#D3DFFF"/>
<path d="M131.707 84.4534H117.228C116.018 84.4534 115.037 85.7034 115.037 87.2454V88.006C115.037 89.548 116.018 90.798 117.228 90.798H131.707C132.917 90.798 133.897 89.548 133.897 88.006V87.2454C133.897 85.7034 132.917 84.4534 131.707 84.4534Z" fill="#D3DFFF"/>
<path d="M163.482 84.4191H141.968C140.758 84.4191 139.777 85.6691 139.777 87.211V87.9717C139.777 89.5136 140.758 90.7636 141.968 90.7636H163.482C164.692 90.7636 165.673 89.5136 165.673 87.9717V87.211C165.673 85.6691 164.692 84.4191 163.482 84.4191Z" fill="#D3DFFF"/>
<path d="M144.785 65.6748H110.517V70.2476H144.785V65.6748Z" fill="#86A7FF"/>
<path d="M122.244 124.239H116.173V139.055H122.244V124.239Z" fill="#ADC3FF"/>
<path d="M134.768 115.425H128.696V139.055H134.768V115.425Z" fill="#D3DFFF"/>
<path d="M147.291 110.235H141.219V139.055H147.291V110.235Z" fill="#ADC3FF"/>
<path d="M159.814 122.776H153.743V139.055H159.814V122.776Z" fill="#D3DFFF"/>
<path d="M172.338 113.372H166.266V139.055H172.338V113.372Z" fill="#ADC3FF"/>
<path d="M184.861 103.615H178.789V139.055H184.861V103.615Z" fill="#D3DFFF"/>
<path d="M102.822 102.715H68.5534V105.504H102.822V102.715Z" fill="#E5ECFF"/>
<path d="M102.822 110.543H68.5534V139.055H102.822V110.543Z" fill="#E5ECFF"/>
<path d="M87.2393 121.143C85.9487 120.493 84.6222 121.003 83.6744 122.183C82.8119 123.258 82.6872 124.777 82.2842 126.134C83.1233 126.427 83.8781 127.059 84.7972 126.879C85.9855 126.642 86.0169 125.229 86.69 124.267C87.2671 123.443 87.9582 122.911 88.7839 122.769C88.4249 122.103 87.9923 121.521 87.2393 121.143Z" fill="#86A7FF"/>
<path d="M96.9448 119.664C95.7781 119.987 94.5485 120.517 93.7138 121.602C92.9958 122.536 93.0227 124.161 92.5022 125.148C93.0901 125.647 93.7515 125.88 94.3968 125.436C95.0251 125.002 95.4101 124.024 96.0904 123.597C96.6379 123.254 97.4232 123.038 98.0182 122.903C98.1546 122.871 98.2946 122.851 98.4338 122.827V119.362C97.9337 119.43 97.4368 119.531 96.9448 119.664Z" fill="#86A7FF"/>
<path d="M98.0191 122.897C97.4241 123.032 96.6388 123.249 96.0913 123.591C95.411 124.018 95.0287 124.996 94.3977 125.431C93.7524 125.874 93.091 125.641 92.5031 125.142C92.2682 124.94 92.0489 124.711 91.8479 124.456C91.0402 123.446 90.7925 122.875 89.5207 122.74C89.2735 122.716 89.025 122.725 88.7794 122.768C87.9537 122.91 87.2626 123.442 86.6855 124.266C86.0124 125.228 85.981 126.641 84.7927 126.877C83.8782 127.058 83.1234 126.42 82.2797 126.133C81.9363 126.003 81.5755 125.964 81.2198 126.018C80.3348 126.173 79.7748 126.85 79.1555 127.364C78.7256 127.722 78.2688 128.001 77.654 127.966C76.2827 127.889 74.5128 126.882 72.9332 126.823V134.609H98.4284V122.828C98.2955 122.846 98.1555 122.865 98.0191 122.897Z" fill="#ADC3FF"/>
<path d="M79.1618 127.366C79.0597 127.254 78.9657 127.132 78.8809 126.999C78.2526 126 78.1988 124.733 77.5005 123.796C76.1408 121.974 74.283 122.695 72.9395 124.244V126.818C74.519 126.883 76.2889 127.89 77.6603 127.962C78.2751 128.003 78.7319 127.724 79.1618 127.366Z" fill="#86A7FF"/>
<path d="M42.3474 108.826L35.8325 110.454L37.3197 98.244L41.3261 98.3481C41.3001 98.5631 41.2749 98.7713 41.2597 98.9863C41.1107 100.628 41.1879 102.275 41.3494 103.747C41.5444 105.479 41.8788 107.181 42.3474 108.826Z" fill="#F9B384"/>
<path d="M41.3512 103.747C38.8472 102.243 37.9174 99.0846 37.9174 99.0846L41.2597 98.9874C41.1107 100.628 41.1879 102.275 41.3512 103.747Z" fill="#102048"/>
<path d="M42.7289 91.2955C42.9847 92.4393 44.4341 99.6519 41.7928 100.466C39.1515 101.281 36.4267 98.1868 36.4267 98.1868L37.3242 91.2406L41.1565 89.7754L42.7289 91.2955Z" fill="#F9B384"/>
<path d="M39.2322 95.2233C39.2322 95.2233 39.9188 89.4506 42.7325 91.2955C42.6329 91.2292 42.4866 90.6527 42.4237 90.5223C42.143 89.9237 41.7736 89.4004 41.336 88.9817C39.7366 87.4879 37.0397 88.03 35.7491 89.7491C34.4791 91.4408 34.4405 94.4467 35.0948 96.6324C35.2006 96.9861 35.3348 97.3249 35.4951 97.6435C35.6415 97.9243 35.8135 98.1819 36.0075 98.411C36.1754 98.6157 37.4292 99.8739 37.4435 98.9063C37.4687 96.5455 39.2322 95.2233 39.2322 95.2233Z" fill="#EB5D60"/>
<path d="M39.8508 96.5445C40.3288 96.0462 40.3238 95.0306 39.8396 94.2761C39.3554 93.5216 38.5753 93.3139 38.0972 93.8123C37.6192 94.3106 37.6242 95.3262 38.1084 96.0806C38.5926 96.8351 39.3727 97.0428 39.8508 96.5445Z" fill="#F9B384"/>
<path d="M43.2611 96.2195C43.5897 96.2195 43.8561 95.8508 43.8561 95.396C43.8561 94.9411 43.5897 94.5724 43.2611 94.5724C42.9325 94.5724 42.666 94.9411 42.666 95.396C42.666 95.8508 42.9325 96.2195 43.2611 96.2195Z" fill="#F9B384"/>
<path d="M34.7241 155.931L26.9742 160.163C26.9742 160.163 33.3608 180.893 35.2312 182.195C37.1016 183.498 36.1682 171.993 37.4453 168.52L39.0608 160.38L34.7241 155.931Z" fill="#102048"/>
<path d="M34.1157 167.711L34.059 168.75L37.4228 169.048L37.4795 168.009L34.1157 167.711Z" fill="white"/>
<path d="M32.7649 154.408L37.4489 168.518C37.4489 168.518 55.6743 156.362 60.1878 145.293L53.0339 133.352L32.7649 154.408Z" fill="#1C04FC"/>
<path d="M57.2073 165.805C57.2073 165.805 65.7236 166.238 69.6412 157.665L60.9544 156.036L57.2073 165.805Z" fill="#102048"/>
<path d="M70.5288 167.286L60.9211 171.612L60.1457 168.118L58.7384 161.79L66.7467 156.96L67.3095 158.5L70.5288 167.286Z" fill="#F9B384"/>
<path d="M82.671 182.302L72.1533 171.719L70.5297 167.287L60.922 171.61L63.2968 182.302H82.671Z" fill="#102048"/>
<path d="M71.8321 171.406L69.6603 174.934L70.3021 175.576L72.4739 172.048L71.8321 171.406Z" fill="white"/>
<path d="M67.3095 158.5L60.1457 168.118L58.7384 161.79L66.7467 156.96L67.3095 158.5Z" fill="#E28B6D"/>
<path d="M69.643 157.662C65.1142 159.118 60.9693 161.832 57.2081 165.805L50.7336 144.098C50.7336 144.098 37.6715 159.966 29.8704 157.34C22.458 154.845 25.6935 139.211 25.6935 139.211C35.872 130.128 52.0637 117.936 59.1584 127.591C59.1904 127.627 59.2204 127.665 59.2482 127.706C60.7012 129.739 62.3409 133.757 63.8828 138.208C66.963 147.077 69.643 157.662 69.643 157.662Z" fill="#1C04FC"/>
<path d="M63.8864 138.212C56.8285 140.328 49.5669 130.336 49.5669 130.336L56.8617 127.285L59.1584 127.591C59.1904 127.627 59.2204 127.665 59.2482 127.706C60.7048 129.744 62.3445 133.762 63.8864 138.212Z" fill="#040484"/>
<path d="M57.0179 165.896L50.6529 144.558C49.2734 146.23 41.7677 154.987 33.8446 157.647L33.7405 157.144C42.3564 154.249 50.5093 144.017 50.5901 143.914L50.8135 143.632L57.3994 165.707L57.0179 165.896Z" fill="#040484"/>
<path d="M36.1906 104.293L33.3303 116.074L29.481 131.922C29.481 131.922 26.6736 133.206 24.1974 132.806C22.0111 132.452 20.0815 130.778 20.6074 125.714C21.7562 114.567 36.1906 104.293 36.1906 104.293Z" fill="#FBC343"/>
<path d="M33.3303 116.074L29.4809 131.922C29.4809 131.922 26.6736 133.206 24.1974 132.806C26.2769 116.538 33.1472 109.607 33.1472 109.607L33.3303 116.074Z" fill="#E49B31"/>
<path d="M64.1683 115.954L62.0385 126.291L54.8505 117.649L57.7018 111.556L61.5574 114.177L64.1683 115.954Z" fill="#FBC343"/>
<path d="M57.718 111.567L60.4463 106.01L65.9579 103.017L64.1521 115.976L57.718 111.567Z" fill="#F9B384"/>
<path d="M84.4974 100.935C83.0498 100.493 81.7439 100.566 80.5646 101.117C79.7589 101.502 79.0204 102.085 78.3909 102.833L75.7253 94.9671C76.609 94.7807 77.464 94.4178 78.2589 93.8919C79.3889 93.1325 80.3373 91.9988 81.0044 90.6104L84.4974 100.935Z" fill="#1F3C88"/>
<path d="M78.3963 102.831L75.7343 94.9613L36.5146 118.688L37.9318 122.878L78.3963 102.831L75.7343 94.9613L78.3963 102.831Z" fill="#1F3C88"/>
<path d="M84.4974 100.935C83.0498 100.493 81.7439 100.566 80.5646 101.117L78.2598 93.8908C79.3898 93.1313 80.3382 91.9977 81.0053 90.6093L84.4974 100.935Z" fill="#102048"/>
<path d="M115.042 105.053C123.225 94.6257 123.225 77.7192 115.042 67.2916C106.86 56.864 93.5941 56.864 85.4118 67.2916C77.2295 77.7192 77.2295 94.6257 85.4118 105.053C93.5941 115.481 106.86 115.481 115.042 105.053Z" fill="#1F3C88"/>
<path d="M112.57 101.902C119.387 93.215 119.387 79.13 112.57 70.4426C105.753 61.7552 94.7011 61.7552 87.8843 70.4426C81.0676 79.13 81.0676 93.215 87.8843 101.902C94.7011 110.59 105.753 110.59 112.57 101.902Z" fill="white"/>
<path d="M84.3179 77.0314H116.138C116.07 76.837 116 76.6414 115.928 76.4504H84.5324C84.4588 76.6437 84.3843 76.8358 84.3179 77.0314Z" fill="#86A7FF"/>
<path d="M116.083 95.4703H84.3763C84.4463 95.6648 84.5136 95.8615 84.5881 96.0514H115.863C115.938 95.8592 116.012 95.6659 116.083 95.4703Z" fill="#86A7FF"/>
<path d="M87.1899 86.4768V86.025C87.1878 85.1461 86.9129 84.304 86.4252 83.6825C85.9376 83.0611 85.2768 82.7107 84.5872 82.708H82.9861C82.6922 85.0556 82.6976 87.4483 83.0022 89.7937H84.5872C85.2768 89.791 85.9376 89.4407 86.4252 88.8192C86.9129 88.1978 87.1878 87.3556 87.1899 86.4768Z" fill="#D3DFFF"/>
<path d="M106.831 82.7069H95.4621C94.0054 82.7069 92.8244 84.2119 92.8244 86.0685V86.4322C92.8244 88.2887 94.0054 89.7938 95.4621 89.7938H106.831C108.288 89.7938 109.468 88.2887 109.468 86.4322V86.0685C109.468 84.2119 108.288 82.7069 106.831 82.7069Z" fill="#D3DFFF"/>
<path d="M117.473 82.708H116.887C116.513 82.6888 116.139 82.7663 115.789 82.9357C115.438 83.1051 115.118 83.3629 114.848 83.6938C114.578 84.0247 114.363 84.4217 114.216 84.8612C114.069 85.3006 113.993 85.7732 113.993 86.2509C113.993 86.7285 114.069 87.2012 114.216 87.6406C114.363 88.08 114.578 88.477 114.848 88.8079C115.118 89.1388 115.438 89.3967 115.789 89.5661C116.139 89.7355 116.513 89.8129 116.887 89.7937H117.447C117.754 87.4489 117.763 85.0564 117.473 82.708Z" fill="#D3DFFF"/>
<path d="M64.1683 115.955L61.5574 114.183L63.1478 109.779C63.1478 109.779 65.3637 104.679 66.4685 104.897C67.5734 105.116 64.1683 115.955 64.1683 115.955Z" fill="#F9B384"/>
<path d="M54.8522 117.649L54.3137 118.809C53.2367 116.921 50.8593 112.896 47.8697 109.699C45.1772 106.827 41.5352 102.359 38.3518 102.978C29.8256 104.626 25.6971 139.211 25.6971 139.211L47.7512 129.038L52.692 133.943C53.7665 135.01 55.1177 135.52 56.4749 135.371C57.5874 135.249 58.6427 134.69 59.4957 133.772C60.3487 132.854 60.9574 131.621 61.2379 130.244L62.0457 126.294L54.8522 117.649Z" fill="#FBC343"/>
<path d="M41.8988 122.092L41.6286 122.48L47.6118 129.238L47.882 128.85L41.8988 122.092Z" fill="#E49B31"/>
<path d="M53.8829 117.728L53.5502 118.027L57.1543 124.527L57.4871 124.227L53.8829 117.728Z" fill="#E49B31"/>
<path d="M166.538 50.5266C166.538 50.5266 165.506 54.6442 162.905 56.4743C160.304 58.3043 156.85 60.2487 158.016 60.8755C159.182 61.5023 162.3 61.1043 162.3 61.1043C162.3 61.1043 156.267 67.0519 157.971 67.6776C159.675 68.3032 163.805 64.0175 163.805 64.0175C163.805 64.0175 163.244 65.6188 164.096 65.9619C164.949 66.3051 166.586 65.9047 166.586 65.9047C166.586 65.9047 166.362 67.0485 168.066 66.7626C169.77 66.4766 174.21 59.6174 174.21 59.6174L174.524 53.3266L166.538 50.5266Z" fill="#E28B6D"/>
<path d="M161.29 15.2009C161.29 15.2009 168.021 12.9716 178.11 21.0342C187.192 28.2846 187.799 35.4367 183.491 44.3536C179.183 53.2705 174.207 59.6162 174.207 59.6162L166.538 50.5266L173.269 37.1512L161.29 15.2009Z" fill="#1C04FC"/>
<path d="M158.913 16.5734C158.913 16.5734 149.4 23.093 144.56 37.1512H177.752L168.597 18.6311L158.913 16.5734Z" fill="#1C04FC"/>
<path d="M149.55 37.0917C149.55 37.0917 152.813 37.8203 153.956 37.0917C155.1 36.3631 151.468 34.262 148.339 33.2761C145.21 32.2901 141.543 30.531 138.516 36.0211C135.489 41.5113 135.791 41.8944 136.767 41.8087C137.742 41.7229 140.063 38.0342 140.063 38.0342C140.063 38.0342 137.574 42.0203 138.751 42.4492C139.928 42.8781 142.755 37.4348 142.755 37.4348C142.755 37.4348 140.332 41.851 141.577 42.3645C142.823 42.8781 145.513 37.4772 145.513 37.4772C145.513 37.4772 142.788 42.9227 144.436 42.7935C145.513 42.71 146.738 40.3206 147.466 38.6621C147.672 38.1876 147.974 37.7918 148.34 37.5157C148.707 37.2397 149.124 37.0933 149.55 37.0917Z" fill="#E28B6D"/>
<path d="M161.233 22.5657C160.423 22.554 159.625 22.3076 158.9 21.8451L159.099 21.3876C159.234 21.4825 162.428 23.682 164.484 19.5895L164.828 19.8698C163.763 21.9938 162.39 22.5657 161.233 22.5657Z" fill="#102048"/>
<path d="M166.709 50.6684L166.367 50.3847L175.044 33.395L171.716 26.7782L172.06 26.4968L175.53 33.3973L166.709 50.6684Z" fill="#102048"/>
<path d="M163.192 17.1133C162.644 19.5999 160.033 20.1226 158.831 18.0443L158.509 17.4942L156.438 13.9176L158.572 10.381L158.777 10.0378L159.262 10.4954L159.614 10.8305L163.343 14.3842C163.419 15.4902 163.352 16.3893 163.192 17.1133Z" fill="#E28B6D"/>
<path d="M158.509 17.4942L156.438 13.9176L158.572 10.381L159.262 10.4954L159.593 10.5525C159.593 10.5525 159.601 10.6486 159.614 10.8305C159.668 11.7547 159.739 14.7971 158.509 17.4942Z" fill="#102048"/>
<path d="M150.536 8.28784C150.536 8.28784 155.155 18.861 158.48 14.438C161.004 11.0787 159.223 6.44292 159.223 6.44292L156.773 3.41418L151.315 5.49587L150.536 8.28784Z" fill="#E28B6D"/>
<path d="M157.663 8.80821C157.663 8.80821 156.104 5.65023 154.406 7.14058C152.708 8.63093 150.712 12.6399 148.383 10.3214C146.761 8.7087 147.862 4.12442 150.007 4.51445C150.007 4.51445 152.373 -1.26965 156.438 0.256154C160.503 1.78196 158.944 4.86903 161.116 5.33112C163.288 5.7932 170.32 6.43601 169.151 15.91C169.151 15.91 166.142 14.8863 163.631 15.2431C160.489 15.6903 158.369 9.09187 158.369 9.09187C158.165 9.16279 157.663 8.80821 157.663 8.80821Z" fill="#FBC343"/>
<path d="M158.053 10.5811C158.73 10.5811 159.279 9.67572 159.279 8.55889C159.279 7.44205 158.73 6.53668 158.053 6.53668C157.377 6.53668 156.828 7.44205 156.828 8.55889C156.828 9.67572 157.377 10.5811 158.053 10.5811Z" fill="#E28B6D"/>
<path d="M246 181.894H0V182.675H246V181.894Z" fill="#102048"/>
<path d="M205.714 153.8H188.886V166.277H205.714V153.8Z" fill="#040484"/>
<path d="M207.672 182.261L216.639 188L213.59 173.138L209.645 172.172L205.516 174.053L207.672 182.261Z" fill="#102048"/>
<path d="M209.647 172.172L207.672 182.258C207.672 182.258 199.158 180.828 190.816 178.468C186.968 177.387 183.158 176.102 180.237 174.668C178.699 173.914 177.405 173.118 176.484 172.291C170.001 166.468 172.315 153.06 183.305 155.353C187.563 156.242 192.157 158.66 196.302 161.399C198.191 162.642 199.982 163.958 201.605 165.22C206.35 168.903 209.647 172.172 209.647 172.172Z" fill="#1C04FC"/>
<path opacity="0.3" d="M201.61 165.222L190.816 178.469C186.968 177.388 183.158 176.104 180.237 174.669L196.307 161.401C198.196 162.644 199.986 163.959 201.61 165.222Z" fill="#040484"/>
<path d="M179.411 173.996L168.557 182.027L184.531 181.943L185.556 174.224L179.411 173.996Z" fill="#102048"/>
<path d="M188.92 172.224L185.556 174.224L184.531 181.943L184.749 181.941L191.431 182.056L193.764 178.34L188.92 172.224Z" fill="#F9B384"/>
<path d="M188.92 172.224C188.92 172.224 201.658 156.333 212.692 152.56C222.924 149.062 225.969 162.168 220.231 168.68C214.493 175.193 191.435 182.056 191.435 182.056L188.92 172.224Z" fill="#1C04FC"/>
<path d="M191.479 182.307L191.379 181.804C199.291 179.257 207.419 176.494 213.285 173.531L213.436 174.015C207.551 176.988 199.407 179.757 191.479 182.307Z" fill="#102048"/>
<path d="M196.617 109.715C195.471 109.829 194.39 110.194 193.436 111.059C192.647 111.788 192.026 112.776 191.641 113.918C191.034 115.683 191.175 117.654 190.709 119.462C190.26 121.203 189.161 122.101 188.138 123.264C187.15 124.384 186.443 126.238 186.791 127.939C186.892 128.41 187.068 128.849 187.308 129.229C187.488 129.521 188.05 130.361 188.364 130.364L205.685 130.461C205.685 130.461 208.905 126.618 205.2 122.124C204.171 120.877 203.019 119.595 202.497 117.843C202.173 116.761 202.011 115.619 201.768 114.509C201.457 113.091 200.773 111.649 199.851 110.747C198.928 109.844 197.761 109.596 196.617 109.715Z" fill="#102048"/>
<path d="M195.159 111.051C195.159 111.051 192.271 108.25 195.133 106.98C197.322 106.008 199.375 107.109 198.072 110.725L195.159 111.051Z" fill="#102048"/>
<path d="M195.917 125.094C195.917 125.094 179.636 128.609 176.405 142.928C173.175 157.247 192.83 158.176 192.83 158.176C192.83 158.176 212.131 157.333 215.562 153.389C218.993 149.445 220.743 129.467 197.801 125.266L195.917 125.094Z" fill="#EB5D60"/>
<path d="M196.966 132.926C196.861 132.926 196.755 132.926 196.651 132.91C195.484 132.787 194.554 132.018 194.042 130.737L194.401 130.5C194.85 131.612 195.658 132.283 196.68 132.388C197.936 132.523 199.283 131.781 199.971 130.595L200.3 130.902C199.597 132.129 198.26 132.926 196.966 132.926Z" fill="#AB4446"/>
<path d="M182.179 141.631L181.922 142.036L190.438 150.809L190.695 150.404L182.179 141.631Z" fill="#AB4446"/>
<path d="M211.392 141.859L203.629 150.423L203.895 150.815L211.658 142.251L211.392 141.859Z" fill="#AB4446"/>
<path d="M205.288 141.442H188.34C187.771 141.442 187.309 142.031 187.309 142.757V157.819C187.309 158.545 187.771 159.133 188.34 159.133H205.288C205.857 159.133 206.319 158.545 206.319 157.819V142.757C206.319 142.031 205.857 141.442 205.288 141.442Z" fill="white"/>
<path d="M195.023 120.66L194.581 126.036C194.538 126.539 194.593 127.049 194.742 127.519C194.89 127.989 195.127 128.406 195.432 128.732C195.836 129.163 196.345 129.401 196.872 129.406C197.399 129.41 197.911 129.18 198.32 128.756L198.358 128.716C198.678 128.382 198.925 127.95 199.077 127.46C199.228 126.97 199.279 126.44 199.224 125.918L198.677 120.568L195.023 120.66Z" fill="#F9B384"/>
<path d="M194.943 121.765C196.234 124.989 197.691 125.054 198.803 121.846L196.516 121.472L194.943 121.765Z" fill="#102048"/>
<path d="M196.906 122.937C198.61 122.937 199.992 120.633 199.992 117.791C199.992 114.949 198.61 112.645 196.906 112.645C195.202 112.645 193.82 114.949 193.82 117.791C193.82 120.633 195.202 122.937 196.906 122.937Z" fill="#F9B384"/>
<path d="M200.501 116.945C200.501 116.945 197.409 116.88 196.387 113.689C196.387 113.689 194.726 114.438 194.292 117.172L193.116 117.694L193.091 113.396L195.694 111.279L198.019 111.344L200.063 113.525L200.501 116.945Z" fill="#102048"/>
<path d="M194.724 117.377C195.069 118.224 194.891 119.207 194.328 119.585C193.764 119.962 193.027 119.573 192.683 118.727C192.34 117.88 192.516 116.897 193.08 116.52C193.644 116.144 194.381 116.531 194.724 117.377Z" fill="#F9B384"/>
<path d="M199.197 117.377C198.853 118.224 199.031 119.207 199.595 119.585C200.159 119.962 200.895 119.573 201.239 118.727C201.584 117.88 201.405 116.897 200.842 116.52C200.278 116.144 199.544 116.531 199.197 117.377Z" fill="#F9B384"/>
</g>
<defs>
<clipPath id="clip0">
<rect width="246" height="188" fill="white"/>
</clipPath>
</defs>
</svg>
